<?xml version="1.0" encoding="utf-8"?>
<!-- Generator: Adobe Illustrator 19.2.1, SVG Export Plug-In . SVG Version: 6.00 Build 0)  -->
<svg version="1.1" id="Layer_1" xmlns="http://www.w3.org/2000/svg" xmlns:xlink="http://www.w3.org/1999/xlink" x="0px" y="0px"
	 viewBox="0 0 147.8 40.1" style="enable-background:new 0 0 147.8 40.1;" xml:space="preserve">
<style type="text/css">
	.st0{fill-rule:evenodd;clip-rule:evenodd;fill:#FFFFFF;}
	.st1{fill:#FFFFFF;}
</style>
<g>
	<g>
		<g>
			<path class="st0" d="M18.4,5c0.1-0.7,0-1.5-0.4-2.1c-0.1-0.2-0.4-0.3-0.7-0.2C17,2.9,17,3.2,17.1,3.4c0.3,0.5,0.4,1,0.3,1.5
				c-1.6,0.1-3,0.6-3.8,1.4c-0.5,0.5-0.8,1.1-0.8,1.7c0,0.5,0.2,1,0.5,1.5l0.1,0.1c0,2.9,1.6,5.4,3.6,5.8c0,0.4,0.3,0.8,0.7,0.8
				c0.4,0,0.7-0.3,0.7-0.8c0.7-0.1,1.3-0.5,1.8-1c0.2-0.2,0.4-0.4,0.6-0.7c0.8-1.1,1.2-2.6,1.2-4.1l0.1-0.1c0.4-0.5,0.5-1,0.5-1.5
				C22.7,6.5,20.9,5.1,18.4,5L18.4,5z M21.1,9.6c0,1.4-0.4,2.7-1,3.6c-0.6,0.9-1.4,1.4-2.3,1.4c-1.8,0-3.3-2.2-3.3-5c0,0,0,0,0-0.1
				c1-0.3,2.1-0.5,3.3-0.5C19,9,20.1,9.2,21.1,9.6C21.1,9.6,21.1,9.6,21.1,9.6L21.1,9.6z M21.7,8.1c0,0.2,0,0.4-0.1,0.6
				c-1.1-0.4-2.4-0.6-3.8-0.6c-1.4,0-2.7,0.2-3.8,0.6c-0.1-0.2-0.1-0.4-0.1-0.6c0-0.5,0.3-0.8,0.5-1c0.7-0.7,2-1.2,3.5-1.2
				C19.9,5.9,21.7,6.9,21.7,8.1L21.7,8.1z M21.7,8.1"/>
		</g>
		<g>
			<g>
				<path class="st0" d="M13.5,19.5c0.7,0.1,1.5-0.1,2.1-0.5c0.2-0.2,0.3-0.5,0.1-0.7c-0.2-0.2-0.5-0.3-0.7-0.1
					c-0.4,0.3-1,0.4-1.5,0.3c-0.1-1.5-0.7-2.9-1.6-3.7c-0.5-0.5-1.1-0.7-1.8-0.7c-0.5,0-1,0.2-1.4,0.6l-0.1,0.1
					c-2.9,0.1-5.3,1.8-5.7,3.8c-0.4,0.1-0.8,0.4-0.7,0.7c0,0.4,0.4,0.6,0.8,0.7c0.2,0.7,0.6,1.3,1.1,1.8c0.2,0.2,0.5,0.4,0.7,0.6
					c1.1,0.7,2.6,1.1,4.2,1L9,23.5c0.5,0.3,1,0.5,1.5,0.5C12.1,23.9,13.4,22,13.5,19.5L13.5,19.5z M8.9,22.4
					c-1.4,0.1-2.7-0.3-3.6-0.9c-0.9-0.6-1.5-1.4-1.5-2.2c-0.1-1.8,2.1-3.4,4.9-3.5c0,0,0,0,0.1,0c0.4,1,0.6,2.1,0.6,3.3
					C9.4,20.2,9.3,21.4,8.9,22.4C9,22.4,8.9,22.4,8.9,22.4L8.9,22.4z M10.5,23c-0.2,0-0.4,0-0.6-0.1c0.4-1.1,0.5-2.5,0.5-3.8
					c-0.1-1.4-0.3-2.7-0.8-3.8c0.2-0.1,0.4-0.2,0.6-0.2c0.5,0,0.8,0.2,1.1,0.5c0.7,0.7,1.2,2,1.3,3.4C12.6,21.1,11.6,22.9,10.5,23
					L10.5,23z M10.5,23"/>
			</g>
			<g>
				<path class="st0" d="M22.1,19.5c0.1,2.5,1.3,4.4,3,4.4c0.5,0,1-0.2,1.5-0.5l0.1-0.1c1.5,0,3-0.3,4.2-1c0.3-0.2,0.5-0.4,0.7-0.6
					c0.6-0.5,0.9-1.1,1.1-1.8c0.4,0,0.8-0.3,0.8-0.7c0-0.4-0.3-0.7-0.7-0.7c-0.4-2-2.8-3.7-5.7-3.8l-0.1-0.1
					c-0.4-0.4-0.9-0.6-1.4-0.6c-0.6,0-1.2,0.2-1.8,0.7c-0.9,0.8-1.4,2.2-1.6,3.7c-0.5,0.1-1.1,0-1.5-0.3c-0.2-0.2-0.5-0.1-0.7,0.1
					c-0.2,0.2-0.1,0.5,0.1,0.7C20.6,19.4,21.4,19.6,22.1,19.5L22.1,19.5z M26.6,22.4C26.6,22.4,26.6,22.4,26.6,22.4
					c-0.4-1-0.5-2.1-0.4-3.4c0-1.2,0.3-2.4,0.6-3.3c0,0,0,0,0.1,0c2.8,0.1,5,1.7,4.9,3.5c0,0.9-0.6,1.7-1.5,2.2
					C29.3,22.1,28,22.5,26.6,22.4L26.6,22.4z M25.1,23c-1.2,0-2.1-1.9-2-4c0.1-1.4,0.5-2.7,1.3-3.4c0.2-0.2,0.6-0.5,1.1-0.5
					c0.2,0,0.4,0.1,0.6,0.2c-0.4,1.1-0.7,2.4-0.8,3.8c-0.1,1.4,0.1,2.7,0.5,3.8C25.5,22.9,25.3,23,25.1,23L25.1,23z M25.1,23"/>
			</g>
		</g>
		<g>
			<g>
				<path class="st0" d="M15.2,26.1c0.4-0.6,0.7-1.3,0.7-2c0-0.3-0.2-0.5-0.5-0.5c-0.3,0-0.5,0.2-0.5,0.5c0,0.5-0.2,1.1-0.5,1.5
					c-1.4-0.7-2.9-1-4-0.6c-0.7,0.2-1.2,0.6-1.5,1.1c-0.3,0.4-0.3,1-0.3,1.5l0,0.1c-1.4,2.6-1.3,5.4,0.2,6.9c-0.2,0.4-0.1,0.8,0.2,1
					c0.3,0.2,0.7,0,1-0.3c0.6,0.2,1.4,0.2,2.1,0c0.3-0.1,0.6-0.2,0.9-0.3c1.2-0.6,2.3-1.6,3.1-3l0.1,0c0.5-0.2,1-0.6,1.2-1
					C18.2,29.5,17.2,27.5,15.2,26.1L15.2,26.1z M15.2,31.5c-0.7,1.2-1.6,2.1-2.7,2.6c-1,0.5-2,0.5-2.7,0.1c-1.6-0.9-1.8-3.6-0.4-6
					c0,0,0,0,0-0.1c1,0.2,2.1,0.6,3.1,1.2C13.7,29.9,14.6,30.6,15.2,31.5C15.3,31.4,15.2,31.4,15.2,31.5L15.2,31.5z M16.5,30.5
					c-0.1,0.2-0.2,0.3-0.4,0.4c-0.8-0.9-1.8-1.7-3-2.4c-1.2-0.7-2.5-1.2-3.6-1.4c0-0.2,0.1-0.4,0.2-0.6c0.2-0.4,0.6-0.6,0.9-0.7
					c1-0.3,2.3,0,3.6,0.7C16,27.7,17.1,29.4,16.5,30.5L16.5,30.5z M16.5,30.5"/>
			</g>
			<g>
				<path class="st0" d="M21,25.4c-2.2,1.1-3.4,3.1-2.7,4.6c0.2,0.5,0.6,0.9,1.1,1.1l0.1,0.1c0.6,1.4,1.6,2.6,2.7,3.3
					c0.3,0.2,0.5,0.3,0.8,0.4c0.7,0.3,1.4,0.4,2.1,0.2c0.2,0.4,0.6,0.6,1,0.4c0.3-0.1,0.5-0.6,0.3-1c1.7-1.2,2.2-4.1,1-6.8l0-0.1
					c0.2-0.6,0.1-1.1-0.1-1.6c-0.2-0.6-0.7-1-1.4-1.3c-1.1-0.4-2.6-0.4-4,0.2c-0.3-0.4-0.4-1-0.3-1.5c0-0.3-0.1-0.5-0.4-0.6
					c-0.3,0-0.5,0.1-0.6,0.4C20.4,24,20.6,24.8,21,25.4L21,25.4z M20.3,30.7C20.3,30.7,20.3,30.7,20.3,30.7c0.7-0.7,1.7-1.4,2.8-1.8
					c1.1-0.5,2.3-0.8,3.3-0.8c0,0,0,0,0,0.1c1.1,2.5,0.6,5.2-1.1,5.9c-0.8,0.3-1.7,0.2-2.7-0.4C21.7,33,20.8,32,20.3,30.7L20.3,30.7
					z M19.1,29.6c-0.5-1.1,0.8-2.7,2.8-3.6c1.3-0.6,2.7-0.7,3.6-0.3c0.3,0.1,0.7,0.3,0.9,0.8c0.1,0.2,0.1,0.4,0.1,0.6
					c-1.2,0.1-2.5,0.4-3.8,0.9c-1.3,0.5-2.4,1.3-3.3,2.1C19.3,29.9,19.2,29.8,19.1,29.6L19.1,29.6z M19.1,29.6"/>
			</g>
		</g>
	</g>
	<g>
		<path class="st1" d="M47.8,8.8c-0.5-0.3-1-0.5-1.5-0.8c-0.4-0.2-0.9-0.4-1.4-0.5c-0.5-0.2-1-0.2-1.6-0.2c-0.4,0-0.7,0.1-1,0.2
			C42.1,7.6,42,7.8,42,8.1c0,0.2,0.1,0.4,0.2,0.5s0.3,0.3,0.6,0.4c0.3,0.1,0.6,0.2,1,0.3c0.4,0.1,0.8,0.2,1.3,0.4
			c0.8,0.2,1.5,0.5,2.1,0.8c0.6,0.3,1.2,0.6,1.6,1c0.4,0.4,0.8,0.9,1,1.4c0.2,0.6,0.4,1.2,0.4,2c0,1-0.2,1.9-0.6,2.6
			c-0.4,0.7-0.9,1.2-1.5,1.6c-0.6,0.4-1.3,0.7-2.1,0.9c-0.8,0.2-1.5,0.3-2.3,0.3c-0.6,0-1.3,0-1.9-0.1c-0.6-0.1-1.3-0.2-1.9-0.4
			c-0.6-0.2-1.3-0.4-1.9-0.6s-1.1-0.5-1.6-0.8l2-4.1c0.6,0.3,1.1,0.7,1.7,0.9c0.5,0.2,1.1,0.5,1.7,0.6c0.6,0.2,1.3,0.3,2,0.3
			c0.5,0,0.9-0.1,1.1-0.2c0.2-0.1,0.3-0.3,0.3-0.5c0-0.2-0.1-0.4-0.3-0.6s-0.5-0.3-0.8-0.4c-0.3-0.1-0.7-0.3-1.2-0.4
			c-0.5-0.1-0.9-0.3-1.4-0.5c-0.7-0.3-1.4-0.5-1.9-0.8c-0.5-0.3-1-0.6-1.3-1c-0.3-0.4-0.6-0.8-0.8-1.3s-0.2-1-0.2-1.6
			c0-0.9,0.2-1.8,0.5-2.5c0.3-0.7,0.8-1.3,1.4-1.8c0.6-0.5,1.3-0.8,2-1.1c0.8-0.2,1.5-0.4,2.4-0.4c0.6,0,1.2,0.1,1.8,0.2
			c0.6,0.1,1.2,0.3,1.7,0.5c0.5,0.2,1.1,0.4,1.5,0.6C49,4.6,49.5,4.8,49.8,5L47.8,8.8z"/>
		<path class="st1" d="M55.2,3.3l3,7.3l3.1-7.3h5l-5.8,11.3v5.6h-4.6v-5.6L50.2,3.3H55.2z"/>
		<path class="st1" d="M77,8.8c-0.5-0.3-1-0.5-1.5-0.8c-0.4-0.2-0.9-0.4-1.4-0.5c-0.5-0.2-1-0.2-1.6-0.2c-0.4,0-0.7,0.1-1,0.2
			c-0.2,0.1-0.4,0.3-0.4,0.6c0,0.2,0.1,0.4,0.2,0.5s0.3,0.3,0.6,0.4c0.3,0.1,0.6,0.2,1,0.3c0.4,0.1,0.8,0.2,1.3,0.4
			c0.8,0.2,1.5,0.5,2.1,0.8c0.6,0.3,1.2,0.6,1.6,1c0.4,0.4,0.8,0.9,1,1.4c0.2,0.6,0.4,1.2,0.4,2c0,1-0.2,1.9-0.6,2.6
			c-0.4,0.7-0.9,1.2-1.5,1.6c-0.6,0.4-1.3,0.7-2.1,0.9c-0.8,0.2-1.5,0.3-2.3,0.3c-0.6,0-1.3,0-1.9-0.1c-0.6-0.1-1.3-0.2-1.9-0.4
			c-0.6-0.2-1.3-0.4-1.9-0.6s-1.1-0.5-1.6-0.8l2-4.1c0.6,0.3,1.1,0.7,1.7,0.9c0.5,0.2,1.1,0.5,1.7,0.6c0.6,0.2,1.3,0.3,2,0.3
			c0.5,0,0.9-0.1,1.1-0.2c0.2-0.1,0.3-0.3,0.3-0.5c0-0.2-0.1-0.4-0.3-0.6s-0.5-0.3-0.8-0.4c-0.3-0.1-0.7-0.3-1.2-0.4
			c-0.5-0.1-0.9-0.3-1.4-0.5c-0.7-0.3-1.4-0.5-1.9-0.8c-0.5-0.3-1-0.6-1.3-1c-0.3-0.4-0.6-0.8-0.8-1.3s-0.2-1-0.2-1.6
			c0-0.9,0.2-1.8,0.5-2.5c0.3-0.7,0.8-1.3,1.4-1.8c0.6-0.5,1.3-0.8,2-1.1c0.8-0.2,1.5-0.4,2.4-0.4c0.6,0,1.2,0.1,1.8,0.2
			c0.6,0.1,1.2,0.3,1.7,0.5c0.5,0.2,1.1,0.4,1.5,0.6C78.2,4.6,78.6,4.8,79,5L77,8.8z"/>
		<path class="st1" d="M94.6,7.4h-4.8v12.8h-4.6V7.4h-4.9v-4h14.3V7.4z"/>
		<path class="st1" d="M108.3,16.1v4h-12V3.3H108v4h-7.2v2.4h6.1v3.8h-6.1v2.7H108.3z"/>
		<path class="st1" d="M123.2,20.2v-8.9l-2.8,6.2h-2.5l-2.8-6.2v8.9h-4.6V3.3h5.1l3.6,7.9l3.7-7.9h5v16.9H123.2z"/>
		<path class="st1" d="M140.9,8.8c-0.5-0.3-1-0.5-1.5-0.8c-0.4-0.2-0.9-0.4-1.4-0.5c-0.5-0.2-1-0.2-1.6-0.2c-0.4,0-0.7,0.1-1,0.2
			c-0.2,0.1-0.4,0.3-0.4,0.6c0,0.2,0.1,0.4,0.2,0.5s0.3,0.3,0.6,0.4s0.6,0.2,1,0.3c0.4,0.1,0.8,0.2,1.3,0.4c0.8,0.2,1.5,0.5,2.1,0.8
			s1.2,0.6,1.6,1c0.4,0.4,0.8,0.9,1,1.4c0.2,0.6,0.4,1.2,0.4,2c0,1-0.2,1.9-0.6,2.6c-0.4,0.7-0.9,1.2-1.5,1.6
			c-0.6,0.4-1.3,0.7-2.1,0.9c-0.8,0.2-1.5,0.3-2.3,0.3c-0.6,0-1.3,0-1.9-0.1c-0.6-0.1-1.3-0.2-1.9-0.4c-0.6-0.2-1.3-0.4-1.9-0.6
			c-0.6-0.2-1.1-0.5-1.6-0.8l2-4.1c0.6,0.3,1.1,0.7,1.7,0.9c0.5,0.2,1.1,0.5,1.7,0.6c0.6,0.2,1.3,0.3,2,0.3c0.5,0,0.9-0.1,1.1-0.2
			c0.2-0.1,0.3-0.3,0.3-0.5c0-0.2-0.1-0.4-0.3-0.6s-0.5-0.3-0.8-0.4c-0.3-0.1-0.7-0.3-1.2-0.4c-0.5-0.1-0.9-0.3-1.4-0.5
			c-0.7-0.3-1.4-0.5-1.9-0.8c-0.5-0.3-1-0.6-1.3-1c-0.3-0.4-0.6-0.8-0.8-1.3s-0.2-1-0.2-1.6c0-0.9,0.2-1.8,0.5-2.5
			c0.3-0.7,0.8-1.3,1.4-1.8c0.6-0.5,1.3-0.8,2-1.1c0.8-0.2,1.5-0.4,2.4-0.4c0.6,0,1.2,0.1,1.8,0.2c0.6,0.1,1.2,0.3,1.7,0.5
			c0.5,0.2,1.1,0.4,1.5,0.6c0.5,0.2,0.9,0.4,1.3,0.6L140.9,8.8z"/>
		<path class="st1" d="M37.6,36.3V24.7h1.1v10.6h6.7v1H37.6z"/>
		<path class="st1" d="M50.7,24.7h1l4.8,11.6h-1.2l-1.5-3.6h-5.2l-1.5,3.6h-1.2L50.7,24.7z M53.5,31.7L51.2,26l-2.4,5.7H53.5z"/>
		<path class="st1" d="M66.8,33.3c0,0.4-0.1,0.8-0.3,1.2s-0.4,0.7-0.7,0.9c-0.3,0.3-0.6,0.5-1,0.6s-0.8,0.2-1.3,0.2h-5.5V24.7h5.6
			c0.4,0,0.8,0.1,1.1,0.3c0.3,0.2,0.6,0.4,0.8,0.7s0.4,0.6,0.5,0.9c0.1,0.4,0.2,0.7,0.2,1.1c0,0.6-0.1,1.1-0.4,1.6
			c-0.3,0.5-0.7,0.8-1.2,1.1c0.7,0.2,1.2,0.6,1.6,1.1C66.6,31.9,66.8,32.6,66.8,33.3z M59.3,25.7v4.3h4c0.3,0,0.5-0.1,0.8-0.2
			c0.2-0.1,0.5-0.3,0.6-0.5s0.3-0.4,0.4-0.7c0.1-0.3,0.1-0.5,0.1-0.8c0-0.3,0-0.6-0.1-0.8c-0.1-0.3-0.2-0.5-0.4-0.7
			c-0.2-0.2-0.4-0.3-0.6-0.5c-0.2-0.1-0.5-0.2-0.7-0.2H59.3z M65.7,33.1c0-0.3,0-0.6-0.1-0.8s-0.2-0.5-0.4-0.7
			c-0.2-0.2-0.4-0.4-0.6-0.5c-0.2-0.1-0.5-0.2-0.8-0.2h-4.4v4.4h4.3c0.3,0,0.6-0.1,0.8-0.2c0.3-0.1,0.5-0.3,0.7-0.5
			c0.2-0.2,0.3-0.4,0.4-0.7C65.6,33.6,65.7,33.4,65.7,33.1z"/>
		<path class="st1" d="M73.6,36.3c-0.8,0-1.5-0.2-2.2-0.5c-0.7-0.3-1.2-0.8-1.7-1.3c-0.5-0.5-0.8-1.2-1.1-1.9
			c-0.3-0.7-0.4-1.4-0.4-2.2c0-0.8,0.1-1.5,0.4-2.2c0.3-0.7,0.7-1.3,1.1-1.9c0.5-0.5,1.1-1,1.7-1.3c0.7-0.3,1.4-0.5,2.1-0.5
			c0.8,0,1.5,0.2,2.2,0.5c0.7,0.3,1.2,0.8,1.7,1.3s0.8,1.2,1.1,1.9c0.3,0.7,0.4,1.4,0.4,2.1c0,0.8-0.1,1.5-0.4,2.2
			c-0.3,0.7-0.7,1.3-1.1,1.9c-0.5,0.5-1.1,1-1.7,1.3S74.4,36.3,73.6,36.3z M69.4,30.5c0,0.6,0.1,1.2,0.3,1.8
			c0.2,0.6,0.5,1.1,0.9,1.5c0.4,0.5,0.8,0.8,1.4,1.1c0.5,0.3,1.1,0.4,1.7,0.4c0.7,0,1.2-0.1,1.8-0.4c0.5-0.3,1-0.7,1.4-1.1
			c0.4-0.5,0.7-1,0.9-1.5c0.2-0.6,0.3-1.2,0.3-1.8c0-0.6-0.1-1.2-0.3-1.8c-0.2-0.6-0.5-1.1-0.9-1.5c-0.4-0.4-0.8-0.8-1.4-1.1
			c-0.5-0.3-1.1-0.4-1.7-0.4c-0.7,0-1.2,0.1-1.8,0.4c-0.5,0.3-1,0.6-1.4,1.1s-0.7,1-0.9,1.5S69.4,29.9,69.4,30.5z"/>
		<path class="st1" d="M81.2,36.3V24.7h4.9c0.5,0,1,0.1,1.4,0.3c0.4,0.2,0.8,0.5,1.1,0.8c0.3,0.3,0.5,0.7,0.7,1.2
			c0.2,0.4,0.3,0.9,0.3,1.3c0,0.4-0.1,0.8-0.2,1.2c-0.1,0.4-0.3,0.7-0.5,1c-0.2,0.3-0.5,0.6-0.8,0.8s-0.7,0.4-1.1,0.4l2.8,4.5h-1.3
			L85.8,32h-3.4v4.3H81.2z M82.4,31h3.8c0.3,0,0.6-0.1,0.9-0.2s0.5-0.3,0.7-0.6c0.2-0.3,0.3-0.5,0.5-0.8c0.1-0.3,0.2-0.6,0.2-1
			c0-0.3-0.1-0.7-0.2-1s-0.3-0.6-0.5-0.8c-0.2-0.2-0.5-0.4-0.7-0.6s-0.6-0.2-0.9-0.2h-3.7V31z"/>
		<path class="st1" d="M95.3,24.7h1l4.8,11.6h-1.2l-1.5-3.6h-5.2l-1.5,3.6h-1.2L95.3,24.7z M98.1,31.7L95.7,26l-2.4,5.7H98.1z"/>
		<path class="st1" d="M109.7,25.7h-4.1v10.6h-1.1V25.7h-4.1v-1h9.4V25.7z"/>
		<path class="st1" d="M115.6,36.3c-0.8,0-1.5-0.2-2.2-0.5c-0.7-0.3-1.2-0.8-1.7-1.3c-0.5-0.5-0.8-1.2-1.1-1.9
			c-0.3-0.7-0.4-1.4-0.4-2.2c0-0.8,0.1-1.5,0.4-2.2c0.3-0.7,0.7-1.3,1.1-1.9c0.5-0.5,1.1-1,1.7-1.3s1.4-0.5,2.2-0.5
			c0.8,0,1.5,0.2,2.2,0.5c0.7,0.3,1.2,0.8,1.7,1.3s0.8,1.2,1.1,1.9c0.3,0.7,0.4,1.4,0.4,2.1c0,0.8-0.1,1.5-0.4,2.2
			c-0.3,0.7-0.7,1.3-1.1,1.9c-0.5,0.5-1.1,1-1.7,1.3S116.4,36.3,115.6,36.3z M111.3,30.5c0,0.6,0.1,1.2,0.3,1.8
			c0.2,0.6,0.5,1.1,0.9,1.5c0.4,0.5,0.8,0.8,1.4,1.1c0.5,0.3,1.1,0.4,1.7,0.4c0.7,0,1.2-0.1,1.8-0.4c0.5-0.3,1-0.7,1.4-1.1
			c0.4-0.5,0.7-1,0.9-1.5s0.3-1.2,0.3-1.8c0-0.6-0.1-1.2-0.3-1.8c-0.2-0.6-0.5-1.1-0.9-1.5c-0.4-0.4-0.8-0.8-1.4-1.1
			c-0.5-0.3-1.1-0.4-1.7-0.4c-0.7,0-1.2,0.1-1.8,0.4c-0.5,0.3-1,0.6-1.4,1.1s-0.7,1-0.9,1.5C111.4,29.3,111.3,29.9,111.3,30.5z"/>
		<path class="st1" d="M123.2,36.3V24.7h4.9c0.5,0,1,0.1,1.4,0.3c0.4,0.2,0.8,0.5,1.1,0.8c0.3,0.3,0.5,0.7,0.7,1.2
			c0.2,0.4,0.3,0.9,0.3,1.3c0,0.4-0.1,0.8-0.2,1.2c-0.1,0.4-0.3,0.7-0.5,1c-0.2,0.3-0.5,0.6-0.8,0.8c-0.3,0.2-0.7,0.4-1.1,0.4
			l2.8,4.5h-1.3l-2.7-4.3h-3.4v4.3H123.2z M124.3,31h3.8c0.3,0,0.6-0.1,0.9-0.2c0.3-0.1,0.5-0.3,0.7-0.6c0.2-0.3,0.3-0.5,0.5-0.8
			c0.1-0.3,0.2-0.6,0.2-1c0-0.3-0.1-0.7-0.2-1s-0.3-0.6-0.5-0.8c-0.2-0.2-0.5-0.4-0.8-0.6c-0.3-0.1-0.6-0.2-0.9-0.2h-3.7V31z"/>
		<path class="st1" d="M133.5,24.7l3.8,6.2l3.8-6.2h1.2l-4.5,7.3v4.3h-1.1v-4.3l-4.5-7.2H133.5z"/>
	</g>
</g>
</svg>
