<?xml version="1.0" encoding="utf-8"?>
<!-- Generator: Adobe Illustrator 19.2.1, SVG Export Plug-In . SVG Version: 6.00 Build 0)  -->
<svg version="1.1" id="Layer_1" xmlns="http://www.w3.org/2000/svg" xmlns:xlink="http://www.w3.org/1999/xlink" x="0px" y="0px"
	 viewBox="0 0 365.6 102.5" style="enable-background:new 0 0 365.6 102.5;" xml:space="preserve">
<style type="text/css">
	.st0{fill-rule:evenodd;clip-rule:evenodd;fill:#FFFFFF;}
	.st1{fill:#FFFFFF;}
</style>
<g>
	<ellipse transform="matrix(0.784 -0.6207 0.6207 0.784 47.3504 212.171)" class="st0" cx="328.6" cy="38" rx="0" ry="0"/>
	<path class="st0" d="M273.9,37.8c0.4,0.4,0.4,0.4,0.6-0.1c0.2-0.4,0.4-0.9,0.6-1.3c-1-0.1-2-0.1-3-0.3
		C272.8,36.6,273.3,37.2,273.9,37.8z"/>
	<path class="st0" d="M271.1,51.3c0-0.1,0-0.2-0.1-0.1c-0.9,0.3-1.8,0.6-2.8,0.9c1,0.3,1.9,0.7,2.8,1.1
		C271.1,52.5,271.1,51.9,271.1,51.3z"/>
	<path class="st0" d="M273,69.4c-0.1-0.2-0.2-0.4-0.3-0.6c-0.3-0.3-0.7-0.4-1.1-0.2c-0.4,0.1-0.6,0.5-0.6,0.9c0,0.1,0,0.3,0.1,0.4
		c0.2,0.6,0.5,1.2,0.7,1.9c0,0.1,0.1,0.1,0.2,0.1c0.5-0.2,1-0.4,1.5-0.6c0.1,0,0.2-0.1,0.1-0.2C273.4,70.4,273.2,69.9,273,69.4z"/>
	<path class="st0" d="M321.1,93.9c0-0.4-0.3-0.8-0.7-0.8c-0.4,0-0.7,0.3-0.7,0.7c0,0.4,0.3,0.7,0.7,0.7
		C320.8,94.5,321.1,94.3,321.1,93.9z"/>
	<path class="st0" d="M310.1,93.8c-0.4,0-0.7,0.3-0.7,0.7c0,0.4,0.3,0.7,0.7,0.7c0.4,0,0.7-0.3,0.7-0.7
		C310.8,94,310.5,93.8,310.1,93.8z"/>
	<path class="st0" d="M321.1,95.5c-0.3-0.1-0.6,0-0.8,0.3c-0.2,0.3-0.2,0.7-0.1,1c0.1,0.4,0.5,0.6,0.9,0.5c0.4-0.1,0.7-0.4,0.7-0.9
		c0-0.1,0-0.1,0-0.2C321.7,96,321.4,95.6,321.1,95.5z"/>
	<path class="st0" d="M310,96.2c-0.4-0.1-0.7,0.1-0.9,0.5c-0.1,0.2-0.1,0.4-0.1,0.6c0,0.3,0.3,0.7,0.6,0.7c0.3,0.1,0.6-0.1,0.8-0.4
		c0.1-0.2,0.1-0.3,0.1-0.5C310.7,96.7,310.4,96.3,310,96.2z"/>
	<path class="st0" d="M352.3,72.9c-0.4-0.2-0.9-0.4-1.3-0.7c-0.1-0.1-0.2,0-0.3,0.1c-0.2,0.4-0.4,0.9-0.7,1.3
		c-0.1,0.2-0.2,0.5-0.2,0.7c-0.1,0.5,0.3,1,1,1c0.3,0,0.6-0.2,0.7-0.5c0.3-0.5,0.6-1.1,0.9-1.7C352.5,73,352.4,72.9,352.3,72.9z"/>
	<path class="st0" d="M354.7,49.7c0.1,0.5,0.1,1,0.2,1.5c0,0.1,0.1,0.2,0.1,0.3c0.2,0.3,0.5,0.5,0.8,0.4c0.4-0.1,0.7-0.3,0.7-0.7
		c0-0.1,0-0.3,0-0.4c0,0,0,0,0,0c0-0.5-0.1-0.9-0.1-1.4c0-0.1-0.1-0.1-0.2-0.1c-0.5,0-0.9,0.1-1.4,0.1
		C354.7,49.5,354.7,49.5,354.7,49.7z"/>
	<path class="st0" d="M352.3,35.6c0-0.2,0-0.4-0.1-0.5c-0.2-0.5-0.5-0.9-0.7-1.4c-0.1-0.1-0.1-0.1-0.2,0c-0.5,0.3-1,0.5-1.5,0.8
		c-0.7,0.4-1.3,0.7-2,1.1c-0.1,0-0.2,0.1-0.1,0.2c0.3,0.5,0.5,1,0.8,1.4c0.4,0.5,0.8,0.7,1.4,0.6c0.7-0.1,1.3-0.4,1.8-0.9
		C352,36.4,352.3,36,352.3,35.6z"/>
	<path class="st0" d="M354,49.7c0-0.1-0.1-0.1-0.2-0.1c-0.5,0.1-1.1,0.1-1.6,0.1c-0.1,0-0.1,0-0.1,0.1c0.1,0.6,0,1.3,0.2,1.9
		c0.1,0.5,0.5,0.7,1,0.6c0.4-0.1,0.7-0.4,0.8-0.8c0-0.1,0-0.3,0-0.4c0,0,0,0,0,0C354.1,50.6,354,50.2,354,49.7z"/>
	<path class="st0" d="M360.8,50.9c-0.5-7.1-2.5-13.8-5.9-20c-0.9-1.6-1.9-3.2-3-4.7c0,0,0-0.1,0-0.1c-0.1-0.1-0.2-0.3-0.3-0.4
		c-0.1,0-0.1,0-0.1-0.1c0,0,0,0,0,0c-0.1,0-0.1-0.1-0.1-0.2c-0.1-0.1-0.2-0.2-0.2-0.3c-0.1,0-0.1,0-0.1-0.1
		c-0.1-0.1-0.1-0.2-0.2-0.2c-0.1,0-0.1-0.1-0.1-0.2c0-0.1-0.1-0.1-0.1-0.2c-0.1,0-0.1,0-0.1-0.1c0,0-0.1-0.1-0.1-0.1
		c-0.1,0-0.1,0-0.1-0.1c0,0-0.1-0.1-0.1-0.1c-0.1,0-0.1,0-0.1-0.1c-0.1-0.1-0.1-0.1-0.2-0.2c-0.1,0-0.1,0-0.1-0.1c0,0,0-0.1-0.1-0.1
		c-0.1,0-0.2-0.1-0.2-0.2c0,0,0-0.1-0.1-0.1c-0.1-0.1-0.2-0.1-0.2-0.3c0,0-0.1-0.1-0.1-0.1c-0.1-0.1-0.3-0.2-0.3-0.3
		c-0.1-0.1-0.1-0.1-0.2-0.2c-0.1,0-0.1-0.1-0.1-0.2c-0.1-0.1-0.2-0.2-0.3-0.4c-0.1,0-0.2-0.1-0.2-0.2c-0.1-0.1-0.2-0.2-0.3-0.3
		c-0.1,0-0.1-0.1-0.1-0.1c0,0-0.1-0.1-0.1-0.1c-0.2-0.1-0.3-0.2-0.4-0.4l0,0c-0.3-0.2-0.5-0.4-0.7-0.7c-0.3-0.3-0.6-0.6-0.9-0.8
		c-0.1,0-0.1,0-0.1-0.1v0c-0.1,0-0.1-0.1-0.2-0.1c-0.1-0.1-0.1-0.1-0.2-0.2c-0.1,0-0.2-0.1-0.3-0.2c-0.1-0.1-0.1-0.1-0.2-0.2
		c-0.2,0-0.3-0.2-0.3-0.3c0,0-0.1-0.1-0.1-0.1c-0.1,0-0.1-0.1-0.2-0.1c-0.1-0.1-0.1-0.1-0.2-0.2c-0.1,0-0.1-0.1-0.2-0.1
		c0,0-0.1,0-0.1-0.1c-0.1,0-0.2-0.1-0.2-0.2c0,0-0.1-0.1-0.1-0.1c-0.1,0-0.1-0.1-0.2-0.1c-0.1-0.1-0.2-0.2-0.4-0.3
		c-0.1,0-0.1,0-0.1-0.1c0,0-0.1,0-0.1-0.1c-0.1,0-0.1,0-0.1-0.1c0,0-0.1,0-0.1-0.1c-0.1,0-0.2-0.1-0.2-0.2c-0.1,0-0.1-0.1-0.2-0.1
		c-0.1,0-0.1-0.1-0.2-0.1c0,0,0,0,0,0c-0.1,0-0.1,0-0.1-0.1c0,0-0.1-0.1-0.1-0.1c-0.1,0-0.1,0-0.1-0.1c0,0-0.1,0-0.1-0.1
		c-0.1,0-0.1,0-0.1-0.1c0,0,0,0,0,0c-0.1,0-0.1,0-0.1-0.1c0,0,0,0,0,0c-0.1,0-0.1-0.1-0.2-0.1c0,0,0,0,0,0c-0.1,0-0.1,0-0.1-0.1
		c0,0,0,0,0,0c-0.1,0-0.1,0-0.1-0.1c-0.1-0.1-0.2-0.1-0.2-0.2c-0.1,0-0.1,0-0.1-0.1c0,0,0,0,0,0c-0.1,0-0.2-0.1-0.3-0.2c0,0,0,0,0,0
		c-0.1,0-0.1,0-0.1-0.1c0,0,0,0,0,0c-0.1,0-0.1,0-0.1-0.1c0,0,0,0,0,0c-0.1,0-0.1,0-0.1-0.1c0,0,0,0,0,0c-0.1,0-0.1,0-0.1-0.1
		c0,0-0.1,0-0.1-0.1c-0.1,0-0.2,0-0.2-0.1c0,0-0.1-0.1-0.1-0.1c-0.2-0.1-0.4-0.2-0.5-0.3c0,0,0,0,0,0c-0.1,0-0.1,0-0.1-0.1
		c-0.1-0.1-0.2-0.1-0.3-0.2c-0.1,0-0.2,0-0.2-0.1c0,0-0.1-0.1-0.1-0.1c-0.1,0-0.1,0-0.1-0.1c-0.1-0.1-0.2-0.1-0.3-0.2
		c-0.1,0-0.1,0-0.1-0.1c0,0,0,0,0,0c-0.1,0-0.1,0-0.1-0.1c0,0-0.1,0-0.1-0.1c-0.2-0.1-0.4-0.1-0.5-0.3c0,0,0,0,0,0
		c-0.2-0.1-0.5-0.2-0.6-0.3c0,0-0.1,0-0.1-0.1c-0.1,0-0.1,0-0.1-0.1c-0.1,0-0.2-0.1-0.3-0.1c-0.2,0-0.4-0.1-0.5-0.3
		c-0.1,0-0.2-0.1-0.3-0.1c-0.1,0-0.2,0-0.3-0.1c0,0-0.1,0-0.1,0c-0.1,0-0.2,0-0.2-0.1c0,0-0.1,0-0.1,0c-0.1,0-0.1,0-0.1-0.1
		c-0.1,0-0.2-0.1-0.2-0.1c-0.1,0-0.1,0-0.1-0.1c0,0-0.1,0-0.1,0c-0.1,0-0.1,0-0.1-0.1c0,0-0.1,0-0.1,0c-0.1,0-0.3-0.1-0.3-0.2
		c0,0-0.1,0-0.1,0c-0.1,0-0.2,0-0.2-0.1c0,0-0.1,0-0.1,0c-0.1,0-0.1,0-0.2-0.1c-0.1,0-0.2-0.1-0.3-0.1c-0.1,0-0.3,0-0.4-0.2
		c0,0-0.1,0-0.1,0c-0.2,0-0.5-0.1-0.7-0.3c0,0-0.1,0-0.1,0c-0.2-0.1-0.5-0.1-0.7-0.3c-0.1,0-0.1,0-0.2-0.1c-0.2,0-0.4-0.1-0.5-0.2
		c-0.1,0-0.2-0.1-0.4-0.1c-0.1,0-0.1,0-0.2-0.1c-0.1,0-0.1,0-0.2,0c-0.1,0-0.2,0-0.2-0.1c0,0-0.1,0-0.1,0c-0.6-0.1-1.1-0.3-1.7-0.5
		c0,0-0.1,0-0.1,0c-0.1,0-0.1,0-0.1-0.1c0,0-0.1,0-0.1,0c0,0-0.1,0-0.1,0c0,0-0.1,0-0.1,0c-0.2,0-0.5-0.1-0.7-0.2c0,0-0.1,0-0.1,0
		c-0.1,0-0.1,0-0.2-0.1c-0.1,0-0.2,0-0.3,0c-0.1,0-0.2,0-0.3-0.1c0,0-0.1,0-0.1,0c-0.1,0-0.3,0-0.4-0.1c0,0-0.1,0-0.1,0
		c-0.1,0-0.2,0-0.2-0.1c0,0-0.1,0-0.1,0c0,0-0.1,0-0.1,0c0,0-0.1,0-0.1,0c-0.1,0-0.3,0-0.4-0.1c0,0-0.1,0-0.1,0
		c-0.1,0-0.3,0-0.4-0.1c-0.1,0-0.1,0-0.2,0c-0.2,0-0.3,0-0.4-0.1c-0.1,0-0.1,0-0.2,0c-0.2,0-0.3,0-0.4-0.1c-0.1,0-0.1,0-0.2,0
		c-0.2,0-0.4,0-0.6-0.1c0,0-0.1,0-0.1,0c-0.2,0-0.4,0-0.6-0.1c-0.1,0-0.2,0-0.2,0c-0.1,0-0.2,0.1-0.3,0c0,0-0.1,0-0.1,0
		c-0.1,0-0.2,0-0.3,0c-0.1,0-0.2,0-0.3,0c-0.1,0-0.2,0.1-0.3,0c-0.1,0-0.1,0-0.2,0c-0.1,0-0.3,0.1-0.4,0c-0.1,0-0.2,0-0.3,0
		c-0.4,0-0.7,0-1.1-0.1c-1.5,0-3,0-4.4,0c-0.4,0.1-0.8,0.1-1.2,0.1c-0.1,0-0.1,0-0.2,0c-0.3,0.1-0.6,0.1-1,0.1c-0.1,0-0.2,0-0.3,0
		c-0.1,0.1-0.2,0.1-0.3,0c0,0-0.1,0-0.1,0c-0.1,0.1-0.2,0.1-0.3,0c-0.1,0-0.2,0-0.3,0c-0.2,0.1-0.4,0.1-0.6,0.1c-0.1,0-0.1,0-0.2,0
		c-0.1,0.1-0.1,0.1-0.2,0c0,0-0.1,0-0.1,0c-0.1,0.1-0.2,0.1-0.3,0c0,0-0.1,0-0.1,0c-0.2,0.1-0.3,0.1-0.5,0.1c0,0-0.1,0-0.1,0
		c0,0.1-0.1,0.1-0.2,0c0,0-0.1,0-0.1,0c0,0.1-0.1,0.1-0.2,0.1c-0.1,0-0.1,0-0.2,0c-0.1,0.1-0.2,0.1-0.4,0.1c0,0-0.1,0-0.1,0
		c-0.1,0.1-0.3,0.1-0.4,0.1c0,0-0.1,0-0.1,0C303,7,302.8,7.1,302.7,7c0,0-0.1,0-0.1,0c-0.1,0.1-0.2,0.1-0.4,0.1c0,0-0.1,0-0.1,0
		c-0.1,0.1-0.2,0.1-0.3,0.1c0,0-0.1,0-0.1,0c-0.1,0.1-0.2,0.1-0.4,0.1c0,0-0.1,0-0.1,0c-0.1,0.1-0.2,0.1-0.3,0.1c0,0-0.1,0-0.1,0
		c-0.2,0.1-0.5,0.2-0.7,0.2c0,0-0.1,0-0.1,0c-0.2,0.1-0.4,0.2-0.6,0.2c0,0-0.1,0-0.1,0c-0.3,0.1-0.6,0.2-1,0.3c0,0-0.1,0-0.1,0
		c-0.4,0.2-0.8,0.3-1.2,0.4c-0.1,0-0.2,0.1-0.3,0.1c0,0-0.1,0-0.1,0c-0.1,0.1-0.3,0.2-0.5,0.2c-0.1,0-0.1,0-0.2,0
		c-0.1,0.1-0.2,0.2-0.4,0.2c0,0-0.1,0-0.1,0c-0.1,0.1-0.1,0.1-0.2,0.1c0,0-0.1,0-0.1,0c-0.1,0.1-0.2,0.1-0.4,0.2c0,0-0.1,0-0.1,0
		c-0.1,0.1-0.2,0.1-0.4,0.2c0,0-0.1,0-0.1,0c-0.2,0.2-0.4,0.2-0.6,0.3c-0.1,0-0.2,0.1-0.2,0.1c-0.1,0.1-0.2,0.1-0.4,0.2
		c-0.1,0-0.2,0.1-0.3,0.1c-0.1,0.1-0.1,0.1-0.2,0.1c0,0-0.1,0-0.1,0c-0.1,0.1-0.2,0.1-0.3,0.1c-0.1,0-0.2,0.1-0.3,0.1
		c-0.2,0.1-0.4,0.3-0.7,0.3c0,0-0.1,0-0.1,0c-0.1,0.1-0.1,0.1-0.2,0.1c-0.1,0-0.2,0.1-0.3,0.1c-0.1,0.1-0.1,0.1-0.2,0.1c0,0,0,0,0,0
		c0,0.1-0.1,0.1-0.1,0.1c0,0-0.1,0-0.1,0c0,0.1-0.1,0.1-0.2,0.1c0,0-0.1,0-0.1,0.1c0,0.1-0.1,0.1-0.2,0.1c-0.1,0.1-0.2,0.1-0.3,0.2
		c0,0.1-0.1,0.1-0.2,0.1c0,0,0,0,0,0c-0.1,0.1-0.1,0.1-0.2,0.1c0,0-0.1,0.1-0.1,0.1c-0.1,0.1-0.1,0.1-0.2,0.1c0,0,0,0,0,0
		c0,0.1-0.1,0.1-0.2,0.1c-0.1,0.1-0.2,0.1-0.3,0.2c0,0.1-0.1,0.1-0.1,0.1c0,0,0,0,0,0c0,0.1-0.1,0.1-0.2,0.1c-0.1,0-0.2,0.1-0.2,0.1
		c0,0.1-0.1,0.1-0.2,0.1c0,0,0,0,0,0c-0.1,0.1-0.2,0.2-0.3,0.2c0,0,0,0,0,0c-0.2,0.2-0.4,0.3-0.6,0.4c0,0,0,0,0,0
		c0,0.1-0.1,0.1-0.1,0.1c-0.1,0-0.1,0.1-0.2,0.1c0,0.1-0.1,0.1-0.1,0.1c0,0,0,0,0,0c0,0.1-0.1,0.1-0.1,0.1c-0.1,0.1-0.3,0.2-0.4,0.3
		c0,0.1-0.1,0.1-0.1,0.1c0,0,0,0,0,0c0,0.1-0.1,0.1-0.1,0.1c0,0-0.1,0-0.1,0.1c0,0.1,0,0.1-0.1,0.1c0,0-0.1,0-0.1,0.1
		c0,0.1-0.1,0.1-0.1,0.1c0,0,0,0,0,0c0,0.1-0.1,0.1-0.2,0.1c0,0-0.1,0-0.1,0.1c0,0.1-0.1,0.1-0.1,0.1c0,0,0,0,0,0
		c0,0.1-0.1,0.1-0.2,0.1c-0.1,0-0.1,0.1-0.2,0.1c0,0.1-0.1,0.2-0.2,0.2c0,0-0.1,0.1-0.1,0.1c0,0.1-0.1,0.1-0.1,0.1
		c-0.1,0.1-0.2,0.2-0.4,0.3c0,0.1-0.1,0.2-0.2,0.2c0,0-0.1,0.1-0.1,0.1c0,0.1-0.1,0.1-0.2,0.1c0,0-0.1,0.1-0.1,0.1
		c0,0.1,0,0.1-0.1,0.1c-0.1,0.1-0.1,0.1-0.2,0.2c0,0.1-0.1,0.1-0.2,0.1c0,0-0.1,0.1-0.1,0.1c0,0.1-0.1,0.2-0.2,0.2
		c0,0-0.1,0.1-0.1,0.1c-0.2,0.3-0.6,0.6-0.9,0.8c-0.2,0.2-0.4,0.4-0.6,0.5c0,0.1-0.1,0.1-0.2,0.2l0,0c-0.3,0.4-0.7,0.7-1,1
		c-0.2,0.2-0.5,0.5-0.7,0.7c-0.2,0.3-0.5,0.6-0.8,0.8c-0.1,0.1-0.2,0.3-0.4,0.4c0,0.1,0,0.1-0.1,0.1c0,0,0,0,0,0
		c0,0.1-0.1,0.2-0.2,0.3c0,0,0,0.1-0.1,0.1c0,0.1-0.1,0.1-0.1,0.2c-0.1,0.1-0.1,0.1-0.2,0.2c0,0.1-0.1,0.1-0.1,0.2
		c0,0,0,0.1-0.1,0.1c0,0.1-0.1,0.2-0.2,0.2c0,0,0,0,0,0c0,0.1,0,0.1-0.1,0.1c0,0-0.1,0.1-0.1,0.1c0,0.1-0.1,0.1-0.1,0.2
		c0,0,0,0.1-0.1,0.1c0,0.1-0.1,0.1-0.1,0.2c0,0,0,0.1-0.1,0.1c0,0.1,0,0.1-0.1,0.1c-0.2,0.3-0.4,0.6-0.6,0.9c0,0.1,0,0.1-0.1,0.1
		c0,0.1-0.1,0.1-0.1,0.2c0,0.1,0,0.1,0,0.2l0,0l0,0c0,0,0.1,0,0.1,0.1c1.2,0.9,2.5,1.8,3.7,2.7c2,1.4,3.9,2.8,5.9,4.2
		c0.4-0.4,0.6-0.8,1-1.2c1-1.2,2-2.4,3.2-3.5c1.2-1.2,2.5-2.3,3.9-3.3c1.5-1.1,3.2-2.1,4.9-3c1.6-0.8,3.3-1.5,5-2.1
		c1.3-0.5,2.7-0.8,4-1.1c1.2-0.3,2.4-0.4,3.7-0.6c2-0.2,3.9-0.2,5.9-0.2c0.9,0,1.9,0.1,2.8,0.3c0.7,0.1,1.5,0.2,2.2,0.4
		c0.8,0.2,1.6,0.3,2.3,0.5c0.8,0.2,1.5,0.4,2.3,0.7c1.4,0.5,2.8,1,4.1,1.7c2.8,1.4,5.5,3.1,7.9,5.1c2.2,1.9,4.1,4,5.8,6.3
		c0,0,0.1,0.1,0.1,0.1c0,0,0,0,0,0c0.3,0.6,0.7,1.1,1.1,1.7c1.3,2,2.4,4.2,3.2,6.4c0.7,1.8,1.2,3.7,1.6,5.6c0.4,1.8,0.6,3.6,0.7,5.4
		c0.1,2,0,4-0.2,6c-0.1,1.3-0.4,2.6-0.6,3.9c0,0.1-0.1,0.2-0.1,0.2c0,0.1,0,0.1,0,0.2c-1.3,0-2.5,0-3.8,0c-1.5,0-3,0-4.6,0
		c-0.2,0-0.3,0-0.3-0.2c0-0.4,0-0.8,0-1.2c0-0.2,0-0.3,0.2-0.3c0.3,0,0.6,0,0.9,0c0.1,0,0.2,0,0.2-0.2c0-0.4,0-0.8,0-1.2
		c0-0.2-0.1-0.2-0.2-0.2c-0.3,0-0.5,0-0.8,0c-0.2,0-0.3,0-0.3-0.3c0-1.3,0-2.5,0-3.8c0-1.9,0-3.7,0-5.6c0-0.2,0-0.4,0.3-0.3
		c0.3,0,0.5,0,0.8,0c0.2,0,0.2-0.1,0.2-0.2c0-0.4,0-0.8,0-1.1c0-0.2-0.1-0.2-0.2-0.2c-0.7,0-1.4,0-2.1,0c-0.2,0-0.3-0.1-0.3-0.3
		c0-1,0-2,0-3c0-0.2,0.1-0.3,0.3-0.3c0.6,0,1.3,0,1.9,0c0.2,0,0.3-0.1,0.3-0.3c0-0.3,0-0.6,0-0.9c0-0.4,0-0.4,0.4-0.4
		c0.2,0,0.3-0.1,0.2-0.3c0-0.6,0-1.3,0-1.9c0-0.2-0.1-0.3-0.3-0.3c-1.8,0-3.7,0-5.5,0c-0.2,0-0.3-0.1-0.5-0.2
		c-0.5-0.5-1-1.1-1.6-1.6c-2.4-2.2-5.1-3.9-8.1-5c-2.5-0.9-5-1.5-7.7-1.7c-0.5,0-0.8-0.2-1.1-0.6c-1-1.5-2.9-2-4.4-1.2
		c-0.7,0.4-1.2,0.9-1.6,1.5c-0.1,0.1-0.2,0.2-0.3,0.2c-0.6,0.1-1.2,0.1-1.8,0.2c-2.1,0.3-4.2,0.8-6.2,1.6c-3.8,1.4-7,3.6-9.7,6.6
		c-0.1,0.2-0.3,0.2-0.5,0.2c-2.2,0-4.4,0-6.6,0c-0.2,0-0.3,0-0.3,0.2c0,0.7,0,1.3,0,2c0,0.2,0.1,0.3,0.2,0.2c0.1,0,0.1,0,0.2,0
		c0.2,0,0.3,0.1,0.2,0.2c0,0.4,0,0.7,0,1.1c0,0.2,0.1,0.3,0.3,0.3c0.6,0,1.2,0,1.9,0c0.2,0,0.3,0.1,0.3,0.3c0,1,0,1.9,0,2.9
		c0,0.3-0.1,0.3-0.3,0.3c-0.8,0-1.5,0-2.3,0c-0.2,0-0.3,0.1-0.3,0.3c0,0.2,0,0.4,0,0.6c0,0.7,0,0.7,0.7,0.7c0.3,0,0.3,0.1,0.3,0.3
		c0,1.8,0,3.6,0,5.4c0,1.3,0,2.6,0,3.9c0,0.2-0.1,0.3-0.3,0.3c-0.2,0-0.3,0-0.5,0c-0.1,0-0.2,0-0.2,0.2c0,0.4,0,0.8,0,1.2
		c0,0.1,0,0.2,0.2,0.2c0.2,0,0.4,0,0.5,0c0.2,0,0.3,0.1,0.3,0.3c0,0.7,0,1.5,0,2.2c0,0.8,0,1.7,0,2.5c0,0.2,0,0.2-0.2,0.2
		c-0.1,0-0.3,0-0.4,0c-0.3,0-0.3,0.1-0.3,0.3c0,0.2,0,0.3,0,0.5c0,0.2-0.1,0.5,0,0.7c0.1,0.2,0.5,0,0.7,0.1c0,0,0,0,0,0
		c0.2,0,0.2,0.1,0.2,0.2c0,0.4,0,0.8,0,1.1c0,0.2-0.1,0.6,0,0.7c0.2,0.2,0.5,0.1,0.7,0.1c0.2,0,0.3,0.1,0.3,0.3c0,2.2,0,4.3,0,6.5
		c0,0.2,0,0.3-0.3,0.3c-0.9,0-1.8,0-2.6,0c0,0-0.1-0.1-0.1-0.1c-0.1-0.1-0.2-0.2-0.2-0.3c-0.1,0-0.2-0.1-0.2-0.2
		c-1.3-1.7-2.5-3.6-3.5-5.5c-1.4-2.8-2.4-5.6-3.1-8.7c-0.3-1.2-0.5-2.4-0.6-3.6c-0.2-1.6-0.3-3.3-0.2-4.9c0-1.3,0.1-2.6,0.3-4
		c0.3-2.6,0.9-5.1,1.8-7.6c1.1-3.1,2.6-5.9,4.5-8.6c0.1-0.1,0.1-0.2,0.2-0.3c-2-1.4-3.9-2.8-5.9-4.2c-1.2-0.9-2.5-1.8-3.7-2.7
		c0,0-0.1,0-0.1-0.1l0,0l0,0c0,0-0.1,0-0.1,0c-1.7,2.3-3.1,4.8-4.3,7.4c-2,4.1-3.3,8.5-4,13c-0.3,2.1-0.5,4.2-0.6,6.3
		c0,0.9,0,1.8,0,2.7c0,1,0.1,2,0.2,3c0.2,2.1,0.5,4.2,1,6.3c1.3,5.6,3.5,10.8,6.6,15.6c2.6,3.9,5.6,7.4,9.2,10.5
		c2.8,2.4,5.8,4.4,9.1,6.1c0.3,0.2,0.6,0.3,0.9,0.5c1.3,0.6,2.6,1.2,3.9,1.7c1.2,0.5,2.5,0.9,3.8,1.3c1.1,0.3,2.3,0.6,3.5,0.9
		c1.7,0.4,3.4,0.6,5.1,0.8c1.1,0.1,2.2,0.2,3.2,0.2c1.7,0,3.4,0,5.2-0.1c0.8-0.1,1.6-0.1,2.5-0.2c1.1-0.1,2.2-0.3,3.3-0.5
		c1.9-0.4,3.7-0.8,5.5-1.4c2.4-0.8,4.7-1.7,7-2.8c0.8-0.4,1.6-0.9,2.4-1.3c4.4-2.5,8.3-5.6,11.7-9.4c4-4.4,7.1-9.3,9.2-14.8
		c1.9-4.7,2.9-9.7,3.3-14.7c0-0.1,0-0.2,0.1-0.2c0-1.6,0-3.3,0-4.9C360.8,51.6,360.8,51.3,360.8,50.9z M286.2,22.4
		c-0.2,0.5-0.6,0.8-1,1.1c-0.2,0.1-0.5,0.3-0.5,0.5c0,0.2,0.3,0.4,0.4,0.5c0.3,0.3,0.5,0.7,0.8,1c0.1,0.1,0.1,0.2,0,0.3
		c-0.4,0.3-0.7,0.6-1.1,0.9c-0.1,0.1-0.2,0.1-0.3,0c-1.1-1.3-2.2-2.7-3.3-4c-0.3-0.4-0.3-0.4,0.1-0.7c0.7-0.6,1.3-1.1,2-1.7
		c0.4-0.3,0.8-0.5,1.3-0.5C285.5,19.7,286.8,21.2,286.2,22.4z M292.5,20.8c-0.7,0.7-1.6,1.2-2.5,1.3c-0.8,0-1.3-0.3-1.8-0.7
		c-0.6-0.5-1-1.2-1.2-1.9c-0.3-0.9-0.1-1.7,0.6-2.4c0.6-0.6,1.2-1,2-1.2c1-0.2,1.8,0,2.5,0.7c0.5,0.5,0.8,1.1,1,1.7
		C293.4,19.2,293.2,20.1,292.5,20.8z M299.1,17.6c-1,0.4-2,0.9-3,1.3c-0.3,0.1-0.6,0.2-0.9,0.4c-0.2,0.1-0.2,0.1-0.3-0.1
		c-0.7-1.6-1.4-3.1-2.1-4.7c-0.2-0.5-0.2-0.5,0.3-0.8c0.3-0.1,0.6-0.3,0.9-0.4c0.2-0.1,0.2-0.1,0.3,0.1c0.5,1.2,1.1,2.4,1.6,3.6
		c0.1,0.2,0.2,0.3,0.4,0.2c0.7-0.3,1.4-0.6,2.1-1c0.2-0.1,0.3-0.1,0.3,0.1c0.1,0.3,0.3,0.6,0.4,0.9c0,0,0,0.1,0.1,0.2
		C299.3,17.5,299.2,17.5,299.1,17.6z M301.7,16.8c-0.4,0.1-0.8,0.2-1.3,0.3c-0.2,0.1-0.3,0-0.4-0.2c-0.4-1.6-0.9-3.3-1.3-4.9
		c-0.1-0.5-0.1-0.5,0.4-0.6c0.4-0.1,0.8-0.2,1.1-0.3c0.2,0,0.2,0.1,0.2,0.2c0.2,0.8,0.5,1.7,0.7,2.5c0.2,0.9,0.5,1.8,0.7,2.7
		C301.9,16.7,301.9,16.8,301.7,16.8z M307.3,11c-0.5,0.1-0.9,0.2-1.4,0.2c-0.2,0-0.3,0.1-0.2,0.3c0.2,1.3,0.5,2.6,0.7,3.9
		c0,0.2,0,0.2-0.2,0.2c-0.5,0.1-1,0.2-1.4,0.3c-0.2,0-0.2-0.1-0.2-0.2c-0.2-0.9-0.3-1.9-0.5-2.8c-0.1-0.4-0.1-0.8-0.2-1.2
		c0-0.1-0.1-0.2-0.2-0.2c-0.5,0.1-0.9,0.2-1.4,0.3c-0.2,0-0.3,0-0.3-0.2c-0.1-0.4-0.1-0.7-0.2-1.1c-0.1-0.2,0.1-0.2,0.2-0.2
		c0.9-0.2,1.8-0.3,2.7-0.5c0.8-0.1,1.5-0.3,2.3-0.4c0.3-0.1,0.3,0,0.4,0.3c0,0.3,0.1,0.6,0.2,1C307.5,11,307.5,11,307.3,11z
		 M314,15.2c-1.5,0-3.1,0.1-4.6,0.1c-0.2,0-0.2-0.1-0.2-0.2c0-0.9,0-1.8,0-2.7c0,0-0.1,0-0.1,0c0-0.9,0-1.8,0-2.8
		c0-0.2,0.1-0.2,0.2-0.2c1.5,0,3,0,4.5-0.1c0.2,0,0.2,0,0.2,0.2c0,0.3,0,0.6,0,0.8c0,0.2,0,0.2-0.2,0.2c-0.9,0-1.7,0-2.6,0
		c-0.2,0-0.3,0-0.3,0.3c0,0.2-0.1,0.5,0.1,0.7c0.1,0.1,0.4,0,0.7,0c0.6,0,1.3,0,1.9,0c0.2,0,0.2,0.1,0.2,0.2c0,0.3,0,0.5,0,0.8
		c0,0.2,0,0.2-0.2,0.2c-0.8,0-1.6,0-2.4,0c-0.2,0-0.3,0.1-0.3,0.3c0,0.2,0,0.4,0,0.7c0,0.2,0,0.2,0.2,0.2c0.9,0,1.8,0,2.7-0.1
		c0.2,0,0.3,0,0.3,0.2c0,0.3,0,0.6,0,0.9C314.1,15.2,314.1,15.2,314,15.2z M321.5,10.2c-0.1,0.9-0.2,1.8-0.3,2.7
		c-0.1,0.9-0.2,1.8-0.3,2.8c0,0.2-0.1,0.3-0.3,0.2c-0.5-0.1-0.9-0.1-1.4-0.2c-0.2,0-0.2-0.1-0.2-0.2c0.1-0.6,0.1-1.3,0.2-1.9
		c0-0.2,0-0.3-0.2-0.3c-0.5,0-1-0.1-1.5-0.2c-0.2-0.1-0.2,0-0.3,0.2c-0.1,0.6-0.2,1.3-0.2,1.9c0,0.2-0.1,0.2-0.2,0.2
		c-0.5-0.1-1-0.1-1.4-0.2c-0.1,0-0.2-0.1-0.2-0.2c0.2-1.3,0.3-2.6,0.5-3.9c0.1-0.5,0.1-1,0.2-1.6c0-0.2,0.1-0.3,0.3-0.2
		c0.5,0.1,0.9,0.1,1.4,0.2c0.2,0,0.2,0.1,0.2,0.2c-0.1,0.5-0.1,1-0.2,1.6c0,0.2,0,0.3,0.2,0.3c0.5,0,1,0.1,1.5,0.2
		c0.2,0,0.3,0,0.3-0.2c0-0.6,0.1-1.1,0.2-1.7c0-0.1,0.1-0.2,0.2-0.1c0.5,0.1,1,0.1,1.5,0.2C321.4,10,321.5,10.1,321.5,10.2z
		 M327.4,17.8c0,0.1-0.1,0.2-0.2,0.1c-0.4-0.1-0.8-0.3-1.3-0.4c-0.2,0-0.2-0.1-0.3-0.3c-0.3-1.2-0.7-2.3-1-3.5
		c-0.1,0-0.1,0.2-0.1,0.2c-0.3,0.9-0.6,1.7-0.8,2.6c0,0.1-0.1,0.2-0.2,0.1c-0.4-0.1-0.9-0.3-1.3-0.4c-0.2,0-0.2-0.1-0.1-0.3
		c0.6-1.7,1.1-3.5,1.7-5.2c0.1-0.2,0.1-0.2,0.3-0.2c0.4,0.1,0.8,0.3,1.2,0.4c0.2,0,0.2,0.1,0.3,0.3c0.3,1.1,0.6,2.2,1,3.4
		c0,0,0,0.1,0.1,0.1c0.2-0.6,0.4-1.1,0.5-1.7c0.1-0.4,0.3-0.7,0.4-1.1c0.1-0.2,0.1-0.2,0.3-0.2c0.4,0.1,0.8,0.3,1.2,0.4
		c0.1,0,0.2,0.1,0.1,0.3C328.5,14.3,327.9,16,327.4,17.8z M330,19.2c-0.4-0.2-0.9-0.4-1.3-0.6c-0.1-0.1-0.2-0.1-0.1-0.2
		c0.8-1.7,1.5-3.4,2.3-5.1c0-0.1,0.1-0.2,0.2-0.1c0.5,0.2,0.9,0.4,1.4,0.6c0.1,0,0.1,0,0.1,0.1c0,0.1,0,0.1-0.1,0.1
		c-0.7,1.7-1.5,3.4-2.2,5C330.2,19.3,330.2,19.3,330,19.2z M334.2,21.8c-0.4-0.2-0.8-0.5-1.2-0.8c-0.8-0.7-1-1.6-0.8-2.6
		c0.2-0.9,0.7-1.7,1.5-2.2c0.6-0.5,1.4-0.6,2.1-0.4c0.7,0.2,1.3,0.6,1.8,1.1c0.4,0.4,0.7,1,0.7,1.5c0,0.9,0,0.9-0.7,0.7
		c-0.3-0.1-0.5-0.2-0.8-0.3c-0.1,0-0.2-0.1-0.1-0.2c0.1-0.6-0.2-1-0.7-1.2c-0.4-0.2-0.9-0.1-1.3,0.3c-0.4,0.4-0.6,0.8-0.8,1.4
		c-0.2,0.5,0,0.8,0.3,1.1c0.4,0.4,0.9,0.4,1.3,0.1c0,0,0.1,0,0.1-0.1c0.2-0.1,0.2-0.3,0.4-0.3c0.1,0.1,0.2,0.2,0.4,0.4
		c0.2,0.2,0.4,0.5,0.6,0.7c0.1,0.1,0.1,0.2,0,0.3C336.2,22.1,335.2,22.3,334.2,21.8z M343.2,21.4c-0.7,1.9-1.3,3.8-2,5.7
		c0,0,0,0.1-0.1,0.1c-0.5-0.4-0.9-0.8-1.4-1.1c-0.1-0.1-0.1-0.1,0-0.2c0.1-0.2,0.2-0.4,0.3-0.6c0.1-0.1,0-0.2-0.1-0.3
		c-0.5-0.4-0.9-0.7-1.3-1.1c-0.1-0.1-0.2-0.1-0.3,0c0,0,0,0,0,0c-0.2,0.1-0.5,0.4-0.7,0.4c-0.2,0-0.4-0.3-0.6-0.5
		c-0.2-0.2-0.4-0.3-0.6-0.5c-0.1-0.1-0.2-0.2,0-0.3c0.8-0.4,1.5-0.9,2.3-1.3c0.9-0.5,1.9-1.1,2.8-1.6c0.1-0.1,0.2-0.1,0.4,0
		c0.4,0.4,0.8,0.7,1.2,1C343.2,21.2,343.3,21.3,343.2,21.4z M286.1,60.5c-0.5,0-0.5,0-0.5-0.5c0,0,0,0,0-0.1c0-0.4,0.2-0.5,0.6-0.4
		c0.1,0,0.1,0.1,0.1,0.2c0,0.2,0,0.4,0,0.6C286.2,60.4,286.2,60.5,286.1,60.5z M286.2,66.9c0,0.4,0,0.3-0.4,0.4
		c-0.2,0-0.3,0-0.3-0.3c0-0.2,0-0.3,0-0.5c0-0.1,0-0.2,0.2-0.2c0.1,0,0.2,0,0.2,0c0.3,0,0.3,0.1,0.3,0.5
		C286.2,66.9,286.2,66.9,286.2,66.9z M357,48.7c0.1,0.7,0.1,1.5,0.2,2.2c0,0.3,0,0.6-0.1,0.8c-0.4,1-1.6,1.1-2.3,0.3
		c0,0-0.1-0.1-0.1-0.1c-0.4,1.4-2,1.4-2.6,0.7c-0.4-0.4-0.4-0.9-0.5-1.4c-0.1-0.7-0.1-1.3-0.2-2c0-0.2,0-0.3,0.2-0.3
		c1.1-0.1,2.2-0.2,3.3-0.3c0.6-0.1,1.3-0.1,1.9-0.2C356.9,48.6,357,48.6,357,48.7z M355.2,40.5c0.1,0.4,0.1,0.6-0.2,0.9
		c-1,1.1-1.9,2.2-2.9,3.4c0,0-0.1,0.1-0.1,0.2c0,0,0,0-0.1,0.1c0,0,0.1,0,0.1,0c0.7-0.1,1.4-0.4,2.1-0.6c0.6-0.2,1.2-0.3,1.8-0.5
		c0.1,0,0.2,0,0.2,0.1c0.2,0.5,0.2,0.5-0.3,0.6c-1.6,0.5-3.1,0.9-4.7,1.4c-0.2,0.1-0.2,0-0.3-0.1c-0.1-0.4-0.1-0.6,0.2-0.9
		c1-1.1,1.9-2.2,2.8-3.3c0.1-0.1,0.1-0.2,0.2-0.3c-0.4,0.1-0.7,0.2-1.1,0.3c-0.9,0.3-1.9,0.5-2.8,0.8c-0.2,0-0.2,0-0.3-0.1
		c-0.1-0.5-0.1-0.5,0.3-0.6c1.6-0.5,3.1-0.9,4.7-1.4C355,40.3,355.1,40.4,355.2,40.5z M354.4,38.3c0,0.1,0.1,0.2,0.1,0.3
		c0,0.1-0.1,0.1-0.2,0.1c-1,0.4-2,0.8-3,1.2c-0.6,0.2-1.2,0.5-1.8,0.7c-0.1,0.1-0.2,0-0.3-0.1c-0.2-0.5-0.2-0.5,0.3-0.7
		c1.5-0.6,3-1.2,4.5-1.8C354.2,38,354.3,38.1,354.4,38.3z M347.8,37.3c-0.4-0.7-0.7-1.3-1.1-2c-0.1-0.2,0-0.2,0.1-0.3
		c1.2-0.6,2.3-1.2,3.5-1.8c0.4-0.2,0.7-0.4,1.1-0.6c0.2-0.1,0.2-0.1,0.3,0.1c0.3,0.6,0.6,1.2,1,1.8c0.6,1.2,0.4,2.1-0.7,2.9
		c-0.7,0.5-1.5,0.9-2.1,0.9C348.8,38.4,348.2,38,347.8,37.3z M344.9,62.7c1,0,2,0,3,0c-0.1,0.7-0.3,1.5-0.6,2.2
		c-0.1,0.5-0.3,1-0.5,1.5c-0.5,1.5-1.1,2.9-1.9,4.3c0,0.1-0.1,0.1-0.1,0.2c0,0.1-0.1,0.2-0.1,0.3c0-0.3,0-0.6,0-0.9
		c0-2.4,0-4.8,0-7.3C344.6,62.8,344.7,62.7,344.9,62.7z M287.6,70c0-0.2,0-0.3,0.3-0.3c16.6,0,33.3,0,49.9,0c0.2,0,0.3,0.1,0.3,0.3
		c0,2.2,0,4.4,0,6.6c0,0.2-0.1,0.3-0.3,0.3c-8.3,0-16.7,0-25,0c-8.3,0-16.6,0-24.9,0c-0.3,0-0.3-0.1-0.3-0.3
		C287.6,74.4,287.6,72.2,287.6,70z M338.2,53.1c0,0.2-0.1,0.3-0.3,0.3c-0.6,0-0.6,0-0.6-0.6c0-0.5,0-0.9,0-1.4c0-0.6,0-1.2,0-1.8
		c0-0.1,0-0.2,0.2-0.2c0.7,0,0.7,0,0.7,0.7C338.2,51,338.2,52,338.2,53.1z M338.1,65.9c0,0.1,0,0.2-0.2,0.2c-0.6,0-0.6,0-0.6-0.6
		c0-1.5,0-2.9,0-4.4c0-0.2,0.1-0.2,0.2-0.2c0.6,0,0.6,0,0.6,0.6c0,0.1,0,0.1,0,0.2c0,0.2,0,0.3,0,0.5c0,0,0,0,0,0.1
		C337.9,63.4,338.1,64.6,338.1,65.9z M338,59.2c-0.7,0-0.7,0-0.7-0.7c0-0.5,0-1.1,0-1.6c0-0.2,0-0.2,0.2-0.2c0.7,0,0.7,0,0.7,0.7
		c0,0.2,0,0.4,0,0.6c0,0.4,0,0.7,0,1.1C338.2,59.2,338.2,59.2,338,59.2z M338.2,59.9c0,0.5,0,0.5-0.5,0.5c-0.4,0-0.4,0-0.4-0.5
		c0-0.5,0-0.5,0.5-0.5C338.2,59.5,338.2,59.5,338.2,59.9z M337.3,55.9c0-0.5,0-0.5,0.4-0.5c0.5,0,0.5,0,0.5,0.5c0,0.5,0,0.5-0.5,0.5
		C337.3,56.4,337.3,56.4,337.3,55.9z M338.1,55.1c-0.1,0-0.2,0-0.3,0c-0.1,0-0.2,0-0.3,0c-0.1,0-0.1,0-0.1-0.1c0-0.1,0-0.1,0.1-0.1
		c0.2,0,0.4,0,0.7,0c0.1,0,0.1,0,0.1,0.1C338.2,55.1,338.2,55.1,338.1,55.1z M337.3,54.3c0-0.1,0-0.1,0-0.2c0-0.5,0-0.5,0.5-0.5
		c0,0,0.1,0,0.1,0c0.3,0,0.3,0,0.3,0.3c0,0.6,0,0.6-0.6,0.6C337.4,54.6,337.3,54.5,337.3,54.3z M337.3,67c0,0,0-0.1,0-0.1
		c0-0.5,0-0.5,0.5-0.5c0.2,0,0.3,0,0.2,0.2c0,0.1,0,0.2,0,0.2c0,0.5,0,0.5-0.5,0.5C337.4,67.3,337.3,67.2,337.3,67z M337.7,67.6
		c0.3,0,0.3,0,0.3,0.4c0,0.4,0.1,0.3-0.4,0.3c-0.4,0-0.4,0-0.4-0.4C337.3,67.6,337.3,67.6,337.7,67.6z M341.3,76.4
		c0,0.1-0.1,0.2-0.2,0.3c0,0-0.1,0.1-0.1,0.1c-0.8,0-1.6,0-2.3,0c-0.2,0-0.3-0.1-0.3-0.3c0-2.5,0-5,0-7.5c0-0.2,0.1-0.3,0.3-0.2
		c1.8,0,3.7,0,5.5,0c0.2,0,0.2,0.1,0.2,0.2c0,0.9,0,1.8,0,2.7c-0.1,0.1-0.1,0.2-0.2,0.3c-0.1,0.2-0.2,0.4-0.3,0.6
		C343.1,74,342.3,75.2,341.3,76.4z M344.1,62.8c0.2,0,0.2,0,0.2,0.2c0,1.8,0,3.5,0,5.3c0,0.2-0.1,0.2-0.2,0.2c-0.9,0-1.8,0-2.8,0
		c-0.9,0-1.8,0-2.7,0c-0.2,0-0.2,0-0.2-0.2c0-1.8,0-3.5,0-5.3c0-0.2,0.1-0.2,0.2-0.2C340.5,62.8,342.3,62.8,344.1,62.8z M339,62.5
		c-0.1,0-0.3,0-0.4,0c-0.1,0,0-0.2,0-0.2c0-2.1,0-4.2,0-6.4c0-2.1,0-4.2,0-6.4c0-0.1-0.1-0.2,0.1-0.2c0.2,0,0.3,0,0.5,0
		c0,0,0,0.1,0,0.1c0,0.1,0,0.1,0,0.2c0,4.2,0,8.4,0,12.6C339.1,62.3,339.1,62.4,339,62.5z M339.9,59.5c0.5,0,0.5,0,0.5,0.5
		c0,0.5,0,0.5-0.5,0.5c-0.5,0-0.5,0-0.5-0.5C339.4,59.5,339.4,59.5,339.9,59.5z M313.5,31.8c0.1-0.1,0.2-0.1,0.3,0
		c1.5,1.2,2.9,2.4,3.9,4c0.1,0.2,0.3,0.5,0.4,0.7c0.1,0.2,0.1,0.2-0.1,0.2c-1.9-0.1-3.8-0.2-5.7-0.1c-1,0-2,0.1-3.1,0.1
		c0.4-0.8,0.8-1.4,1.4-2.1C311.4,33.6,312.4,32.7,313.5,31.8z M312.8,31.9C312.8,31.9,312.8,31.9,312.8,31.9
		C312.8,31.9,312.8,32,312.8,31.9C312.8,32,312.8,32,312.8,31.9C312.8,32,312.8,31.9,312.8,31.9z M328.6,38.1
		C328.6,38.1,328.6,38.1,328.6,38.1C328.6,38.1,328.6,38.1,328.6,38.1L328.6,38.1C328.6,38,328.6,38,328.6,38.1
		c-0.3,0-0.5-0.1-0.7-0.1c-1.5-0.3-2.9-0.5-4.4-0.7c-0.1,0-0.2,0-0.2-0.1c-1.1-1.7-2.8-2.9-4.6-3.8c-0.6-0.3-1.3-0.6-2-0.9
		c0.3,0,0.6,0.1,0.9,0.2c2.8,0.8,5.5,1.8,8,3.3c0.7,0.4,1.4,0.9,2.1,1.5C328,37.5,328.3,37.8,328.6,38.1
		C328.6,38,328.6,38,328.6,38.1L328.6,38.1C328.6,38,328.6,38,328.6,38.1C328.6,38.1,328.6,38.1,328.6,38.1z M317.7,33.1
		c0.6,0.3,1.2,0.6,1.7,0.9c1.1,0.6,2.1,1.4,3,2.4c0.2,0.2,0.3,0.4,0.5,0.6c0,0,0,0.1,0.1,0.1c-0.7-0.1-1.3-0.1-1.9-0.2
		c-0.7-0.1-1.5-0.1-2.2-0.2c-0.2,0-0.3-0.1-0.3-0.3c-0.3-0.7-0.8-1.4-1.3-2c-0.8-0.9-1.6-1.7-2.6-2.5c0,0,0,0-0.1-0.1
		c0,0,0.1,0,0.1,0C315.7,32.3,316.7,32.7,317.7,33.1z M312.6,32.1c-1.3,1.1-2.5,2.3-3.4,3.8c-0.1,0.1-0.1,0.2-0.2,0.3
		c-0.1,0.4-0.3,0.5-0.7,0.5c-1.2,0-2.5,0.2-3.7,0.3c-0.1,0-0.1,0-0.2,0c0.6-0.9,1.3-1.5,2.1-2.1c1.8-1.4,3.9-2.2,6.1-3
		c0,0,0.1,0,0.1,0C312.7,32.1,312.6,32.1,312.6,32.1z M310.2,32.6c-1.7,0.7-3.3,1.6-4.7,2.8c-0.5,0.5-1,1-1.4,1.6
		c-0.1,0.1-0.2,0.2-0.3,0.2c-1.6,0.2-3.2,0.5-4.8,0.8c-0.1,0-0.1,0-0.2,0c3.4-3.1,7.5-4.6,11.8-5.7
		C310.4,32.5,310.3,32.5,310.2,32.6z M302.8,40c0,0,0.1,0,0.1,0.1c-3.3,0-6.6,0-9.9,0c0.8-0.3,1.6-0.6,2.4-0.8
		c0.8-0.3,1.7-0.5,2.6-0.7c0.1,0,0.3-0.1,0.4,0C299.9,39.1,301.4,39.5,302.8,40z M301.7,39.3c-0.8-0.3-1.7-0.6-2.5-0.8
		c-0.1,0-0.1-0.1-0.2-0.1c0.6-0.1,1.1-0.2,1.7-0.3c1.1-0.2,2.2-0.4,3.3-0.5c0.1,0,0.2,0,0.3,0c0.7,0.4,1.4,0.8,2.2,1.2
		c0.7,0.4,1.4,0.8,2,1.2c0,0,0,0,0,0.1c-0.5,0-1,0-1.5,0c-0.2,0-0.3,0-0.5,0C304.9,40.2,303.2,39.9,301.7,39.3z M304.9,37.5
		c0,0-0.1,0-0.2-0.1c1.4-0.2,2.7-0.3,4.1-0.4c0.1,0,0.2,0,0.3,0.1c0.9,1,1.8,1.9,2.7,2.9c-0.1,0.1-0.1,0-0.2,0c-0.7,0-1.5,0-2.2,0
		c-0.1,0-0.2,0-0.3-0.1C307.7,39.1,306.3,38.3,304.9,37.5z M309.4,37c2.8-0.2,5.6-0.2,8.5,0c-0.6,0.6-1.1,1.2-1.7,1.8
		c-0.3,0.4-0.7,0.7-1,1.1c-0.1,0.1-0.2,0.2-0.3,0.2c-0.8,0-1.6,0-2.4,0c-0.1,0-0.2,0-0.3-0.1C311.3,39,310.4,38,309.4,37z
		 M318.2,37.1c0.1-0.1,0.1-0.1,0.2-0.1c1.3,0.1,2.7,0.2,4,0.4c0,0,0,0,0.1,0c-0.7,0.4-1.4,0.8-2.2,1.3c-0.7,0.4-1.3,0.8-2,1.2
		c-0.1,0.1-0.3,0.1-0.4,0.1c-0.7,0-1.4,0-2.2,0c-0.1,0-0.2,0-0.2,0C316.4,39.1,317.3,38.1,318.2,37.1z M321,38.7
		c0.6-0.4,1.3-0.7,1.9-1.1c0.2-0.1,0.3-0.1,0.5-0.1c1.6,0.2,3.2,0.5,4.8,0.8c0.1,0,0.1,0,0.2,0.1c-1.7,0.6-3.4,1.1-5.1,1.7
		c-0.1,0-0.1,0-0.2,0c-1.4,0-2.8,0-4.3,0c0,0,0,0,0-0.1C319.5,39.6,320.2,39.1,321,38.7z M324.6,40c1.4-0.4,2.7-0.9,4-1.3
		c0.2-0.1,0.5-0.1,0.7,0c1.6,0.4,3.2,0.9,4.8,1.4c0,0,0.1,0,0.2,0.1c-3.4,0-6.6,0-9.9,0C324.5,40,324.5,40,324.6,40z M316.8,31.8
		c2.4,0.2,4.8,0.6,7.1,1.4c3.9,1.3,7.3,3.4,10.1,6.4c0,0,0.1,0.1,0.1,0.2c-1.5-0.5-3-1-4.6-1.3c-0.3-0.1-0.5-0.2-0.8-0.4
		c-2.1-1.9-4.5-3.3-7.1-4.3c-1.9-0.8-3.9-1.4-6-1.8c0,0,0,0-0.1,0C316.1,31.7,316.5,31.7,316.8,31.8z M316.4,31.4
		c-0.5,0-0.9,0-1.4,0c-0.1,0-0.1,0-0.2-0.1c-0.2-0.6-0.5-1.1-0.9-1.5C314.7,29.6,316,30.5,316.4,31.4z M313.9,30.2
		c0.3,0.4,0.5,0.7,0.7,1.2c-0.1,0-0.2,0-0.3,0c-0.2,0-0.1-0.1,0-0.1c0,0,0,0,0,0c-0.3,0.1-0.7,0.2-1,0c-0.1,0-0.2,0-0.1,0.1
		c0,0.1-0.1,0.1-0.1,0.1c-0.1,0-0.2,0-0.4,0c0.1-0.5,0.4-0.8,0.6-1.2C313.6,29.8,313.6,29.8,313.9,30.2z M313.3,29.7
		c-0.2,0.2-0.3,0.4-0.4,0.6c-0.2,0.3-0.4,0.6-0.5,1c0,0.1,0,0.1-0.1,0.2c-0.5,0-0.9,0.1-1.4,0C311.4,30.5,312.2,29.8,313.3,29.7z
		 M311.5,31.7c-0.8,0.2-1.6,0.4-2.3,0.6c-2.8,0.8-5.5,1.8-8,3.4c-1.1,0.7-2,1.4-2.9,2.3c-0.1,0.1-0.3,0.2-0.5,0.3
		c-1.5,0.4-3,0.8-4.5,1.3c-0.1,0-0.1,0.1-0.2,0C298.1,34.4,304.4,32.1,311.5,31.7z M285.5,42.2c-0.1,0-0.2,0-0.2-0.2
		c0-0.5,0-1,0-1.5c0-0.1,0-0.2,0.2-0.2c0.1,0,0.1,0,0.2,0c9.1,0,18.3,0,27.4,0c9.1,0,18.3,0,27.4,0c0.2,0,0.3,0,0.3,0.3
		c0,0.5,0,0.9,0,1.4c0,0.2,0,0.2-0.2,0.2c-0.4,0-0.9,0-1.3,0c-17.7,0-35.4,0-53.1,0C286,42.2,285.8,42.2,285.5,42.2z M286.3,43.8
		c-0.2,0-0.3-0.1-0.2-0.3c0-0.3,0-0.6,0-0.8c0-0.2,0.1-0.2,0.2-0.2c0.2,0,0.3,0,0.5,0c8.8,0,17.6,0,26.3,0c8.9,0,17.8,0,26.7,0
		c0.4,0,0.4,0,0.4,0.4c0,0.2,0,0.4,0,0.6c0,0.2,0,0.3-0.3,0.3c-0.7,0-1.4,0-2.1,0c-16.5,0-32.9,0-49.4,0
		C287.7,43.8,287,43.8,286.3,43.8z M288.5,44.3c0-0.2,0.1-0.2,0.2-0.2c0.5,0,0.5,0,0.5,0.5c0,0.5,0,1,0,1.6c0,0.2,0,0.2,0.2,0.2
		c0.9,0,1.8,0,2.6,0c0.2,0,0.2,0,0.2-0.2c0-0.6,0-1.3,0-1.9c0-0.2,0-0.2,0.2-0.2c0.5,0,0.5,0,0.5,0.5c0,0.5,0,1.1,0,1.6
		c0,0.2,0,0.2,0.2,0.2c0.9,0,1.7,0,2.6,0c0.2,0,0.2,0,0.2-0.2c0-0.6,0-1.3,0-1.9c0-0.2,0.1-0.2,0.2-0.2c0.5,0,0.5,0,0.5,0.5
		c0,0.6,0,1.1,0,1.7c0,0.2,0,0.2,0.2,0.2c0.9,0,1.8,0,2.6,0c0.2,0,0.2-0.1,0.2-0.2c0-0.6,0-1.2,0-1.9c0-0.2,0.1-0.2,0.2-0.2
		c0.4,0,0.4,0,0.4,0.4c0,0.6,0,1.1,0,1.7c0,0.2,0,0.2,0.2,0.2c0.9,0,1.7,0,2.6,0c0.2,0,0.2-0.1,0.2-0.2c0-0.6,0-1.2,0-1.9
		c0-0.2,0-0.2,0.2-0.2c0.4,0,0.4,0,0.4,0.4c0,0.6,0,1.1,0,1.7c0,0.2,0,0.2,0.2,0.2c0.9,0,1.8,0,2.6,0c0.2,0,0.2-0.1,0.2-0.2
		c0-0.6,0-1.3,0-1.9c0-0.2,0-0.2,0.2-0.2c0.5,0,0.5,0,0.5,0.5c0,0.6,0,1.1,0,1.7c0,0.1,0,0.2,0.2,0.2c0.9,0,1.8,0,2.7,0
		c0.2,0,0.2,0,0.2-0.2c0-0.6,0-1.3,0-1.9c0-0.2,0-0.2,0.2-0.2c0.5,0,0.5,0,0.5,0.5c0,0.6,0,1.1,0,1.7c0,0.2,0.1,0.2,0.2,0.2
		c0.9,0,1.7,0,2.6,0c0.2,0,0.3-0.1,0.3-0.3c0-0.6,0-1.2,0-1.8c0-0.2,0-0.3,0.3-0.3c0.4,0,0.4,0,0.4,0.4c0,0.6,0,1.1,0,1.7
		c0,0.2,0,0.2,0.2,0.2c0.9,0,1.8,0,2.6,0c0.2,0,0.2,0,0.2-0.2c0-0.6,0-1.3,0-1.9c0-0.2,0-0.2,0.2-0.2c0.5,0,0.5,0,0.5,0.5
		c0,0.6,0,1.1,0,1.7c0,0.2,0,0.2,0.2,0.2c0.9,0,1.7,0,2.6,0c0.2,0,0.2-0.1,0.2-0.2c0-0.6,0-1.2,0-1.8c0-0.2,0-0.3,0.2-0.3
		c0.4,0,0.4,0,0.4,0.4c0,0.6,0,1.1,0,1.7c0,0.1,0,0.2,0.2,0.2c0.9,0,1.8,0,2.6,0c0.2,0,0.2,0,0.2-0.2c0-0.6,0-1.2,0-1.9
		c0-0.2,0-0.3,0.2-0.3c0.4,0,0.4,0,0.4,0.4c0,0.6,0,1.1,0,1.7c0,0.2,0,0.2,0.2,0.2c0.9,0,1.7,0,2.6,0c0.2,0,0.2-0.1,0.2-0.2
		c0-0.6,0-1.2,0-1.8c0-0.2,0-0.3,0.3-0.3c0.4,0,0.4,0,0.4,0.4c0,0.6,0,1.1,0,1.7c0,0.2,0,0.2,0.2,0.2c0.9,0,1.7,0,2.6,0
		c0.2,0,0.2,0,0.2-0.2c0-0.6,0-1.2,0-1.9c0-0.2,0.1-0.3,0.3-0.3c0.4,0,0.4,0,0.4,0.4c0,0.6,0,1.1,0,1.7c0,0.2,0,0.2,0.2,0.2
		c0.9,0,1.8,0,2.6,0c0.2,0,0.2-0.1,0.2-0.2c0-0.6,0-1.3,0-1.9c0-0.2,0-0.2,0.2-0.2c0.6,0,0.6,0,0.6,0.6c0,0.9,0,1.8,0,2.7
		c0,0.3-0.1,0.3-0.3,0.3c-8.1,0-16.2,0-24.3,0c-8.1,0-16.2,0-24.2,0c-0.4,0-0.4,0.1-0.4-0.3C288.5,46.3,288.5,45.3,288.5,44.3z
		 M285.9,48.9c-0.2,0-0.3-0.1-0.3-0.3c0-0.7,0-0.7,0.7-0.7c8.9,0,17.8,0,26.7,0c0,0,0,0,0,0c8.2,0,16.5,0,24.7,0c0.8,0,1.6,0,2.5,0
		c0.2,0,0.3,0.1,0.2,0.2c0,0.2,0.1,0.5-0.1,0.7c-0.1,0.1-0.4,0-0.7,0c-14.6,0-29.2,0-43.8,0C292.5,48.9,289.2,48.9,285.9,48.9z
		 M336.5,49.5c0-0.1-0.1-0.2,0.1-0.3c0.1,0,0.3,0,0.4,0c0,0,0,0.1,0,0.1c0,0.1,0,0.1,0,0.2c0,6.1,0,12.3,0,18.4
		c0,0.3-0.2,0.4-0.5,0.3c-0.1,0-0.1-0.1-0.1-0.1c0-0.1,0-0.1,0-0.2c0-3.1,0-6.1,0-9.2C336.5,55.7,336.5,52.6,336.5,49.5z
		 M335.4,66.9c0-0.2-0.1-0.4,0-0.5c0.2-0.1,0.4,0,0.6,0c0.1,0,0.1,0.1,0.1,0.1c0,0.1,0,0.2,0,0.3c0,0.5,0,0.5-0.5,0.5
		c-0.2,0-0.3-0.1-0.3-0.3C335.4,67,335.3,66.9,335.4,66.9z M335.4,56c0-0.6,0.1-0.6,0.7-0.5c0.1,0,0.1,0.1,0.1,0.1
		c0,0.1,0,0.2,0,0.3c0,0.5,0,0.5-0.5,0.5c-0.3,0-0.4,0-0.3-0.3C335.4,56,335.4,56,335.4,56z M335.3,56.9c0-0.1,0-0.2,0.2-0.2
		c0.6,0,0.6,0,0.6,0.6c0,0.2,0,0.4,0,0.7c0,0.4,0,0.7,0,1.1c0,0.1,0,0.2-0.2,0.2c-0.6,0-0.6,0-0.6-0.6
		C335.4,58,335.4,57.5,335.3,56.9z M335.4,55c0-0.2,0.2-0.1,0.4-0.1c0.1,0,0.2,0,0.3,0c0.1,0,0.1,0,0.1,0.1c0,0.1,0,0.1-0.1,0.1
		c-0.1,0-0.2,0-0.3,0C335.6,55.1,335.4,55.3,335.4,55z M335.4,67.7C335.4,67.6,335.4,67.6,335.4,67.7c0.3-0.1,0.5-0.1,0.7-0.1
		c0.1,0,0.1,0,0.1,0.1c0,0.1,0,0.1,0,0.2c0,0.4,0,0.4-0.4,0.4c-0.1,0-0.3,0.1-0.3-0.1C335.3,68.1,335.4,67.9,335.4,67.7z M335.9,66
		c-0.5,0-0.5,0-0.5-0.5c0-0.7,0-1.4,0-2.1c0-0.8,0-1.6,0-2.4c0-0.2,0.1-0.2,0.2-0.2c0.6,0,0.6,0,0.6,0.6c0,1.5,0,2.9,0,4.4
		C336.1,66,336.1,66,335.9,66z M336.1,59.7C336.1,59.7,336.1,59.8,336.1,59.7c0,0.1,0,0.2,0,0.3c0,0.3,0,0.4-0.2,0.5
		c-0.1,0-0.2,0-0.3,0c-0.2,0-0.4,0-0.3-0.3c0,0,0-0.1,0-0.1c0-0.6,0-0.6,0.6-0.6C336.1,59.5,336.2,59.5,336.1,59.7z M336.1,53.9
		c0,0,0,0.1,0,0.1c0,0.5,0,0.5-0.5,0.5c-0.2,0-0.3,0-0.3-0.2c0,0,0,0,0-0.1c0-0.1,0-0.1,0-0.2c0-0.3,0-0.4,0.2-0.5c0,0,0,0,0,0
		c0,0,0.1,0,0.1,0c0,0,0.1,0,0.2,0C336.1,53.6,336.2,53.7,336.1,53.9z M336.1,52.6c0,0.1,0,0.3,0,0.4c0,0.2-0.1,0.3-0.3,0.2
		c-0.5,0-0.5,0-0.5-0.5c0-1.1,0-2.2,0-3.3c0-0.2,0-0.3,0.3-0.3c0.5,0,0.5,0,0.5,0.5c0,0.5,0,1,0,1.5
		C336.1,51.7,336.1,52.2,336.1,52.6z M334.5,67.9c0-6.1,0-12.3,0-18.4c0-0.1-0.1-0.2,0-0.3c0.1,0,0.3,0,0.4,0c0.1,0,0.1,0.2,0.1,0.2
		c0,1.8,0,3.6,0,5.5c0,1.3,0,2.5,0,3.8c0,3.1,0,6.1,0,9.2c0,0.1,0.1,0.2,0,0.3c-0.1,0-0.3,0-0.4,0c-0.1,0,0-0.1,0-0.1
		C334.5,68.1,334.5,68,334.5,67.9z M334.2,52.6c0,0.2,0,0.3,0,0.5c0,0.2-0.1,0.2-0.2,0.2c-0.6,0-0.6,0-0.6-0.6c0-1.1,0-2.1,0-3.2
		c0-0.2,0-0.2,0.2-0.2c0.6,0,0.6,0,0.6,0.6c0,0.5,0,1,0,1.4C334.2,51.7,334.2,52.2,334.2,52.6z M333.3,61c0-0.2,0-0.2,0.2-0.2
		c0.6,0,0.6,0,0.6,0.6c0,1.5,0,2.9,0,4.4c0,0.2,0,0.2-0.2,0.2c-0.6,0-0.6,0-0.6-0.6c0-0.7,0-1.3,0-2C333.3,62.6,333.3,61.8,333.3,61
		z M333.3,56.9c0-0.2,0-0.2,0.2-0.2c0.6,0,0.6,0,0.6,0.6c0,0.2,0,0.4,0,0.6c0,0.4,0,0.7,0,1.1c0,0.1,0,0.2-0.2,0.2
		c-0.7,0-0.7,0-0.7-0.6C333.3,58,333.3,57.5,333.3,56.9z M334.2,55.8c0,0,0,0.1,0,0.1c0,0.5,0,0.5-0.4,0.5c-0.4,0-0.4,0-0.4-0.4
		c0-0.5,0-0.5,0.5-0.5C334.1,55.4,334.2,55.5,334.2,55.8z M333.8,53.6c0.4,0,0.4,0,0.4,0.3c0,0,0,0.1,0,0.1c0,0.5,0,0.5-0.5,0.5
		c-0.4,0-0.4,0.1-0.4-0.4C333.3,53.6,333.3,53.6,333.8,53.6z M333.5,54.9c0.1,0,0.2,0,0.3,0c0.1,0,0.2,0,0.3,0c0.1,0,0.1,0,0.1,0.1
		c0,0.1,0,0.1-0.1,0.1c-0.2,0-0.4,0-0.6,0c-0.1,0-0.1-0.1-0.1-0.1C333.3,54.9,333.4,54.9,333.5,54.9z M333.3,60.2
		C333.3,60.2,333.3,60.2,333.3,60.2c0-0.1,0-0.2,0-0.2c0-0.3,0-0.4,0.1-0.5c0.1,0,0.2,0,0.3,0c0.4,0,0.4,0,0.4,0.4
		c0,0.6,0,0.6-0.6,0.6C333.4,60.5,333.3,60.4,333.3,60.2z M333.3,67.7c0-0.1,0-0.2,0.2-0.2c0.1,0,0.2,0,0.2,0c0.4,0,0.4,0,0.4,0.4
		c0,0.3,0,0.3-0.4,0.3C333.3,68.3,333.3,68.3,333.3,67.7z M334.2,66.8c0,0.4,0,0.4-0.2,0.5c-0.1,0-0.2,0-0.3,0c-0.4,0-0.4,0-0.4-0.4
		c0-0.5,0-0.5,0.5-0.5c0.3,0,0.4,0,0.3,0.3c0,0,0,0,0,0C334.2,66.7,334.2,66.8,334.2,66.8z M333,56.4c0,3.8,0,7.7,0,11.5
		c0,0.3-0.3,0.4-0.5,0.3c-0.1,0-0.1-0.1-0.1-0.2c0-0.3,0-0.7,0-1c0-2.8,0-5.6,0-8.3c0-3.1,0-6.1,0-9.2c0-0.1-0.1-0.2,0-0.3
		c0.1,0,0.3,0,0.5,0c0.1,0,0,0.2,0,0.2C333,51.8,333,54.1,333,56.4z M332.2,53.1c0,0.2,0,0.2-0.2,0.2c-0.6,0-0.6,0-0.6-0.6
		c0-0.5,0-1,0-1.4c0-0.6,0-1.2,0-1.8c0-0.2,0-0.2,0.2-0.2c0.6,0,0.6,0,0.6,0.6C332.2,50.9,332.2,52,332.2,53.1z M331.8,66.3
		c0.3,0,0.3,0,0.3,0.3c0,0,0,0.1,0,0.1c0,0.5,0,0.5-0.5,0.5c-0.4,0-0.4,0.1-0.4-0.4C331.3,66.3,331.3,66.3,331.8,66.3z M331.9,66
		c-0.6,0-0.6,0-0.6-0.6c0-0.7,0-1.4,0-2c0-0.8,0-1.6,0-2.4c0-0.2,0-0.2,0.2-0.2c0.6,0,0.6,0,0.6,0.6c0,1.5,0,2.9,0,4.4
		C332.2,66,332.1,66,331.9,66z M331.5,56.7c0.6,0,0.6,0,0.6,0.6c0,0.2,0,0.4,0,0.7c0,0.4,0,0.7,0,1.1c0,0.1,0,0.2-0.2,0.2
		c-0.7,0-0.7,0-0.7-0.6c0-0.6,0-1.1,0-1.7C331.3,56.8,331.4,56.7,331.5,56.7z M331.3,56c0-0.6,0-0.6,0.5-0.6c0.4,0,0.3-0.1,0.3,0.4
		c0,0,0,0.1,0,0.1c0,0.5,0,0.5-0.5,0.5C331.3,56.4,331.3,56.4,331.3,56z M332.2,59.8c0,0.1,0,0.1,0,0.2c0,0.5,0,0.5-0.5,0.5
		c-0.4,0-0.4,0-0.4-0.4c0-0.6,0-0.6,0.6-0.6C332.1,59.5,332.2,59.6,332.2,59.8z M332.2,54.1c0,0.5,0,0.5-0.5,0.5
		c-0.4,0-0.4,0-0.4-0.4c0-0.6,0-0.6,0.6-0.6c0.2,0,0.3,0.1,0.3,0.3C332.2,54,332.2,54,332.2,54.1z M331.5,54.9c0.1,0,0.2,0,0.3,0
		c0.1,0,0.2,0,0.3,0c0.1,0,0.1,0,0.1,0.1c0,0.1,0,0.1-0.1,0.1c-0.2,0-0.4,0-0.6,0c-0.1,0-0.1,0-0.1-0.1
		C331.3,54.9,331.4,54.9,331.5,54.9z M331.6,67.6c0.1,0,0.1,0,0.2,0c0.5,0,0.5,0,0.4,0.6c0,0.1,0,0.2-0.2,0.2c-0.1,0-0.2,0-0.2,0
		c-0.4,0-0.4,0-0.4-0.4C331.3,67.6,331.4,67.6,331.6,67.6z M330.5,67.3c0-2.8,0-5.7,0-8.5c0-3.1,0-6.2,0-9.2c0-0.1-0.1-0.2,0.1-0.2
		c0.2,0,0.3,0,0.5,0c0,0,0,0.1,0,0.1c0,0.1,0,0.1,0,0.2c0,6.1,0,12.2,0,18.4c0,0.4,0,0.4-0.4,0.4c-0.2,0-0.2-0.1-0.2-0.2
		C330.5,67.8,330.5,67.5,330.5,67.3z M330.2,53.1c0,0.2-0.1,0.2-0.2,0.2c-0.6,0-0.6,0-0.6-0.6c0-1.1,0-2.2,0-3.2
		c0-0.2,0-0.3,0.2-0.3c0.6,0,0.6,0,0.6,0.6c0,0.5,0,1,0,1.5C330.2,51.9,330.2,52.5,330.2,53.1z M329.3,56.9c0-0.2,0-0.2,0.2-0.2
		c0.6,0,0.6,0,0.6,0.6c0,0.2,0,0.4,0,0.7c0,0.4,0,0.7,0,1.1c0,0.2-0.1,0.2-0.2,0.2c-0.6,0-0.6,0-0.6-0.6
		C329.3,58,329.3,57.5,329.3,56.9z M330.2,55.8c0,0.1,0,0.1,0,0.2c0,0.3,0,0.4-0.2,0.5c-0.1,0-0.2,0-0.3,0c-0.4,0-0.4,0-0.4-0.4
		c0-0.5,0-0.5,0.5-0.5C330.1,55.4,330.2,55.5,330.2,55.8z M329.3,55c0-0.1,0-0.1,0.1-0.1c0.2,0,0.4,0,0.6,0c0.1,0,0.1,0,0.1,0.1
		c0,0.1,0,0.1-0.1,0.1c-0.1,0-0.2,0-0.3,0c-0.1,0-0.2,0-0.3,0C329.4,55.1,329.3,55.1,329.3,55z M329.3,54.3c0-0.1,0-0.1,0-0.2
		c0-0.4,0-0.4,0.2-0.5c0.1,0,0.1,0,0.3,0c0.4,0,0.4-0.1,0.4,0.4c0,0.6,0,0.6-0.6,0.6C329.4,54.6,329.3,54.5,329.3,54.3z M329.3,60.3
		c0-0.1,0-0.2,0-0.3c0-0.4,0-0.4,0.3-0.5c0.1,0,0.1,0,0.2,0c0.3,0,0.4,0.1,0.3,0.3c0,0,0,0,0,0c0,0.6,0,0.6-0.6,0.6
		C329.4,60.5,329.3,60.4,329.3,60.3z M330.2,66.8c0,0.4,0,0.4-0.2,0.5c-0.1,0-0.2,0-0.3,0c-0.3,0-0.3,0-0.3-0.3c0,0,0,0,0-0.1
		c0-0.6,0-0.6,0.6-0.6c0.2,0,0.3,0.1,0.2,0.3c0,0,0,0,0,0.1C330.2,66.7,330.2,66.8,330.2,66.8z M329.6,60.8c0.6,0,0.6,0,0.6,0.6
		c0,1.5,0,2.9,0,4.4c0,0.2,0,0.3-0.3,0.3c-0.6,0-0.6,0-0.6-0.6c0-0.7,0-1.4,0-2.1c0-0.8,0-1.6,0-2.4
		C329.3,60.8,329.4,60.8,329.6,60.8z M329.3,68.1c0,0,0-0.1,0-0.1c0-0.4,0-0.4,0.4-0.4c0.4,0,0.5,0.2,0.4,0.6
		c-0.1,0.3-0.4,0.1-0.6,0.1C329.4,68.3,329.3,68.3,329.3,68.1z M329,58.7c0,3.1,0,6.2,0,9.2c0,0.2-0.3,0.4-0.5,0.3
		c0,0-0.1-0.1-0.1-0.1c0-0.1,0-0.2,0-0.2c0-6.1,0-12.2,0-18.4c0-0.1-0.1-0.2,0.1-0.3c0.1,0,0.3,0,0.5,0c0.1,0,0,0.2,0,0.2
		C329,52.6,329,55.6,329,58.7z M328.2,53.1c0,0.2,0,0.2-0.2,0.2c-0.6,0-0.6,0-0.6-0.6c0-1.1,0-2.2,0-3.2c0-0.2,0-0.2,0.2-0.2
		c0.6,0,0.6,0,0.6,0.6c0,0.5,0,0.9,0,1.4C328.2,51.9,328.2,52.5,328.2,53.1z M327.3,61c0-0.2,0.1-0.2,0.2-0.2c0.6,0,0.6,0,0.6,0.6
		c0,0.7,0,1.3,0,2c0,0.8,0,1.6,0,2.4c0,0.2,0,0.2-0.2,0.2c-0.6,0-0.6,0-0.6-0.6C327.3,64,327.3,62.5,327.3,61z M328.2,59
		c0,0.1,0,0.2-0.2,0.2c-0.7,0-0.7,0-0.7-0.6c0-0.6,0-1.1,0-1.7c0-0.2,0-0.2,0.2-0.2c0.6,0,0.6,0,0.6,0.6c0,0.2,0,0.4,0,0.6
		C328.2,58.3,328.2,58.7,328.2,59z M328.2,60c0,0.4,0,0.4-0.2,0.5c-0.1,0-0.1,0-0.2,0c-0.4,0-0.4,0-0.4-0.4c0-0.5,0-0.5,0.5-0.5
		c0.3,0,0.3,0,0.3,0.4C328.2,59.9,328.2,60,328.2,60z M327.3,54.2c0,0,0-0.1,0-0.1c0-0.5,0-0.5,0.5-0.5c0.3,0,0.3,0,0.3,0.4
		c0,0.5,0,0.5-0.5,0.5C327.4,54.6,327.3,54.5,327.3,54.2z M328.2,55c0,0.1,0,0.1-0.1,0.1c-0.2,0-0.4,0-0.6,0c-0.1,0-0.1-0.1-0.1-0.1
		c0-0.1,0-0.1,0.1-0.1c0.1,0,0.2,0,0.3,0c0.1,0,0.2,0,0.3,0C328.1,54.9,328.2,54.9,328.2,55z M327.3,56.1c0-0.1,0-0.1,0-0.2
		c0-0.5,0-0.5,0.5-0.5c0.4,0,0.4,0,0.4,0.4c0,0.6,0,0.6-0.6,0.6C327.4,56.4,327.3,56.3,327.3,56.1z M327.3,68c0-0.4,0-0.4,0.4-0.4
		c0.4,0,0.4,0,0.4,0.4c0,0.2-0.1,0.3-0.3,0.3c-0.1,0-0.2,0-0.3,0C327.4,68.3,327.3,68.2,327.3,68z M328.2,66.6c0,0.1,0,0.1,0,0.2
		c0,0.5,0,0.5-0.5,0.5c-0.4,0-0.4,0-0.4-0.4c0-0.5,0-0.5,0.5-0.6C328.1,66.3,328.2,66.4,328.2,66.6z M327,53.8c0,4.7,0,9.5,0,14.2
		c0,0.3-0.3,0.4-0.5,0.3c-0.1-0.1-0.1-0.1-0.1-0.2c0-0.7,0-1.4,0-2.1c0-2.4,0-4.8,0-7.2c0-3.1,0-6.1,0-9.2c0-0.1-0.1-0.2,0-0.2
		c0.2,0,0.3,0,0.5,0c0.1,0,0,0.1,0,0.2C327,50.9,327,52.3,327,53.8z M325.7,68.3c-0.4,0-0.4,0-0.4-0.4c0-0.2,0-0.3,0.3-0.3
		c0.1,0,0.1,0,0.2,0c0.5,0,0.4-0.1,0.4,0.4C326.2,68.4,326.2,68.3,325.7,68.3z M326.2,53.1c0,0.2,0,0.3-0.2,0.3
		c-0.6,0-0.6,0-0.6-0.6c0-0.5,0-1,0-1.5c0-0.6,0-1.2,0-1.8c0-0.1,0-0.2,0.2-0.2c0.7,0,0.7,0,0.7,0.6C326.2,50.9,326.2,52,326.2,53.1
		z M325.3,56.9c0-0.1,0-0.2,0.2-0.2c0.7,0,0.7,0,0.7,0.6c0,0.2,0,0.4,0,0.6h0c0,0.4,0,0.7,0,1.1c0,0.1,0,0.2-0.2,0.2
		c-0.6,0-0.6,0-0.6-0.6C325.3,58,325.3,57.5,325.3,56.9z M325.3,54.3c0-0.1,0-0.1,0-0.2c0-0.5,0-0.5,0.5-0.5c0.4,0,0.4-0.1,0.4,0.4
		c0,0.6,0,0.6-0.6,0.6C325.4,54.6,325.3,54.5,325.3,54.3z M326.2,55c0,0.1,0,0.1-0.1,0.1c-0.2,0-0.4,0-0.6,0c-0.1,0-0.1-0.1-0.1-0.1
		c0-0.1,0-0.1,0.1-0.1c0.1,0,0.2,0,0.3,0c0.1,0,0.2,0,0.3,0C326.1,54.9,326.2,54.9,326.2,55z M325.3,56.1c0-0.1,0-0.1,0-0.2
		c0-0.5,0-0.5,0.5-0.5c0.4,0,0.4-0.1,0.4,0.4c0,0.6,0,0.5-0.5,0.6C325.4,56.4,325.3,56.3,325.3,56.1z M325.3,66.9
		c0-0.5,0-0.5,0.5-0.5c0.4,0,0.4,0,0.4,0.4c0,0,0,0.1,0,0.1c0,0.5,0,0.5-0.4,0.5C325.3,67.3,325.3,67.3,325.3,66.9z M325.9,66
		c-0.6,0-0.6,0-0.6-0.6c0-0.7,0-1.4,0-2c0-0.8,0-1.6,0-2.4c0-0.2,0-0.2,0.2-0.2c0.6,0,0.6,0,0.6,0.6c0,1.4,0,2.9,0,4.3
		C326.2,66,326.1,66,325.9,66z M326.2,59.8c0,0.1,0,0.2,0,0.2c0,0.5,0,0.5-0.5,0.5c-0.1,0-0.1,0-0.2,0c-0.1,0-0.2,0-0.2-0.2
		c0-0.1,0-0.1,0-0.2c0-0.6,0-0.6,0.6-0.6C326.1,59.5,326.2,59.6,326.2,59.8z M325,67.9c0,0.3-0.2,0.4-0.5,0.3
		c-0.1,0-0.1-0.1-0.1-0.1c0-0.1,0-0.1,0-0.2c0-3.1,0-6.1,0-9.2c0-3.1,0-6.2,0-9.2c0-0.1-0.1-0.2,0.1-0.3c0.1,0,0.3,0,0.4,0
		c0,0,0,0.1,0,0.1c0,0.1,0,0.1,0,0.2C325,55.7,325,61.8,325,67.9z M324.2,67.9c0,0.4,0,0.4-0.4,0.4c-0.1,0-0.3,0.1-0.3,0
		c-0.1-0.2,0-0.4,0-0.6c0,0,0.1-0.1,0.1-0.1c0.2,0,0.4,0,0.6,0c0.1,0,0.1,0,0.1,0.1C324.1,67.8,324.2,67.8,324.2,67.9z M323.3,66.8
		c0-0.4,0-0.5,0.2-0.5c0.1,0,0.1,0,0.2,0c0.3,0,0.3,0,0.3,0.4c0,0.6,0,0.6-0.6,0.6c-0.2,0-0.3,0-0.3-0.2
		C323.4,67,323.3,66.9,323.3,66.8z M323.9,66c-0.6,0-0.6,0-0.6-0.6c0-1.5,0-2.9,0-4.4c0-0.2,0.1-0.2,0.3-0.2c0.6,0,0.6,0,0.6,0.6
		c0,0.7,0,1.4,0,2c0,0.8,0,1.6,0,2.4C324.2,66,324.1,66,323.9,66z M324.2,59.7c0,0.1,0,0.2,0,0.3c0,0.3,0,0.4-0.2,0.4
		c-0.1,0-0.2,0-0.3,0c-0.3,0-0.4-0.1-0.3-0.3c0,0,0,0,0,0c0-0.6,0-0.6,0.6-0.6C324.1,59.5,324.2,59.6,324.2,59.7z M324.2,53.1
		c0,0.2,0,0.2-0.2,0.2c-0.6,0-0.6,0-0.6-0.6c0-1.1,0-2.2,0-3.2c0-0.2,0-0.3,0.3-0.3c0.6,0,0.6,0,0.6,0.6c0,0.5,0,1,0,1.5
		C324.2,51.9,324.1,52.5,324.2,53.1z M323.3,54.2C323.3,54.2,323.3,54.2,323.3,54.2c0-0.6,0-0.6,0.6-0.6c0.2,0,0.3,0.1,0.2,0.3
		c0,0.1,0,0.2,0,0.2c0,0.5,0,0.4-0.5,0.5C323.4,54.6,323.3,54.5,323.3,54.2z M324.2,55c0,0.1,0,0.1-0.1,0.1c-0.2,0-0.4,0-0.6,0
		c-0.1,0-0.1,0-0.2-0.1c0-0.1,0.1-0.1,0.2-0.1c0.1,0,0.2,0,0.3,0c0.1,0,0.2,0,0.3,0C324.1,54.9,324.2,54.9,324.2,55z M324.2,59
		c0,0.2,0,0.2-0.2,0.2c-0.6,0-0.6,0-0.6-0.6c0-0.2,0-0.5,0-0.7c0-0.3,0-0.7,0-1c0-0.2,0-0.2,0.2-0.2c0.6,0,0.6,0,0.6,0.6
		C324.2,57.9,324.1,58.4,324.2,59z M324.2,55.7C324.1,55.8,324.2,55.8,324.2,55.7c0,0.6,0,0.6-0.6,0.6c-0.2,0-0.3,0-0.3-0.2
		c0-0.1,0-0.2,0-0.2c0-0.5,0-0.5,0.5-0.5C324.1,55.4,324.2,55.5,324.2,55.7z M323,58.7c0,3.1,0,6.1,0,9.2c0,0.1,0.1,0.2-0.1,0.3
		c-0.1,0-0.3,0-0.4,0c0,0,0-0.1,0-0.1c0-0.1,0-0.1,0-0.2c0-6.1,0-12.3,0-18.4c0-0.2,0.1-0.3,0.3-0.3c0.2,0,0.3,0.1,0.3,0.3
		C323,52.6,323,55.7,323,58.7z M322.2,53.1c0,0.2,0,0.2-0.2,0.2c-0.6,0-0.6,0-0.6-0.6c0-0.5,0-1,0-1.5c0-0.6,0-1.2,0-1.8
		c0-0.2,0-0.2,0.2-0.2c0.6,0,0.6,0,0.6,0.6C322.2,50.9,322.2,52,322.2,53.1z M321.3,56.9c0-0.2,0-0.2,0.2-0.2c0.7,0,0.7,0,0.7,0.6
		c0,0.2,0,0.4,0,0.6c0,0.4,0,0.7,0,1.1c0,0.1,0,0.2-0.2,0.2c-0.7,0-0.7,0-0.7-0.6C321.3,58,321.3,57.5,321.3,56.9z M322.2,65.8
		c0,0.2-0.1,0.2-0.2,0.2c-0.6,0-0.6,0-0.6-0.6c0-1.5,0-2.9,0-4.4c0-0.2,0-0.2,0.2-0.2c0.6,0,0.6,0,0.6,0.6c0,0.7,0,1.3,0,2
		C322.2,64.2,322.2,65,322.2,65.8z M322.2,54c0,0,0,0.1,0,0.1c0,0.5,0,0.5-0.5,0.5c-0.4,0-0.4,0-0.4-0.4c0-0.6,0-0.6,0.5-0.6
		C322.2,53.6,322.2,53.6,322.2,54z M321.4,54.9c0.2,0,0.4,0,0.6,0c0.1,0,0.1,0,0.1,0.1c0,0.1,0,0.1-0.1,0.1c-0.1,0-0.2,0-0.3,0
		c-0.1,0-0.2,0-0.3,0c-0.1,0-0.1-0.1-0.1-0.1C321.3,54.9,321.4,54.9,321.4,54.9z M321.3,56.1c0-0.1,0-0.1,0-0.2c0-0.5,0-0.5,0.5-0.5
		c0.4,0,0.4,0,0.4,0.4c0,0.6,0,0.5-0.5,0.6C321.4,56.4,321.3,56.3,321.3,56.1z M321.3,67c0-0.1,0-0.1,0-0.2c0-0.3,0-0.4,0.2-0.5
		c0.1,0,0.1,0,0.3,0c0.4,0,0.4,0,0.4,0.4c0,0.5,0,0.5-0.5,0.5C321.4,67.3,321.3,67.2,321.3,67z M321.6,67.6c0,0,0.1,0,0.1,0
		c0.4,0,0.4,0,0.4,0.5c0,0.2-0.1,0.3-0.3,0.3c-0.1,0-0.1,0-0.2,0c-0.4,0-0.4,0-0.4-0.4C321.3,67.6,321.4,67.6,321.6,67.6z
		 M322.2,59.8c0,0.1,0,0.2,0,0.2c0,0.5,0,0.5-0.5,0.5c-0.1,0-0.2,0-0.2,0c-0.1,0-0.1,0-0.1-0.1c0-0.1,0-0.2,0-0.2
		c0-0.6,0-0.6,0.6-0.6C322.1,59.5,322.2,59.6,322.2,59.8z M320.5,60.9c0-3.8,0-7.6,0-11.4c0-0.1-0.1-0.2,0-0.3c0.1,0,0.3,0,0.4,0
		c0.1,0,0.1,0.2,0.1,0.2c0,2,0,4.1,0,6.1c0,1.1,0,2.1,0,3.2c0,3.1,0,6.1,0,9.2c0,0.1,0.1,0.2,0,0.3c-0.1,0-0.3,0-0.4,0
		c-0.1,0,0-0.2,0-0.2C320.5,65.6,320.5,63.3,320.5,60.9z M320.2,67.9c0,0.4,0,0.4-0.4,0.4c-0.1,0-0.3,0.1-0.3,0
		c-0.1-0.2,0-0.4,0-0.6c0-0.1,0.1-0.1,0.1-0.1c0.2,0,0.4,0,0.6,0c0.1,0,0.1,0,0.1,0.1C320.2,67.8,320.2,67.8,320.2,67.9z
		 M320.2,53.1c0,0.2,0,0.3-0.2,0.3c-0.6,0-0.6,0-0.6-0.6c0-0.5,0-1,0-1.5c0-0.6,0-1.2,0-1.8c0-0.2,0-0.2,0.2-0.2
		c0.6,0,0.6,0,0.6,0.6C320.2,50.9,320.2,52,320.2,53.1z M319.4,54.2C319.4,54.2,319.4,54.2,319.4,54.2c0-0.6,0-0.6,0.6-0.6
		c0.2,0,0.2,0.1,0.2,0.2c0,0.1,0,0.2,0,0.3c0,0.5,0,0.4-0.5,0.5C319.4,54.6,319.3,54.5,319.4,54.2z M320.2,55c0,0.1,0,0.1-0.1,0.1
		c-0.1,0-0.2,0-0.3,0c-0.1,0-0.2,0-0.3,0c-0.1,0-0.1-0.1-0.1-0.1c0-0.1,0-0.1,0.1-0.1c0.2,0,0.4,0,0.6,0
		C320.1,54.9,320.2,54.9,320.2,55z M319.4,56.1C319.4,56,319.4,56,319.4,56.1c0-0.6,0-0.6,0.6-0.6c0.2,0,0.3,0.1,0.2,0.2
		c0,0,0,0,0,0.1c0,0.1,0,0.1,0,0.2c0,0.3,0,0.4-0.2,0.5c-0.1,0-0.2,0-0.3,0C319.4,56.4,319.3,56.3,319.4,56.1z M319.4,56.9
		c0-0.2,0-0.2,0.2-0.2c0.6,0,0.6,0,0.6,0.6c0,0.2,0,0.5,0,0.7c0,0.4,0,0.7,0,1.1c0,0.1,0,0.2-0.2,0.2c-0.6,0-0.6,0-0.6-0.6
		C319.4,58,319.4,57.5,319.4,56.9z M319.4,60.1C319.4,60.1,319.4,60.1,319.4,60.1c0-0.6,0-0.6,0.6-0.6c0.2,0,0.3,0,0.2,0.2
		c0,0.1,0,0.2,0,0.3c0,0.5,0,0.5-0.5,0.5C319.4,60.5,319.3,60.4,319.4,60.1z M319.4,61c0-0.2,0-0.2,0.2-0.2c0.6,0,0.6,0,0.6,0.6
		c0,1.5,0,2.9,0,4.4c0,0.2,0,0.3-0.2,0.3c-0.6,0-0.6,0-0.6-0.6c0-0.7,0-1.4,0-2.1C319.4,62.6,319.4,61.8,319.4,61z M320.2,66.8
		c0,0.4,0,0.4-0.4,0.4c-0.4,0-0.4,0-0.4-0.4c0-0.6,0-0.6,0.5-0.6c0.2,0,0.3,0.1,0.3,0.3C320.1,66.7,320.2,66.8,320.2,66.8z
		 M318.5,65.4c0-5.3,0-10.6,0-15.9c0-0.1-0.1-0.3,0-0.3c0.1,0,0.3,0,0.4,0c0.1,0,0.1,0.1,0.1,0.2c0,0.7,0,1.3,0,2c0,2.4,0,4.9,0,7.3
		c0,3.1,0,6.1,0,9.2c0,0.1,0.1,0.2-0.1,0.3c-0.1,0-0.3,0-0.4,0c-0.1,0,0-0.1,0-0.2C318.5,67.2,318.5,66.3,318.5,65.4z M318.2,53.1
		c0,0.2,0,0.2-0.2,0.2c-0.6,0-0.6,0-0.6-0.6c0-1.1,0-2.2,0-3.2c0-0.2,0-0.2,0.2-0.2c0.6,0,0.6,0,0.6,0.6c0,0.5,0,1,0,1.5
		C318.2,51.9,318.2,52.5,318.2,53.1z M318.2,59c0,0.2,0,0.2-0.2,0.2c-0.6,0-0.6,0-0.6-0.6c0-0.2,0-0.5,0-0.7h0c0-0.3,0-0.7,0-1
		c0-0.1,0-0.2,0.2-0.2c0.6,0,0.6,0,0.6,0.6C318.2,57.9,318.2,58.4,318.2,59z M318.2,60c0,0.4,0,0.4-0.2,0.5c-0.1,0-0.1,0-0.2,0
		c-0.4,0-0.4,0-0.4-0.4c0-0.5,0-0.5,0.5-0.6c0.2,0,0.3,0.1,0.3,0.3C318.2,59.9,318.2,59.9,318.2,60z M317.6,60.8
		c0.6,0,0.6,0,0.6,0.6c0,0.7,0,1.4,0,2.1c0,0.8,0,1.6,0,2.4c0,0.2,0,0.2-0.2,0.2c-0.6,0-0.6,0-0.6-0.6c0-1.5,0-2.9,0-4.4
		C317.4,60.8,317.4,60.8,317.6,60.8z M317.4,54.3C317.4,54.2,317.4,54.2,317.4,54.3c0-0.1,0-0.1,0-0.2c0-0.4,0-0.4,0.2-0.5
		c0.1,0,0.2,0,0.3,0c0.4,0,0.3,0,0.3,0.3c0,0,0,0.1,0,0.1c0,0.5,0,0.5-0.5,0.5C317.4,54.6,317.3,54.5,317.4,54.3z M318.2,55
		c0,0.1-0.1,0.1-0.1,0.1c-0.1,0-0.2,0-0.3,0c-0.1,0-0.2,0-0.2,0c-0.1,0-0.2,0-0.2-0.1c0-0.1,0.1-0.1,0.2-0.1c0.2,0,0.3,0,0.5,0
		C318.1,54.9,318.2,54.9,318.2,55z M317.4,67C317.4,66.9,317.4,66.9,317.4,67c0-0.6,0-0.6,0.6-0.6c0.2,0,0.3,0.1,0.2,0.2
		c0,0.1,0,0.2,0,0.2c0,0.5,0,0.5-0.5,0.5C317.4,67.3,317.3,67.2,317.4,67z M317.8,67.6c0.1,0,0.3-0.1,0.4,0.1c0.1,0.2,0,0.4,0,0.6
		c0,0,0,0.1-0.1,0.1c-0.2,0-0.4,0-0.7,0c-0.1,0-0.1-0.1-0.1-0.1c0-0.1,0-0.1,0-0.2C317.4,67.6,317.4,67.6,317.8,67.6z M318.2,55.8
		C318.2,55.8,318.2,55.8,318.2,55.8c0,0.7,0,0.7-0.7,0.6c-0.1,0-0.1-0.1-0.1-0.2c0-0.1,0-0.2,0-0.3c0-0.5,0-0.5,0.4-0.5
		c0,0,0.1,0,0.1,0C318.1,55.4,318.2,55.5,318.2,55.8z M316.6,49.3c0.1,0,0.3,0,0.4,0c0.1,0,0.1,0.1,0.1,0.2c0,0.6,0,1.3,0,1.9
		c0,2.5,0,4.9,0,7.4c0,3.1,0,6.1,0,9.2c0,0.1,0.1,0.3-0.1,0.3c-0.1,0-0.3,0-0.4,0c0,0-0.1-0.1-0.1-0.1c0-0.1,0-0.1,0-0.2
		c0-6.1,0-12.3,0-18.4C316.5,49.4,316.4,49.3,316.6,49.3z M316.2,53.1c0,0.2,0,0.2-0.2,0.2c-0.6,0-0.6,0-0.6-0.6c0-0.5,0-1,0-1.5
		c0-0.6,0-1.2,0-1.8c0-0.2,0-0.2,0.2-0.2c0.6,0,0.6,0,0.6,0.6C316.2,50.9,316.2,52,316.2,53.1z M315.4,54.4c0-0.1,0-0.1,0-0.2
		c0-0.6,0-0.6,0.6-0.6c0.2,0,0.3,0,0.3,0.2c0,0.1,0,0.2,0,0.3c0,0.4,0,0.4-0.4,0.4c-0.1,0-0.1,0-0.2,0
		C315.4,54.6,315.3,54.5,315.4,54.4z M316.2,59c0,0.1,0,0.2-0.2,0.2c-0.6,0-0.6,0-0.6-0.6c0-0.2,0-0.4,0-0.6c0-0.3,0-0.7,0-1
		c0-0.2,0-0.2,0.2-0.2c0.6,0,0.6,0,0.6,0.6C316.2,57.9,316.2,58.4,316.2,59z M315.4,61c0-0.2,0-0.2,0.2-0.2c0.6,0,0.6,0,0.6,0.6
		c0,1.5,0,2.9,0,4.4c0,0.2,0,0.3-0.3,0.3c-0.6,0-0.6,0-0.6-0.6c0-0.7,0-1.4,0-2.1C315.4,62.6,315.4,61.8,315.4,61z M316.2,55
		c0,0.1,0,0.1-0.1,0.1c-0.1,0-0.2,0-0.3,0c-0.1,0-0.2,0-0.3,0c-0.1,0-0.1,0-0.1-0.1c0-0.1,0.1-0.1,0.1-0.1c0.2,0,0.4,0,0.6,0
		C316.1,54.9,316.2,54.9,316.2,55z M315.4,60.2C315.4,60.2,315.4,60.2,315.4,60.2c0-0.1,0-0.2,0-0.2c0-0.3,0-0.4,0.2-0.5
		c0.1,0,0.2,0,0.3,0c0.3,0,0.3,0,0.3,0.4c0,0.6,0,0.6-0.6,0.6C315.4,60.5,315.3,60.4,315.4,60.2z M315.4,67c0-0.1,0-0.1,0-0.2
		c0-0.3,0-0.4,0.2-0.5c0.1,0,0.1,0,0.3,0c0.4,0,0.4,0,0.4,0.4c0,0.6,0,0.5-0.5,0.6C315.4,67.3,315.3,67.2,315.4,67z M315.4,67.7
		c0-0.1,0.1-0.1,0.1-0.1c0.1,0,0.2,0,0.3,0c0.4,0,0.4,0,0.4,0.5c0,0.2-0.1,0.3-0.3,0.3c-0.1,0-0.1,0-0.2,0c-0.1,0-0.3,0.1-0.3,0
		C315.3,68.1,315.4,67.9,315.4,67.7z M316.2,55.7c0,0.1,0,0.1,0,0.2c0,0.4,0,0.5-0.3,0.5c0,0-0.1,0-0.1,0c-0.4,0-0.4,0-0.4-0.4
		c0-0.5,0-0.5,0.5-0.5C316.1,55.4,316.2,55.5,316.2,55.7z M315.1,54.3c0,1.5,0,2.9,0,4.4c0,3.1,0,6.1,0,9.2c0,0.3-0.3,0.4-0.5,0.3
		c-0.1-0.1,0-0.1,0-0.2c0-0.8,0-1.7,0-2.5c0-5.3,0-10.6,0-16c0-0.3,0.2-0.4,0.5-0.3c0.1,0,0.1,0.2,0.1,0.2
		C315.1,51.1,315.1,52.7,315.1,54.3z M314.2,52.6c0,0.2,0,0.3,0,0.5c0,0.2-0.1,0.2-0.2,0.2c-0.6,0-0.6,0-0.6-0.6c0-1.1,0-2.2,0-3.2
		c0-0.2,0-0.3,0.2-0.3c0.6,0,0.6,0,0.6,0.6c0,0.5,0,1,0,1.5C314.2,51.7,314.2,52.2,314.2,52.6z M313.4,54.3c0-0.1,0-0.1,0-0.2
		c0-0.5,0-0.5,0.5-0.5c0.2,0,0.4,0,0.3,0.3c0,0,0,0.1,0,0.1c0,0.6,0,0.6-0.6,0.6C313.4,54.6,313.4,54.5,313.4,54.3z M314.2,55
		c0,0.1,0,0.1-0.1,0.1c-0.1,0-0.2,0-0.3,0c-0.1,0-0.2,0-0.3,0c-0.1,0-0.1,0-0.1-0.1c0-0.1,0-0.1,0.1-0.1c0.2,0,0.4,0,0.6,0
		C314.2,54.9,314.2,54.9,314.2,55z M313.4,56.2c0-0.1,0-0.2,0-0.3c0-0.5,0-0.4,0.5-0.5c0.3,0,0.4,0.1,0.3,0.3c0,0,0,0,0,0.1
		c0,0.6,0,0.6-0.6,0.6C313.5,56.4,313.4,56.4,313.4,56.2z M314.2,66.8c0,0.5,0,0.5-0.4,0.5c-0.4,0-0.4,0-0.4-0.4
		c0-0.6,0-0.5,0.5-0.6c0.2,0,0.3,0,0.3,0.3C314.2,66.7,314.2,66.8,314.2,66.8z M314.2,59c0,0.1,0,0.2-0.2,0.2c-0.6,0-0.6,0-0.6-0.6
		c0-0.6,0-1.1,0-1.7c0-0.1,0-0.2,0.2-0.2c0.6,0,0.6,0,0.6,0.6c0,0.2,0,0.4,0,0.6C314.2,58.3,314.2,58.7,314.2,59z M314.2,60
		c0,0.5,0,0.5-0.5,0.5c-0.3,0-0.3,0-0.3-0.4c0-0.6,0-0.6,0.5-0.6c0.2,0,0.3,0.1,0.3,0.3C314.2,59.9,314.2,59.9,314.2,60z
		 M313.6,60.8c0.6,0,0.6,0,0.6,0.6c0,1.5,0,2.9,0,4.4c0,0.2,0,0.3-0.2,0.3c-0.6,0-0.6,0-0.6-0.6c0-0.7,0-1.4,0-2.1
		c0-0.8,0-1.6,0-2.4C313.4,60.8,313.4,60.8,313.6,60.8z M313.9,67.6c0.1,0,0.3-0.1,0.3,0.1c0,0.2,0.1,0.4,0,0.6c0,0.1-0.3,0-0.4,0
		c-0.1,0-0.1,0-0.2,0c-0.2,0-0.2,0-0.2-0.2C313.4,67.6,313.4,67.6,313.9,67.6z M312.6,49.3c0.1,0,0.3,0,0.4,0c0.1,0,0.1,0.1,0.1,0.2
		c0,1.1,0,2.2,0,3.2c0,2,0,4,0,6.1c0,3.1,0,6.1,0,9.2c0,0.1,0.1,0.2,0,0.3c-0.1,0-0.3,0-0.4,0c0,0,0-0.1,0-0.1c0-0.1,0-0.1,0-0.2
		c0-6.1,0-12.3,0-18.4C312.5,49.4,312.5,49.3,312.6,49.3z M312.2,53c0,0.2-0.1,0.3-0.3,0.3c-0.6,0-0.6,0-0.6-0.6c0-0.5,0-1,0-1.5
		c0-0.6,0-1.2,0-1.8c0-0.1,0-0.2,0.2-0.2c0.7,0,0.7,0,0.7,0.6C312.2,50.9,312.2,52,312.2,53z M312,66c-0.6,0-0.6,0-0.6-0.6
		c0-1.5,0-2.9,0-4.4c0-0.2,0-0.3,0.2-0.3c0.6,0,0.6,0,0.6,0.6c0,0.7,0,1.3,0,2c0,0.8,0,1.6,0,2.4C312.2,66,312.2,66,312,66z
		 M312.2,66.8c0,0.5,0,0.5-0.3,0.5c-0.5,0-0.5,0-0.5-0.5c0-0.4,0-0.4,0.4-0.4C312.2,66.3,312.2,66.3,312.2,66.8z M311.4,56.9
		c0-0.2,0-0.2,0.2-0.2c0.7,0,0.7,0,0.7,0.6c0,0.2,0,0.4,0,0.6c0,0.4,0,0.7,0,1.1c0,0.1,0,0.2-0.2,0.2c-0.7,0-0.7,0-0.7-0.6
		C311.4,58,311.4,57.5,311.4,56.9z M311.4,55.9c0-0.5,0-0.5,0.5-0.5c0.4,0,0.4,0,0.4,0.4c0,0,0,0.1,0,0.1c0,0.5,0,0.5-0.4,0.5
		C311.4,56.4,311.4,56.4,311.4,55.9z M312.2,54.1c0,0.5,0,0.5-0.4,0.5c-0.4,0-0.4,0-0.4-0.4c0-0.5,0-0.5,0.4-0.5
		C312.2,53.6,312.2,53.6,312.2,54.1z M311.5,54.9c0.1,0,0.2,0,0.3,0c0.1,0,0.2,0,0.3,0c0.1,0,0.1,0,0.1,0.1c0,0.1,0,0.1-0.1,0.1
		c-0.2,0-0.4,0-0.6,0c-0.1,0-0.1-0.1-0.1-0.1C311.4,54.9,311.4,54.9,311.5,54.9z M311.4,59.6c0.2-0.1,0.5,0,0.7,0
		c0.1,0,0.1,0.1,0.1,0.1c0,0.1,0,0.2,0,0.3c0,0.5,0,0.5-0.5,0.5c-0.1,0-0.1,0-0.2,0c-0.2,0-0.2,0-0.2-0.2c0-0.1,0-0.1,0-0.2
		C311.4,59.9,311.3,59.6,311.4,59.6z M311.4,68c0-0.4,0-0.4,0.4-0.4c0.4,0,0.4,0,0.4,0.4c0,0.3-0.1,0.3-0.3,0.3c-0.1,0-0.2,0-0.3,0
		C311.4,68.3,311.4,68.3,311.4,68z M310.6,49.3c0.1,0,0.3,0,0.4,0c0.1,0,0.1,0.1,0.1,0.2c0,1.1,0,2.1,0,3.2c0,2,0,4.1,0,6.1
		c0,3.1,0,6.1,0,9.2c0,0.1,0.1,0.2,0,0.3c-0.1,0-0.3,0-0.4,0c0,0,0-0.1,0-0.1c0-0.1,0-0.1,0-0.2c0-6.1,0-12.3,0-18.4
		C310.5,49.4,310.5,49.3,310.6,49.3z M310.2,53.1c0,0.2,0,0.2-0.2,0.2c-0.7,0-0.7,0-0.7-0.6c0-1.1,0-2.1,0-3.2c0-0.2,0-0.2,0.2-0.2
		c0.6,0,0.6,0,0.6,0.6c0,0.5,0,0.9,0,1.4C310.2,51.9,310.2,52.5,310.2,53.1z M309.4,55.1c-0.1,0-0.1-0.1-0.1-0.1
		c0-0.1,0-0.1,0.1-0.1c0.2,0,0.4,0,0.6,0c0.1,0,0.1,0,0.1,0.1c0,0.1,0,0.1-0.1,0.1c-0.1,0-0.2,0-0.3,0v0
		C309.7,55.1,309.6,55.1,309.4,55.1z M310.2,53.9c0,0.1,0,0.1,0,0.2c0,0.5,0,0.5-0.5,0.5c-0.4,0-0.4,0-0.4-0.4c0-0.6,0-0.5,0.5-0.6
		C310.1,53.6,310.2,53.7,310.2,53.9z M309.3,56.2c0-0.1,0-0.1,0-0.2c0-0.6,0-0.6,0.6-0.6c0.2,0,0.3,0,0.2,0.2c0,0.1,0,0.2,0,0.2
		c0,0.4,0,0.4-0.2,0.5c-0.1,0-0.2,0-0.3,0c-0.1,0-0.1,0-0.2,0C309.4,56.4,309.3,56.4,309.3,56.2z M309.3,61c0-0.2,0-0.3,0.2-0.3
		c0.6,0,0.6,0,0.6,0.6c0,0.7,0,1.3,0,2c0,0.8,0,1.6,0,2.4c0,0.2,0,0.2-0.2,0.2c-0.7,0-0.7,0-0.7-0.6C309.4,63.9,309.4,62.5,309.3,61
		z M310.2,59.7c0,0.1,0,0.2,0,0.3c0,0.5,0,0.5-0.5,0.5c-0.1,0-0.1,0-0.2,0c-0.1,0-0.2,0-0.2-0.2c0-0.1,0-0.1,0-0.2
		c0-0.6,0-0.6,0.6-0.6C310.2,59.5,310.2,59.6,310.2,59.7z M310.2,59c0,0.1,0,0.2-0.2,0.2c-0.7,0-0.7,0-0.7-0.7c0-0.2,0-0.4,0-0.6
		c0-0.3,0-0.7,0-1c0-0.1,0-0.2,0.2-0.2c0.7,0,0.7,0,0.7,0.6C310.2,57.9,310.2,58.5,310.2,59z M309.8,67.6c0.4,0,0.4,0,0.4,0.4
		c0,0.2,0,0.3-0.3,0.3c-0.1,0-0.2,0-0.3,0c-0.3,0-0.4,0-0.3-0.3C309.4,67.6,309.4,67.6,309.8,67.6z M310.2,66.7c0,0.1,0,0.1,0,0.2
		c0,0.5,0,0.5-0.5,0.5c-0.4,0-0.4,0-0.4-0.4c0-0.6,0-0.5,0.5-0.6C310.1,66.3,310.3,66.4,310.2,66.7z M309,54.5c0,4.5,0,8.9,0,13.4
		c0,0.3-0.2,0.4-0.5,0.3c-0.1,0-0.1,0-0.1-0.1c0-0.1,0-0.1,0-0.2c0-3.1,0-6.1,0-9.2c0-3.1,0-6.2,0-9.2c0-0.1-0.1-0.2,0.1-0.3
		c0.1,0,0.3,0,0.4,0c0.1,0,0,0.1,0,0.2C309,51.1,309,52.8,309,54.5z M308.2,59c0,0.2,0,0.2-0.2,0.2c-0.6,0-0.6,0-0.6-0.6
		c0-0.6,0-1.1,0-1.7c0-0.2,0-0.2,0.2-0.2c0.6,0,0.6,0,0.6,0.6c0,0.2,0,0.5,0,0.7C308.2,58.3,308.2,58.7,308.2,59z M307.4,61.1
		c0-0.2,0-0.3,0.3-0.3c0.5,0,0.5,0,0.5,0.5c0,0.7,0,1.4,0,2.1c0,0.8,0,1.6,0,2.4c0,0.2-0.1,0.2-0.2,0.2c-0.6,0-0.6,0-0.6-0.6
		C307.4,64,307.4,62.5,307.4,61.1z M307.4,60.2c0-0.1,0-0.1,0-0.2c0-0.5,0-0.5,0.5-0.5c0.3,0,0.3,0,0.3,0.5c0,0.5,0,0.5-0.5,0.5
		C307.5,60.5,307.4,60.4,307.4,60.2z M307.4,67c0,0,0-0.1,0-0.1c0-0.6,0.1-0.7,0.7-0.6c0.1,0,0.1,0.1,0.1,0.1c0,0.1,0,0.2,0,0.3
		c0,0.3,0,0.4-0.1,0.4c-0.1,0-0.2,0-0.4,0C307.5,67.3,307.4,67.2,307.4,67z M307.4,67.7c0-0.1,0.1-0.1,0.1-0.1c0.1,0,0.1,0,0.2,0
		c0.5,0,0.4,0,0.5,0.5c0,0.2-0.1,0.3-0.3,0.3c0,0-0.1,0-0.2,0c-0.1,0-0.3,0.1-0.3-0.1C307.4,68.1,307.4,67.9,307.4,67.7z
		 M308.2,55.8c0,0.1,0,0.1,0,0.2c0,0.5,0,0.5-0.5,0.5c-0.2,0-0.4,0-0.3-0.3c0-0.1,0-0.1,0-0.2c0-0.5,0-0.4,0.5-0.5
		C308.1,55.4,308.2,55.5,308.2,55.8z M308.2,53.1c0,0.2,0,0.2-0.2,0.2c-0.6,0-0.6,0-0.6-0.6c0-1.1,0-2.2,0-3.3c0-0.2,0-0.2,0.2-0.2
		c0.6,0,0.6,0,0.6,0.5c0,0.5,0,1,0,1.5C308.2,51.9,308.2,52.5,308.2,53.1z M307.4,54.3c0,0,0-0.1,0-0.1c0-0.6,0-0.5,0.5-0.6
		c0.2,0,0.3,0.1,0.3,0.3c0,0.1,0,0.1,0,0.2c0,0.5,0,0.5-0.5,0.5C307.5,54.6,307.3,54.5,307.4,54.3z M308.2,55c0,0.1,0,0.1-0.1,0.1
		c-0.2,0-0.4,0-0.5,0c-0.1,0-0.1,0-0.1-0.1c0-0.1,0.1-0.1,0.1-0.1c0.1,0,0.2,0,0.3,0c0.1,0,0.2,0,0.3,0
		C308.2,54.9,308.2,54.9,308.2,55z M306.6,63.8c0-1.7,0-3.4,0-5.1c0,0,0,0,0,0c0-3.1,0-6.1,0-9.2c0-0.1-0.1-0.2,0-0.3
		c0.1,0,0.3,0,0.5,0c0,0,0,0.1,0,0.1c0,0.1,0,0.1,0,0.2c0,6.1,0,12.2,0,18.3c0,0.3-0.1,0.4-0.4,0.3c-0.1,0-0.1-0.2-0.1-0.2
		C306.6,66.6,306.6,65.2,306.6,63.8z M294.2,53.1c0,0.1,0,0.2-0.2,0.2c-0.6,0-0.6,0-0.6-0.6c0-1.1,0-2.2,0-3.3c0-0.2,0-0.2,0.2-0.2
		c0.6,0,0.6,0,0.6,0.6c0,0.5,0,1,0,1.5C294.2,51.9,294.2,52.5,294.2,53.1z M293.4,54.3c0-0.1,0-0.2,0-0.2c0-0.5,0-0.5,0.5-0.5
		c0.2,0,0.4,0,0.3,0.3c0,0,0,0,0,0.1c0,0.6,0,0.6-0.6,0.6C293.4,54.6,293.4,54.5,293.4,54.3z M294.5,55.4c0-2,0-3.9,0-5.9
		c0-0.2,0.1-0.2,0.3-0.2c0.2,0,0.3,0,0.3,0.2c0,4,0,7.9,0,11.9c0,0.2-0.1,0.2-0.3,0.2c-0.2,0-0.3,0-0.3-0.2
		C294.5,59.4,294.5,57.4,294.5,55.4z M299.8,61.9c2,0,4.1,0,6.1,0c0.2,0,0.3,0,0.3,0.3c0,1.4,0,2.7,0,4.1c0,0.2-0.1,0.2-0.2,0.2
		c-4.1,0-8.2,0-12.3,0c-0.2,0-0.3-0.1-0.3-0.3c0-1.4,0-2.7,0-4.1c0-0.2,0-0.2,0.2-0.2C295.7,61.9,297.8,61.9,299.8,61.9z
		 M296.2,53.1c0,0.2,0,0.2-0.2,0.2c-0.6,0-0.6,0-0.6-0.6c0-1.1,0-2.2,0-3.2c0-0.2,0-0.2,0.2-0.2c0.6,0,0.6,0,0.6,0.6
		c0,0.5,0,0.9,0,1.4C296.2,51.9,296.2,52.5,296.2,53.1z M295.5,54.9c0.2,0,0.4,0,0.6,0c0.1,0,0.1,0,0.1,0.1c0,0.1,0,0.1-0.1,0.1
		c-0.1,0-0.2,0-0.3,0c-0.1,0-0.2,0-0.3,0c-0.1,0-0.1-0.1-0.1-0.1C295.4,54.9,295.4,54.9,295.5,54.9z M295.4,54.2
		c0-0.5,0-0.5,0.5-0.5c0.4,0,0.4,0,0.4,0.4c0,0,0,0.1,0,0.1c0,0.5,0,0.5-0.5,0.5C295.4,54.6,295.4,54.6,295.4,54.2z M295.4,56.2
		c0-0.1,0-0.1,0-0.2c0-0.6,0-0.6,0.6-0.6c0.2,0,0.3,0,0.3,0.2c0,0.1,0,0.2,0,0.2c0,0.5,0,0.5-0.5,0.5c-0.1,0-0.1,0-0.2,0
		C295.4,56.4,295.4,56.4,295.4,56.2z M296.2,60c0,0.5,0,0.5-0.5,0.5c-0.1,0-0.2,0-0.2,0c-0.1,0-0.1,0-0.1-0.1c0-0.1,0-0.1,0-0.2
		c0-0.6,0-0.6,0.6-0.6c0.2,0,0.2,0,0.2,0.2C296.2,59.8,296.2,59.9,296.2,60z M296.2,59c0,0.1,0,0.2-0.2,0.2c-0.7,0-0.7,0-0.7-0.7
		c0-0.5,0-1.1,0-1.6c0-0.2,0-0.2,0.2-0.2c0.6,0,0.6,0,0.6,0.6c0,0.2,0,0.4,0,0.6C296.2,58.3,296.2,58.7,296.2,59z M295.6,60.8
		C295.6,60.8,295.6,60.8,295.6,60.8c0.6,0,0.6,0,0.7,0.6c0,0.2-0.1,0.3-0.3,0.3c-0.1,0-0.1,0-0.2,0c-0.4,0-0.4,0-0.4-0.4
		c0-0.1,0-0.1,0-0.2C295.4,60.8,295.4,60.8,295.6,60.8z M297.1,55.4c0,2,0,4,0,5.9c0,0.2-0.1,0.2-0.3,0.2c-0.2,0-0.3,0-0.3-0.2
		c0-4,0-7.9,0-11.9c0-0.3,0.1-0.2,0.3-0.2c0.2,0,0.3,0,0.3,0.2C297.1,51.4,297.1,53.4,297.1,55.4z M298.2,53.1c0,0.2,0,0.3-0.2,0.2
		c-0.6,0-0.6,0-0.6-0.6c0-0.5,0-1,0-1.5c0-0.6,0-1.2,0-1.8c0-0.2,0-0.2,0.2-0.2c0.6,0,0.6,0,0.6,0.6C298.2,50.9,298.2,52,298.2,53.1
		z M297.4,54.2C297.4,54.2,297.4,54.2,297.4,54.2c0-0.6,0-0.6,0.6-0.6c0.2,0,0.2,0.1,0.2,0.2c0,0.1,0,0.2,0,0.3c0,0.5,0,0.4-0.5,0.5
		C297.5,54.6,297.4,54.5,297.4,54.2z M298.2,55c0,0.1,0,0.1-0.1,0.1c-0.2,0-0.4,0-0.6,0c-0.1,0-0.1,0-0.1-0.1c0-0.1,0-0.1,0.1-0.1
		c0.1,0,0.2,0,0.3,0c0.1,0,0.2,0,0.3,0C298.2,54.9,298.2,54.9,298.2,55z M297.4,56.1C297.4,56,297.4,56,297.4,56.1
		c0-0.6,0-0.6,0.6-0.6c0.2,0,0.2,0.1,0.2,0.2c0,0.1,0,0.2,0,0.3c0,0.5,0,0.4-0.5,0.5C297.5,56.4,297.4,56.3,297.4,56.1z M298.2,60
		c0,0.4,0,0.5-0.2,0.5c-0.1,0-0.1,0-0.2,0c-0.3,0-0.3,0-0.3-0.4c0-0.5,0-0.5,0.5-0.6c0.2,0,0.3,0,0.3,0.3
		C298.2,59.8,298.2,59.9,298.2,60z M298.2,59c0,0.1,0,0.2-0.2,0.2c-0.6,0-0.6,0-0.6-0.6c0-0.6,0-1.1,0-1.7c0-0.2,0-0.2,0.2-0.2
		c0.6,0,0.6,0,0.6,0.6c0,0.2,0,0.5,0,0.7C298.2,58.3,298.2,58.7,298.2,59z M298.2,61.3c0,0.3,0,0.3-0.4,0.3c-0.4,0-0.4,0-0.4-0.5
		c0-0.3,0.1-0.3,0.4-0.3C298.2,60.8,298.2,60.8,298.2,61.3z M298.5,55.4c0-2,0-3.9,0-5.9c0-0.2,0.1-0.2,0.3-0.2c0.2,0,0.3,0,0.3,0.2
		c0,4,0,7.9,0,11.9c0,0.2-0.1,0.2-0.3,0.2c-0.2,0-0.3,0-0.3-0.2C298.5,59.4,298.5,57.4,298.5,55.4z M300.2,53.1c0,0.2,0,0.2-0.2,0.2
		c-0.6,0-0.6,0-0.6-0.6c0-0.5,0-1,0-1.4c0-0.6,0-1.2,0-1.8c0-0.2,0-0.2,0.2-0.2c0.7,0,0.7,0,0.7,0.6C300.2,50.9,300.2,52,300.2,53.1
		z M300.2,60c0,0.5,0,0.5-0.5,0.5c-0.1,0-0.1,0-0.2,0c-0.1,0-0.2,0-0.2-0.2c0-0.1,0-0.1,0-0.2c0-0.6,0-0.6,0.6-0.6
		c0.2,0,0.3,0,0.2,0.2C300.2,59.8,300.2,59.9,300.2,60z M300.2,54c0,0.5,0,0.5-0.3,0.5c-0.5,0-0.5,0-0.5-0.5c0-0.4,0-0.4,0.4-0.4
		C300.2,53.6,300.2,53.6,300.2,54z M299.5,54.9c0.1,0,0.2,0,0.3,0c0.1,0,0.2,0,0.3,0c0.1,0,0.1,0.1,0.1,0.1c0,0.1,0,0.1-0.1,0.1
		c-0.2,0-0.4,0-0.7,0c-0.1,0-0.1-0.1-0.1-0.2C299.4,54.9,299.4,54.9,299.5,54.9z M300.2,55.9c0,0.4,0,0.4-0.4,0.4
		c-0.4,0-0.4,0-0.4-0.5c0-0.5,0-0.5,0.5-0.5C300.2,55.4,300.2,55.4,300.2,55.9z M299.6,56.7c0.6,0,0.6,0,0.6,0.6c0,0.2,0,0.4,0,0.7
		c0,0.3,0,0.7,0,1c0,0.1,0,0.2-0.2,0.2c-0.7,0-0.7,0-0.7-0.6c0-0.5,0-1.1,0-1.6C299.4,56.8,299.4,56.7,299.6,56.7z M299.6,60.8
		c0.1,0,0.1,0,0.2,0c0.3,0,0.4,0,0.4,0.2c0,0.1,0,0.1,0,0.2c0,0.1,0,0.1,0,0.2c0,0.2,0,0.3-0.2,0.2c0,0-0.1,0-0.1,0
		c-0.5,0-0.5,0-0.5-0.5C299.4,60.8,299.4,60.8,299.6,60.8z M300.6,55.4c0-1.5,0-3,0-4.4c0-0.5,0-1,0-1.5c0-0.2,0.1-0.2,0.3-0.2
		c0.2,0,0.3,0,0.3,0.2c0,4,0,7.9,0,11.9c0,0.2-0.1,0.2-0.3,0.2c-0.2,0-0.3,0-0.3-0.2c0-0.5,0-1,0-1.5
		C300.6,58.4,300.6,56.9,300.6,55.4z M302.2,53c0,0.2,0,0.3-0.3,0.3c-0.6,0-0.6,0-0.6-0.6c0-0.5,0-1,0-1.5c0-0.6,0-1.2,0-1.8
		c0-0.2,0-0.2,0.2-0.2c0.6,0,0.6,0,0.6,0.6C302.2,50.9,302.2,52,302.2,53z M302.2,53.8c0,0.1,0,0.2,0,0.3c0,0.5,0,0.5-0.4,0.5
		c-0.4,0-0.4,0-0.4-0.4c0-0.6,0-0.6,0.6-0.6C302.2,53.6,302.2,53.7,302.2,53.8z M302.2,55c0,0.1,0,0.1-0.1,0.1c-0.1,0-0.2,0-0.3,0
		c-0.1,0-0.2,0-0.3,0c-0.1,0-0.1-0.1-0.1-0.1c0-0.1,0-0.1,0.1-0.1c0.2,0,0.4,0,0.6,0C302.2,54.9,302.2,54.9,302.2,55z M301.4,56.1
		C301.4,56.1,301.4,56,301.4,56.1c0-0.6,0-0.6,0.6-0.6c0.2,0,0.3,0.1,0.2,0.3c0,0.1,0,0.1,0,0.2c0,0.5,0,0.5-0.5,0.5
		C301.4,56.4,301.4,56.3,301.4,56.1z M301.4,56.9c0-0.2,0-0.2,0.2-0.2c0.6,0,0.6,0,0.6,0.6c0,0.2,0,0.5,0,0.7c0,0.3,0,0.7,0,1
		c0,0.1,0,0.2-0.2,0.2c-0.6,0-0.6,0-0.6-0.6C301.4,58,301.4,57.5,301.4,56.9z M301.4,60.1C301.4,60.1,301.4,60.1,301.4,60.1
		c0-0.6,0-0.6,0.6-0.6c0.2,0,0.2,0,0.2,0.2c0,0.1,0,0.2,0,0.3c0,0.5,0,0.4-0.5,0.5C301.5,60.5,301.4,60.4,301.4,60.1z M302.2,61.2
		c0,0.4,0,0.4-0.5,0.4c-0.3,0-0.3,0-0.3-0.4c0-0.4,0-0.4,0.5-0.4C302.2,60.8,302.2,60.8,302.2,61.2z M303.1,55.4c0,2,0,4,0,5.9
		c0,0.3-0.1,0.2-0.3,0.3c-0.2,0-0.3-0.1-0.3-0.3c0-3.9,0-7.9,0-11.8c0-0.2,0.1-0.3,0.3-0.3c0.2,0,0.3,0.1,0.3,0.3
		C303.1,51.5,303.1,53.4,303.1,55.4z M304.2,53.1c0,0.2,0,0.2-0.2,0.2c-0.6,0-0.6,0-0.6-0.6c0-1.1,0-2.2,0-3.3c0-0.2,0-0.2,0.2-0.2
		c0.6,0,0.6,0,0.6,0.6c0,0.5,0,1,0,1.5C304.2,51.9,304.2,52.5,304.2,53.1z M303.4,56.9c0-0.1,0-0.2,0.2-0.2c0.7,0,0.7,0,0.7,0.6
		c0,0.6,0,1.1,0,1.7c0,0.1,0,0.2-0.2,0.2c-0.6,0-0.6,0-0.6-0.6c0-0.2,0-0.4,0-0.6C303.4,57.6,303.4,57.2,303.4,56.9z M304.2,55.7
		c0,0.1,0,0.1,0,0.2c0,0.5,0,0.5-0.5,0.5c-0.4,0-0.4,0-0.4-0.4c0-0.5,0-0.5,0.5-0.6C304.2,55.4,304.3,55.5,304.2,55.7z M303.4,55
		c0-0.1,0-0.1,0.1-0.1c0.1,0,0.2,0,0.3,0c0.1,0,0.2,0,0.3,0c0.1,0,0.1,0,0.1,0.1c0,0.1,0,0.1-0.1,0.1c-0.2,0-0.4,0-0.6,0
		C303.4,55.1,303.4,55.1,303.4,55z M303.4,54.3c0-0.1,0-0.1,0-0.2c0-0.5,0-0.5,0.5-0.5c0.4,0,0.4,0,0.4,0.4c0,0.5,0,0.5-0.5,0.5
		C303.4,54.6,303.3,54.5,303.4,54.3z M303.4,60.2C303.4,60.1,303.4,60.1,303.4,60.2c0-0.7,0-0.7,0.7-0.6c0.1,0,0.1,0.1,0.1,0.2
		c0,0.1,0,0.2,0,0.3c0,0.4,0,0.5-0.3,0.5c0,0-0.1,0-0.2,0C303.5,60.5,303.3,60.4,303.4,60.2z M303.4,61.1c0-0.3,0.1-0.4,0.3-0.3
		c0,0,0.1,0,0.1,0c0.3,0,0.4,0,0.4,0.2c0,0.1,0,0.1,0,0.2c0,0.4,0,0.4-0.4,0.4C303.4,61.6,303.4,61.6,303.4,61.1
		C303.4,61.2,303.4,61.1,303.4,61.1z M305.1,55.4c0,2,0,3.9,0,5.9c0,0.2-0.1,0.3-0.3,0.3c-0.2,0-0.3,0-0.3-0.3c0-4,0-7.9,0-11.9
		c0-0.2,0.1-0.3,0.3-0.3c0.2,0,0.3,0,0.3,0.3C305.1,51.5,305.1,53.4,305.1,55.4z M306.2,53.1c0,0.2,0,0.2-0.2,0.2
		c-0.6,0-0.6,0-0.6-0.6c0-1.1,0-2.1,0-3.2c0-0.2,0-0.3,0.2-0.3c0.6,0,0.6,0,0.6,0.6c0,0.5,0,1,0,1.4
		C306.2,51.9,306.2,52.5,306.2,53.1z M306.2,61.4c0,0.1,0,0.2-0.2,0.2c0,0-0.1,0-0.1,0c-0.6,0-0.6,0-0.6-0.6c0-0.2,0-0.3,0.2-0.2
		c0.1,0,0.1,0,0.2,0c0.4,0,0.4,0,0.4,0.4C306.2,61.3,306.2,61.4,306.2,61.4z M305.4,56.9c0-0.2,0.1-0.2,0.2-0.2c0.6,0,0.6,0,0.6,0.6
		c0,0.2,0,0.4,0,0.6c0,0.4,0,0.7,0,1.1c0,0.1,0,0.2-0.2,0.2c-0.7,0-0.7,0-0.7-0.6C305.4,58,305.4,57.5,305.4,56.9z M306.2,55.8
		c0,0,0,0.1,0,0.1c0,0.5,0,0.5-0.5,0.5c-0.4,0-0.4,0-0.4-0.4c0-0.6,0-0.6,0.5-0.6C306.3,55.4,306.2,55.4,306.2,55.8z M306.1,55.1
		c-0.1,0-0.2,0-0.3,0c-0.1,0-0.2,0-0.3,0c-0.1,0-0.1-0.1-0.1-0.1c0-0.1,0-0.1,0.1-0.1c0.2,0,0.4,0,0.6,0c0.1,0,0.1,0,0.1,0.1
		C306.2,55.1,306.2,55.1,306.1,55.1z M305.4,54.3c0-0.1,0-0.1,0-0.2c0-0.5,0-0.5,0.5-0.5c0.4,0,0.4,0,0.4,0.4c0,0.6,0,0.5-0.5,0.6
		C305.4,54.6,305.3,54.5,305.4,54.3z M294.2,59c0,0.1,0,0.2-0.2,0.2c-0.6,0-0.6,0-0.6-0.6c0-0.6,0-1.1,0-1.7c0-0.2,0.1-0.2,0.2-0.2
		c0.6,0,0.6,0,0.6,0.6c0,0.2,0,0.5,0,0.7C294.2,58.3,294.2,58.7,294.2,59z M294.2,61.2c0,0.2,0,0.3,0,0.3c0,0,0,0,0,0l0,0
		c0,0,0,0-0.1,0c0,0,0,0,0,0c0,0-0.1,0-0.1,0c0,0,0,0-0.1,0c-0.5,0-0.5,0-0.5-0.3c0-0.5,0-0.5,0.5-0.5c0,0,0.1,0,0.1,0
		C294.3,60.8,294.2,61,294.2,61.2z M294.2,59.8c0,0.1,0,0.1,0,0.2c0,0.5,0,0.5-0.5,0.5c-0.3,0-0.3,0-0.3-0.4c0-0.6,0-0.6,0.6-0.6
		C294.2,59.5,294.2,59.6,294.2,59.8z M306.2,67.3c0,0.1-0.1,0-0.2,0c-1,0-2,0-3,0c-1.1,0-2.1,0-3.2,0c-2.1,0-4.1,0-6.2,0
		c-0.3,0-0.2-0.1-0.3-0.3c0-0.2,0.1-0.3,0.3-0.3c4.1,0,8.2,0,12.3,0c0.1,0,0.2-0.1,0.3,0.1C306.2,67,306.2,67.2,306.2,67.3z
		 M294.2,55.7C294.2,55.8,294.2,55.8,294.2,55.7c0,0.7,0,0.6-0.6,0.7c-0.2,0-0.3-0.1-0.2-0.2c0,0,0,0,0-0.1c0-0.1,0-0.1,0-0.2
		c0-0.3,0-0.4,0.2-0.5c0.1,0,0.2,0,0.3,0C294.1,55.4,294.3,55.5,294.2,55.7z M293.4,55c0-0.1,0.1-0.1,0.1-0.1c0.2,0,0.4,0,0.6,0
		c0.1,0,0.1,0,0.1,0.1c0,0.1,0,0.1-0.1,0.1c-0.1,0-0.2,0-0.3,0c-0.1,0-0.2,0-0.3,0C293.4,55.1,293.4,55.1,293.4,55z M293.7,67.7
		c4.1,0,8.2,0,12.3,0c0.3,0,0.2,0.1,0.2,0.3c0,0.2,0,0.3-0.3,0.3c-2.1,0-4.1,0-6.2,0c-2.1,0-4.1,0-6.2,0c-0.2,0-0.3-0.1-0.3-0.3
		C293.4,67.8,293.4,67.7,293.7,67.7z M306.2,59.9c0,0,0,0.1,0,0.1c0,0.5,0,0.5-0.5,0.5c-0.4,0-0.4,0-0.4-0.4c0-0.5,0-0.5,0.5-0.5
		C306.2,59.5,306.3,59.6,306.2,59.9z M293.1,58.7C293.1,58.7,293.1,58.7,293.1,58.7c0,2.5,0,5,0,7.5c0,0.6,0,1.1,0,1.7
		c0,0.2,0,0.3-0.3,0.3c-0.2,0-0.3-0.1-0.3-0.3c0-6,0-12.1,0-18.1c0-0.1,0-0.2,0-0.3c0-0.3,0-0.3,0.3-0.3c0.2,0,0.2,0.1,0.2,0.3
		C293.1,52.6,293.1,55.7,293.1,58.7z M291.4,55.7c0-0.3,0.1-0.3,0.3-0.3c0.5,0,0.5,0,0.5,0.5c0,0.5,0,0.4-0.5,0.5
		c-0.3,0-0.4-0.1-0.3-0.3C291.5,55.9,291.5,55.8,291.4,55.7z M292.2,53.1c0,0.2,0,0.2-0.2,0.2c-0.6,0-0.6,0-0.6-0.5c0-0.5,0-1,0-1.5
		c0-0.6,0-1.2,0-1.8c0-0.2,0-0.2,0.2-0.2c0.6,0,0.6,0,0.6,0.6C292.2,50.9,292.2,52,292.2,53.1z M291.4,56.9c0-0.1,0-0.2,0.2-0.2
		c0.6,0,0.6,0,0.6,0.6c0,0.2,0,0.5,0,0.7h0c0,0.4,0,0.7,0,1.1c0,0.1,0,0.2-0.2,0.2c-0.6,0-0.6,0-0.6-0.6
		C291.4,58,291.4,57.5,291.4,56.9z M291.4,55c0-0.1,0.1-0.1,0.2-0.1c0.1,0,0.2,0,0.2,0c0.1,0,0.2,0,0.3,0c0.1,0,0.1,0,0.1,0.1
		c0,0.1,0,0.1-0.1,0.1c-0.2,0-0.4,0-0.5,0C291.5,55.1,291.4,55.1,291.4,55z M291.4,60.2c0-0.1,0-0.1,0-0.2c0-0.4,0-0.4,0.2-0.4
		c0.1,0,0.1,0,0.2,0c0.3,0,0.4,0,0.3,0.3c0,0.1,0,0.1,0,0.2c0,0.5,0,0.5-0.5,0.5C291.5,60.5,291.4,60.4,291.4,60.2z M292.2,67
		c0,0.3-0.1,0.3-0.3,0.3c-0.5,0-0.5,0-0.5-0.5c0-0.5,0-0.5,0.5-0.5c0.3,0,0.3,0.1,0.3,0.3C292.2,66.8,292.2,66.9,292.2,67z
		 M291.7,60.8c0.6,0,0.6,0,0.6,0.6c0,1.5,0,2.9,0,4.4c0,0.2,0,0.3-0.3,0.3c-0.5,0-0.5,0-0.5-0.5c0-0.7,0-1.4,0-2.1
		c0-0.8,0-1.6,0-2.3C291.4,60.9,291.5,60.8,291.7,60.8z M291.4,68.2c0-0.1,0-0.1,0-0.2c0-0.4,0-0.4,0.4-0.4c0.1,0,0.2,0,0.3,0
		c0.1,0,0.1,0,0.1,0.1c0,0.1,0,0.3,0,0.4c-0.1,0.3-0.4,0.1-0.6,0.1C291.5,68.3,291.4,68.3,291.4,68.2z M292.2,54.5
		c-0.2,0.1-0.4,0-0.6,0c-0.1,0-0.1,0-0.1-0.1c0-0.1,0-0.2,0-0.3c0-0.4,0-0.5,0.2-0.5c0.1,0,0.2,0,0.3,0c0.2,0,0.3,0,0.3,0.3
		c0,0,0,0.1,0,0.1C292.2,54.2,292.3,54.5,292.2,54.5z M290.6,60.7c0-3.7,0-7.4,0-11.1c0-0.1-0.1-0.2,0-0.3c0.1,0,0.3,0,0.4,0
		c0.1,0,0.1,0.2,0.1,0.2c0,1.8,0,3.6,0,5.4c0,1.3,0,2.6,0,3.9c0,3.1,0,6.1,0,9.2c0,0.1,0.1,0.2,0,0.3c-0.1,0-0.3,0-0.4,0
		c-0.1,0,0-0.2,0-0.2C290.6,65.5,290.6,63.1,290.6,60.7z M290.3,53.1c0,0.2-0.1,0.2-0.3,0.2c-0.6,0-0.6,0-0.6-0.6c0-0.5,0-1,0-1.4
		c0-0.6,0-1.2,0-1.8c0-0.2,0-0.2,0.2-0.2c0.6,0,0.6,0,0.6,0.6C290.3,50.9,290.3,52,290.3,53.1z M289.4,61c0-0.2,0.1-0.2,0.3-0.2
		c0.6,0,0.6,0,0.6,0.6c0,0.7,0,1.3,0,2c0,0.8,0,1.6,0,2.4c0,0.2-0.1,0.2-0.2,0.2c-0.6,0-0.6,0-0.6-0.6
		C289.4,63.9,289.4,62.5,289.4,61z M289.4,56.9c0-0.1,0-0.2,0.2-0.2c0.7,0,0.7,0,0.7,0.6c0,0.2,0,0.4,0,0.6c0,0.4,0,0.7,0,1.1
		c0,0.1,0,0.2-0.2,0.2c-0.7,0-0.7,0-0.7-0.6C289.4,58,289.4,57.5,289.4,56.9z M290.3,55.8c0,0,0,0.1,0,0.1c0,0.5,0,0.5-0.5,0.5
		c-0.4,0-0.4,0-0.4-0.4c0-0.5,0-0.5,0.5-0.5C290.2,55.4,290.3,55.5,290.3,55.8z M290.3,54.1c0,0.4,0,0.4-0.4,0.4
		c-0.4,0-0.4,0-0.4-0.4c0-0.5,0-0.5,0.5-0.5c0.3,0,0.4,0.1,0.3,0.3C290.3,54,290.3,54.1,290.3,54.1z M289.6,54.9c0.2,0,0.3,0,0.5,0
		c0.1,0,0.2,0,0.2,0.1c0,0.2-0.1,0.1-0.2,0.1c-0.1,0-0.2,0-0.3,0c-0.1,0-0.1,0-0.2,0c-0.1,0-0.2,0-0.2-0.1
		C289.4,54.9,289.5,54.9,289.6,54.9z M289.5,59.6c0.2-0.1,0.5,0,0.7,0c0.1,0,0.1,0,0.1,0.1c0,0.1,0,0.2,0,0.4c0,0.4,0,0.4-0.2,0.5
		c-0.1,0-0.2,0-0.3,0c-0.1,0-0.1,0-0.2,0c-0.1,0-0.2-0.1-0.2-0.2c0-0.1,0-0.1,0-0.2C289.4,59.9,289.3,59.6,289.5,59.6z M289.7,67.6
		c0,0,0.1,0,0.1,0c0.5,0,0.4,0,0.5,0.5c0,0.2-0.1,0.3-0.3,0.3c-0.1,0-0.1,0-0.2,0c-0.4,0-0.4,0-0.4-0.3c0,0,0-0.1,0-0.1
		C289.4,67.6,289.5,67.6,289.7,67.6z M290.3,66.7c0,0,0,0.1,0,0.1c0,0.5,0,0.5-0.4,0.5c-0.4,0-0.4,0-0.4-0.4c0-0.6,0-0.5,0.5-0.6
		C290.2,66.3,290.3,66.4,290.3,66.7z M288.6,65.6c0-2.3,0-4.6,0-6.9c0-3.1,0-6.2,0-9.2c0-0.1-0.1-0.2,0.1-0.3c0.1,0,0.3,0,0.4,0
		c0,0,0,0.1,0,0.1c0,0.1,0,0.2,0,0.3c0,6.1,0,12.2,0,18.3c0,0.3-0.2,0.4-0.5,0.3c-0.1,0-0.1-0.1-0.1-0.2
		C288.6,67.2,288.6,66.4,288.6,65.6z M287.4,54.2c0-0.2-0.1-0.5,0-0.5c0.2-0.1,0.5,0,0.7,0c0.1,0,0.1,0.1,0.1,0.1c0,0.1,0,0.2,0,0.3
		c0,0.4,0,0.4-0.2,0.5c-0.1,0-0.2,0-0.3,0c-0.1,0-0.1,0-0.2,0c-0.2,0-0.3,0-0.2-0.2C287.4,54.3,287.4,54.3,287.4,54.2z M288.3,53.1
		c0,0.2,0,0.2-0.2,0.2c-0.6,0-0.6,0-0.6-0.6c0-0.5,0-0.9,0-1.4c0-0.6,0-1.2,0-1.8c0-0.1,0-0.2,0.2-0.2c0.7,0,0.7,0,0.7,0.6
		C288.2,50.9,288.2,52,288.3,53.1z M288.3,55c0,0.1,0,0.1-0.1,0.1c-0.1,0-0.2,0-0.3,0c-0.1,0-0.2,0-0.3,0c-0.1,0-0.1,0-0.1-0.1
		c0-0.1,0-0.1,0.1-0.1c0.2,0,0.4,0,0.6,0C288.2,54.9,288.3,54.9,288.3,55z M287.4,56.2c0,0,0-0.1,0-0.1c0-0.7,0-0.6,0.6-0.6
		c0.2,0,0.2,0.1,0.2,0.2c0,0.1,0,0.2,0,0.3c0,0.3,0,0.4-0.2,0.4c-0.1,0-0.2,0-0.3,0c-0.1,0-0.1,0-0.2,0
		C287.4,56.4,287.4,56.3,287.4,56.2z M288,66c-0.6,0-0.6,0-0.6-0.6c0-0.7,0-1.3,0-2c0-0.8,0-1.6,0-2.4c0-0.2,0-0.2,0.2-0.2
		c0.6,0,0.6,0,0.6,0.6c0,1.4,0,2.9,0,4.3C288.3,66,288.2,66,288,66z M288.2,66.8c0,0.4,0,0.4-0.4,0.4c-0.4,0-0.4,0-0.4-0.4
		c0-0.5,0-0.5,0.5-0.5C288.2,66.3,288.2,66.3,288.2,66.8z M288.2,59c0,0.1,0,0.2-0.2,0.2c-0.7,0-0.7,0-0.7-0.7c0-0.5,0-1.1,0-1.6
		c0-0.1,0-0.2,0.2-0.2c0.7,0,0.7,0,0.7,0.6c0,0.2,0,0.4,0,0.6C288.2,58.3,288.2,58.7,288.2,59z M288.2,59.7c0,0.1,0,0.2,0,0.3
		c0,0.5,0,0.5-0.5,0.5c-0.1,0-0.2,0-0.2,0c-0.1,0-0.1,0-0.1-0.1c0-0.1,0-0.1,0-0.2c0-0.6,0-0.6,0.6-0.6
		C288.2,59.5,288.3,59.6,288.2,59.7z M287.7,67.6c0.1,0,0.1,0,0.2,0c0.5,0,0.5,0,0.4,0.6c0,0.1,0,0.2-0.2,0.1c-0.1,0-0.2,0-0.2,0
		c-0.5,0-0.4,0-0.5-0.5C287.4,67.6,287.5,67.6,287.7,67.6z M286.6,49.2c0.1,0,0.3,0,0.4,0c0,0,0,0.1,0,0.1c0,0.1,0,0.1,0,0.2
		c0,6.1,0,12.3,0,18.4c0,0.3-0.2,0.4-0.5,0.3c-0.1,0-0.1-0.1-0.1-0.1c0-0.1,0-0.1,0-0.2c0-3.1,0-6.1,0-9.2c0-3.1,0-6.1,0-9.2
		C286.5,49.4,286.5,49.3,286.6,49.2z M286.8,69.4c-0.2,0-0.3-0.1-0.3-0.3c0-0.5,0-0.5,0.5-0.5c8.4,0,16.8,0,25.3,0v0
		c8.5,0,17,0,25.5,0c0.2,0,0.3,0,0.3,0.3c0,0.5,0,0.5-0.5,0.5C320.7,69.4,303.8,69.4,286.8,69.4z M271.4,36c0.3-0.6,0.3-0.6,0.9-0.5
		c1.9,0.1,3.8,0.2,5.6,0.3c0,0,0.1,0,0.1,0c-0.1,0.2-0.2,0.5-0.3,0.7c0,0.1-0.1,0.1-0.2,0.1c-0.5,0-1-0.1-1.6-0.1
		c-0.1,0-0.2,0-0.3,0.2c-0.3,0.6-0.6,1.3-0.9,1.9c-0.1,0.1,0,0.2,0.1,0.3c0.4,0.4,0.7,0.7,1.1,1.1c0.1,0.1,0.1,0.2,0.1,0.3
		c-0.1,0.2-0.2,0.4-0.3,0.6c-0.9-0.9-1.7-1.8-2.6-2.7c-0.6-0.6-1.1-1.2-1.7-1.7C271.4,36.2,271.4,36.1,271.4,36z M268.9,43.2
		c0.4-1.2,0.7-2.5,1.1-3.8c0-0.2,0.1-0.2,0.2-0.1c0.5,0.1,0.5,0.1,0.4,0.6c-0.3,0.9-0.5,1.8-0.8,2.7c-0.1,0.2,0,0.2,0.2,0.3
		c0.4,0.1,0.8,0.2,1.2,0.4c0.2,0.1,0.3,0,0.4-0.2c0.2-0.9,0.5-1.8,0.8-2.7c0.1-0.2,0.1-0.2,0.3-0.2c0.4,0.1,0.4,0.1,0.3,0.6
		c-0.2,0.8-0.5,1.7-0.7,2.5c-0.1,0.2,0,0.2,0.1,0.3c0.5,0.1,1,0.3,1.5,0.4c0.2,0,0.2,0,0.3-0.2c0.3-1,0.6-2,0.9-3.1
		c0.1-0.2,0.1-0.2,0.3-0.2c0.1,0,0.2,0.1,0.3,0.1c0.1,0,0.1,0.1,0.1,0.2c-0.2,0.7-0.4,1.4-0.6,2.1c-0.2,0.6-0.4,1.2-0.5,1.8
		c0,0.2-0.1,0.2-0.2,0.1c-1.8-0.5-3.6-1-5.3-1.5C268.9,43.5,268.9,43.4,268.9,43.2z M267.8,48.5c0.2-1.3,0.5-2.6,0.7-3.9
		c0-0.2,0.1-0.3,0.3-0.2c0.4,0.1,0.4,0.1,0.3,0.5c-0.1,0.4-0.2,0.9-0.3,1.3c0,0.2,0,0.2,0.2,0.3c0.9,0.2,1.9,0.4,2.8,0.5
		c0.6,0.1,1.3,0.3,1.9,0.4c0.1,0,0.2,0.1,0.2,0.2c0,0.1-0.1,0.3-0.1,0.4c0,0.1,0,0.2-0.1,0.1c-0.9-0.2-1.8-0.3-2.7-0.5
		c-0.7-0.1-1.5-0.3-2.2-0.4c-0.1,0-0.2,0-0.2,0.1c-0.1,0.5-0.2,1-0.3,1.5c0,0.2-0.1,0.2-0.3,0.2C267.7,49,267.7,49,267.8,48.5z
		 M268.2,51.4c1.7-0.6,3.5-1.3,5.2-1.9c0.2-0.1,0.2,0,0.2,0.2c0,0.6,0,0.6-0.6,0.8c-0.3,0.1-0.7,0.2-1,0.4c-0.1,0-0.2,0.1-0.2,0.3
		c0,0.7,0,1.4-0.1,2.1c0,0.2,0,0.2,0.2,0.3c0.5,0.2,0.9,0.4,1.4,0.6c0.1,0,0.2,0.1,0.2,0.2c0,0.2,0,0.4,0,0.7
		c-1.1-0.5-2.1-0.9-3.2-1.4c-0.8-0.3-1.6-0.7-2.5-1c-0.1-0.1-0.2-0.1-0.2-0.3C267.6,51.7,267.6,51.7,268.2,51.4z M267.7,58.9
		c-0.1-1.3-0.2-2.7-0.3-4c0-0.2,0.1-0.3,0.3-0.3c0.4,0,0.4,0,0.5,0.4c0,0.4,0.1,0.9,0.1,1.3c0,0.2,0.1,0.2,0.2,0.2
		c1.6-0.1,3.2-0.2,4.7-0.4c0.2,0,0.3,0,0.3,0.2c0,0.1,0,0.1,0,0.3c0.1,0.3-0.1,0.3-0.3,0.3c-1.3,0.1-2.7,0.2-4,0.3
		c-0.2,0-0.3,0.1-0.5,0c-0.3,0-0.3,0.1-0.3,0.4c0,0.5,0.1,0.9,0.1,1.4c0,0.2,0,0.2-0.2,0.2C267.8,59.3,267.8,59.3,267.7,58.9z
		 M268.1,60.7c-0.1-0.6-0.1-0.6,0.5-0.6c1.5-0.2,3-0.4,4.5-0.6c0.2,0,0.5-0.1,0.7-0.1c0.1,0,0.1,0,0.1,0.2c0.1,0.6,0.1,0.6-0.6,0.7
		c-1.4,0.2-2.7,0.3-4.1,0.5c-0.3,0-0.7,0.1-1,0.1C268.1,60.9,268.1,60.8,268.1,60.7z M269.3,65.9c-0.6-0.7-0.8-1.6-0.6-2.6
		c0.1-0.6,0.5-0.9,1.1-1.1c0.1,0,0.2,0,0.2,0.1c0,0.1,0,0.1,0,0.1c0.1,0.3,0.1,0.4-0.2,0.6c-0.3,0.2-0.5,0.5-0.5,0.9
		c0,0.5,0.1,0.9,0.4,1.3c0.2,0.3,0.5,0.5,0.9,0.4c0.3-0.1,0.5-0.3,0.6-0.7c0.1-0.7,0-1.3,0.1-2c0.1-1.1,0.8-1.7,1.8-1.6
		c0.6,0.1,1,0.4,1.3,1c0.3,0.5,0.4,1.1,0.4,1.5c0,1.1-0.5,1.8-1.3,2.1c-0.2,0.1-0.2,0-0.3-0.1c0-0.2-0.2-0.3-0.1-0.5
		c0-0.2,0.2-0.2,0.4-0.2c0.4-0.2,0.5-0.6,0.6-0.9c0.1-0.6,0-1.2-0.4-1.7c-0.2-0.3-0.6-0.5-1-0.4c-0.4,0.1-0.6,0.4-0.6,0.7
		c-0.1,0.6,0,1.2-0.1,1.8c0,0.2,0,0.4-0.1,0.6c-0.2,0.5-0.5,0.9-1.1,1C270.2,66.5,269.7,66.3,269.3,65.9z M271.7,72.7
		c-0.1,0-0.2,0.1-0.3-0.1c-0.4-1-0.8-1.9-1.1-2.9c-0.3-1.1,0.2-1.9,1.3-2.1c0.6-0.1,1.1,0.2,1.5,0.7c0.1,0.1,0.1,0.2,0.2,0.3
		c0.2-1.2,1.2-2,1.8-2.9c0.1,0.3,0.2,0.6,0.3,0.9c0.1,0.1,0,0.2-0.1,0.3c-0.4,0.6-0.8,1.1-1.2,1.7c-0.3,0.5-0.4,1-0.2,1.5
		c0.1,0.2,0.2,0.4,0.2,0.6c0,0.2,0.1,0.2,0.3,0.1c0.7-0.3,1.4-0.5,2-0.8c0.2-0.1,0.3,0,0.3,0.1c0.2,0.5,0.2,0.5-0.3,0.7
		C274.9,71.5,273.3,72.1,271.7,72.7z M274.2,77.9c-0.6-1.1-1.2-2.3-1.9-3.4c-0.1-0.1-0.1-0.2,0.1-0.3c0.4-0.2,0.4-0.2,0.7,0.2
		c0.5,0.8,0.9,1.6,1.4,2.5c0.1,0.1,0.1,0.2,0.3,0.1c0.4-0.2,0.8-0.5,1.2-0.7c0.2-0.1,0.2-0.2,0.1-0.3c-0.5-0.8-0.9-1.6-1.4-2.5
		c-0.1-0.2-0.1-0.2,0.1-0.3c0.4-0.2,0.4-0.2,0.6,0.2c0.4,0.8,0.9,1.5,1.3,2.3c0.1,0.1,0.1,0.1,0.3,0.1c0.5-0.3,1-0.5,1.4-0.8
		c0,0,0.1-0.1,0.1-0.1c0-0.1-0.1-0.1-0.1-0.2c-0.5-0.9-1-1.8-1.5-2.8c-0.1-0.2-0.1-0.2,0.1-0.3c0.4-0.2,0.4-0.2,0.6,0.2
		c0.6,1.1,1.2,2.2,1.8,3.3c0.1,0.2,0.1,0.2-0.1,0.3c-1.6,0.9-3.2,1.8-4.8,2.7C274.3,78,274.3,78,274.2,77.9z M278.4,83.3
		c0,0.1-0.1,0.1-0.1,0.2c-0.2-0.2-0.3-0.4-0.4-0.6c-0.1-0.1,0-0.2,0-0.3c0.9-1.4,1.8-2.9,2.8-4.3c0,0,0.1-0.1,0.1-0.2
		c-0.9,0.3-1.8,0.6-2.7,0.9c-0.8,0.2-1.5,0.5-2.3,0.7c-0.2,0.1-0.3,0-0.4-0.1c-0.1-0.2-0.2-0.3-0.3-0.5c0.9-0.3,1.8-0.5,2.6-0.8
		c1.1-0.3,2.2-0.6,3.3-1c0.2,0,0.2,0,0.3,0.1c0.4,0.5,0.4,0.5,0.1,1C280.3,80.1,279.3,81.7,278.4,83.3z M279.1,84.3
		c-0.4-0.4-0.4-0.4,0.1-0.8c1.3-1.1,2.6-2.2,4-3.3c0.1-0.1,0.2-0.1,0.3,0c0.1,0.1,0.2,0.2,0.3,0.4c0,0,0,0.1,0.1,0.1
		c0,0-0.1,0.1-0.1,0.1c-1.4,1.2-2.8,2.4-4.3,3.6C279.3,84.5,279.2,84.5,279.1,84.3z M283.6,88.9c-0.3-0.3-0.4-0.5-0.3-0.9
		c0.3-1.5,0.6-3.1,0.8-4.6c0-0.1,0-0.2,0-0.3c-0.7,0.7-1.4,1.4-2,2.1c-0.4,0.4-0.7,0.7-1,1.1c-0.1,0.1-0.1,0.1-0.2,0
		c-0.4-0.4-0.4-0.4,0-0.8c1.2-1.2,2.4-2.5,3.6-3.7c0.1-0.1,0.2-0.1,0.3,0c0.4,0.3,0.4,0.6,0.3,1c-0.3,1.6-0.6,3.2-0.9,4.8
		c0,0,0,0,0,0.1c0.1,0,0.1-0.1,0.2-0.1c1-1,1.9-2,2.9-3c0.1-0.1,0.2-0.1,0.3,0c0.4,0.4,0.4,0.4,0,0.7c-1.2,1.2-2.4,2.5-3.6,3.7
		C283.8,89,283.8,89,283.6,88.9z M291.3,89.8c-0.7,1-1.4,1.9-2.1,2.9c-0.1,0.1-0.1,0.1-0.3,0c-0.5-0.4-0.5-0.3-0.1-0.8
		c0.6-0.8,1.2-1.6,1.8-2.5c0-0.1,0.1-0.1,0.1-0.2c0.7-1.1,0.1-2.3-1.3-2.5c-0.3,0-0.5,0.1-0.7,0.2c-0.3,0.2-0.6,0.6-0.8,0.9
		c-0.6,0.8-1.2,1.6-1.8,2.5c-0.1,0.1-0.2,0.2-0.3,0.1c-0.4-0.3-0.5-0.3-0.1-0.8c0.6-0.9,1.3-1.8,1.9-2.6c0.4-0.5,0.8-0.9,1.4-1
		c0.3,0,0.6,0,0.9,0.1c0.8,0.3,1.4,0.7,1.8,1.4c0.1,0.2,0.2,0.5,0.2,0.8C291.8,88.9,291.6,89.3,291.3,89.8z M306.5,92.5
		c-0.3,1.4-0.5,2.8-0.8,4.1c-0.1,0.6-0.2,1.1-0.3,1.7c0,0.1-0.1,0.2-0.2,0.1c-0.4-0.1-0.9-0.2-1.3-0.3c-0.2,0-0.2-0.1-0.2-0.3
		c0.2-1.2,0.5-2.4,0.7-3.6c0-0.1,0-0.1,0-0.2c-0.4,0.2-0.8,0.3-1.3,0.4c-0.7,0.1-0.6,0.2-0.6-0.5c0.1-0.6,0.3-0.8,0.9-0.9
		c0.6-0.1,1.2-0.4,1.6-1c0.1-0.1,0.2-0.1,0.3-0.1c0.3,0.1,0.7,0.1,1,0.2C306.5,92.3,306.6,92.4,306.5,92.5z M304.7,86.9
		c-0.7,0-1.4,0-2.2-0.1c-1.4-0.2-2.2-1.1-2.5-2.5c-0.1-0.4-0.1-0.7-0.1-1.1c0-1.5,0-3,0-4.4c0-0.2,0.1-0.3,0.2-0.2
		c0.6,0,1.2,0,1.8,0c0.2,0,0.3,0,0.3,0.3c0,1.6,0,3.1,0,4.7c0,0.2,0,0.5,0.1,0.7c0.2,0.7,0.9,1.1,1.6,1.1c0.9-0.1,1.5-0.6,1.5-1.6
		c0-0.8,0-1.6,0-2.4c0,0,0,0,0,0c0-0.8,0-1.7,0-2.5c0-0.2,0.1-0.2,0.3-0.2c0.6,0,1.2,0,1.9,0c0.1,0,0.2,0,0.2,0.2c0,1.7,0,3.4,0,5
		C307.6,85.4,306.6,86.8,304.7,86.9z M312.4,96.9c0.3,1-0.4,2.1-1.5,2.2c-0.8,0.1-1.5,0.1-2.3-0.2c-1.1-0.4-1.6-1.5-1.1-2.6
		c0.2-0.3,0.4-0.5,1-0.8c-0.5-0.4-0.8-0.9-0.7-1.5c0.1-0.7,0.7-1.1,1.4-1.3c0.8-0.2,1.7-0.1,2.4,0.3c0.9,0.5,1.2,1.6,0.5,2.3
		c-0.1,0.2-0.3,0.3-0.5,0.4C311.9,96.1,312.2,96.4,312.4,96.9z M312.3,83.6c-0.2,0-0.3,0-0.3,0.3c0,0.9,0,1.8,0,2.7
		c0,0.2-0.1,0.3-0.3,0.3c-0.6,0-1.2,0-1.8,0c-0.2,0-0.2,0-0.2-0.2c0-1.3,0-2.6,0-3.9c0-1.3,0-2.6,0-3.8c0-0.2,0-0.3,0.3-0.3
		c1.4,0,2.8,0,4.3,0c1.9,0.1,2.5,1.3,2.3,2.8c-0.2,1.4-1.1,2.1-2.5,2.2C313.5,83.6,312.9,83.6,312.3,83.6z M316.7,99
		c-0.4,0-0.9,0.1-1.3,0.1c-0.2,0-0.2,0-0.2-0.2c-0.1-1.2-0.2-2.4-0.3-3.6c0-0.1,0-0.2,0-0.3c-0.5,0.5-1.1,0.8-1.7,1
		c0-0.4-0.1-0.9-0.1-1.3c0-0.2,0.1-0.2,0.2-0.2c0.6-0.3,1.1-0.6,1.4-1.1c0.1-0.1,0.2-0.2,0.2-0.3c0.1-0.2,0.2-0.3,0.5-0.3
		c0.3,0,0.6,0,0.9-0.1c0.2,0,0.2,0,0.3,0.2c0.1,0.9,0.2,1.7,0.2,2.6c0.1,1.1,0.2,2.2,0.3,3.3C316.9,98.9,316.8,98.9,316.7,99z
		 M322.7,97.9c-0.4,0.3-0.9,0.4-1.4,0.5c-0.5,0.1-1.1,0.2-1.7,0c-1.1-0.3-1.7-1.9-0.9-2.7c0.1-0.1,0.2-0.2,0.4-0.4
		c-0.5-0.2-0.9-0.5-1-1c-0.2-0.7,0.1-1.3,0.7-1.7c0.8-0.5,1.7-0.7,2.7-0.5c1.2,0.3,1.6,1.5,0.8,2.5c0,0-0.1,0.1-0.1,0.1
		c0,0.1,0.1,0.1,0.2,0.1c0.6,0.2,1,0.7,1.1,1.4C323.5,96.9,323.3,97.4,322.7,97.9z M324.9,86.2c-0.4,0.3-0.8,0.3-1.2,0.4
		c-0.6,0.1-1.2,0.1-1.8,0.1c-1.1,0-2.3,0-3.4,0c-0.2,0-0.3,0-0.3-0.2c0-2.6,0-5.2,0-7.8c0-0.1,0-0.2,0.2-0.2c1.7,0,3.3,0,5,0
		c0.9,0,1.6,0.6,1.9,1.3c0.3,1-0.1,2-1.1,2.3c-0.2,0.1-0.3,0.1-0.6,0.2c0.3,0.1,0.5,0.1,0.7,0.2c0.8,0.2,1.3,0.7,1.4,1.5
		C325.9,84.9,325.6,85.7,324.9,86.2z M339,90.2c-0.4,0.3-0.4,0.3-0.6-0.1c-1-1.3-1.9-2.6-2.9-4c-0.1-0.2-0.1-0.2,0.1-0.4
		c0.4-0.3,0.4-0.3,0.7,0.1c1,1.3,1.9,2.6,2.9,3.9c0,0.1,0.1,0.1,0.1,0.2C339.2,90.1,339.1,90.2,339,90.2z M343.4,86.7
		c-1,0.9-2.1,1.8-3.1,2.7c-0.1,0.1-0.1,0.1-0.2,0c-0.4-0.4-0.4-0.4,0-0.7c0.3-0.3,0.6-0.5,0.9-0.8c0.1-0.1,0.1-0.2,0-0.3
		c-1-1.1-2-2.2-2.9-3.4c-0.1-0.2-0.1-0.2,0-0.4c0.4-0.3,0.4-0.3,0.7,0.1c0.9,1.1,1.9,2.1,2.8,3.2c0.1,0.1,0.2,0.1,0.3,0
		c0.4-0.3,0.7-0.6,1.1-0.9c0.1-0.1,0.2-0.1,0.3,0c0.1,0.1,0.2,0.2,0.3,0.3C343.5,86.6,343.4,86.7,343.4,86.7z M346.6,82.7
		c-0.1,1-1.1,2-2,2.1c-0.4,0.1-0.8,0-1.1-0.3c-0.1-0.1-0.1-0.1,0-0.2c0,0,0-0.1,0.1-0.1c0.2-0.3,0.2-0.3,0.6-0.2
		c0.3,0.1,0.6,0.1,0.9-0.1c0.4-0.3,0.7-0.6,0.9-1c0.1-0.4,0.1-0.7-0.2-0.9c-0.2-0.2-0.5-0.2-0.9,0c-0.4,0.2-0.8,0.6-1.2,0.8
		c-0.2,0.2-0.5,0.3-0.7,0.4c-1,0.4-2-0.4-2-1.4c0-0.5,0.2-0.9,0.5-1.3c0-0.1,0.1-0.1,0.1-0.2c-0.1-0.1-0.2,0-0.2,0
		c-0.2,0.1-0.4,0.2-0.7,0c-0.2-0.2-0.3-0.4-0.2-0.7c0.1-0.4,0.4-0.7,0.7-1c0.1-0.1,0.2,0,0.2,0.1c0.1,0.1,0.2,0.1,0.1,0.3
		c-0.1,0.1-0.3,0.3-0.4,0.5c-0.1,0.1-0.1,0.3,0,0.4c0.1,0.1,0.3,0,0.3-0.1c0.2-0.2,0.3-0.2,0.4,0.1c0.1,0.2,0.2,0.1,0.3,0
		c0.8-0.6,1.5-0.7,2.3-0.3c0.2,0.1,0.2,0.2,0.1,0.4c0,0,0,0,0,0c-0.1,0.2-0.3,0.4-0.6,0.2c-0.3-0.2-0.7-0.1-1,0
		c-0.6,0.3-1,0.7-1.2,1.4c-0.1,0.3,0,0.7,0.3,0.9c0.3,0.2,0.6,0.2,0.9,0c0.5-0.2,0.9-0.6,1.3-0.9c0.2-0.2,0.5-0.3,0.8-0.4
		C345.8,80.9,346.7,81.7,346.6,82.7z M350.3,78.3c-0.7,1-1.4,2-2.1,3c-0.1,0.1-0.2,0.1-0.3,0.1c-0.4-0.3-0.4-0.3-0.1-0.6
		c0.5-0.7,1-1.4,1.5-2.2c0.1-0.2,0.1-0.3-0.1-0.4c-0.3-0.2-0.7-0.5-1-0.7c0,0-0.1-0.1-0.1-0.1c-0.1,0-0.1,0.1-0.1,0.1
		c-0.5,0.7-1,1.4-1.5,2.1c-0.1,0.2-0.2,0.3-0.4,0.1c0,0-0.1-0.1-0.1-0.1c-0.2-0.1-0.2-0.2-0.1-0.3c0.5-0.7,1-1.4,1.5-2.1
		c0.1-0.2,0.1-0.3-0.1-0.4c-0.4-0.2-0.8-0.5-1.1-0.8c-0.2-0.1-0.2-0.1-0.3,0.1c-0.5,0.8-1.1,1.6-1.7,2.4c-0.1,0.2-0.2,0.3-0.4,0.1
		c-0.1-0.1-0.1-0.1-0.2-0.1c-0.1-0.1-0.1-0.1,0-0.2c0.7-1.1,1.5-2.1,2.2-3.2c0.1-0.1,0.1-0.1,0.2,0c1.4,1,2.9,2,4.3,3
		C350.4,78.1,350.4,78.1,350.3,78.3z M353.3,72.8c-0.5,0.8-0.8,1.7-1.4,2.6c-0.6,1-2.1,0.9-2.6-0.1c-0.2-0.3-0.2-0.7-0.1-1
		c0-0.1,0-0.2,0-0.3c0,0,0-0.1,0-0.1c0,0,0,0-0.1,0c-0.6,0.4-1.3,0.4-2,0.5c-0.3,0-0.7,0.1-1,0.1c0.1-0.3,0.3-0.5,0.4-0.8
		c0.1-0.1,0.2-0.1,0.3-0.1c0.7-0.1,1.4-0.1,2.1-0.3c0.4-0.1,0.7-0.3,0.9-0.7c0.1-0.2,0.2-0.4,0.3-0.6c0.1-0.1,0-0.2-0.1-0.3
		c-0.6-0.3-1.2-0.6-1.8-0.9c-0.2-0.1-0.2-0.1-0.1-0.3c0.2-0.5,0.2-0.5,0.7-0.2c1.4,0.7,2.9,1.5,4.3,2.2
		C353.3,72.6,353.4,72.6,353.3,72.8z M355.5,66.9c-0.2,0.5-0.2,0.5-0.7,0.3c-1-0.3-2-0.7-3-0.9c-1-0.3-1.5,0.1-1.8,1.1
		c0,0.1,0,0.2-0.1,0.3c-0.1,0.5,0.1,0.9,0.5,1.1c0.4,0.3,0.9,0.4,1.3,0.5c0.8,0.3,1.6,0.5,2.4,0.8c0.2,0.1,0.2,0.1,0.1,0.3
		c-0.2,0.5-0.2,0.5-0.7,0.3c-1-0.4-2.1-0.6-3.1-1.1c-1.1-0.5-1.5-1.3-1.2-2.5c0.1-0.4,0.2-0.7,0.5-1c0.4-0.5,0.8-0.7,1.5-0.7
		c0.4,0,0.8,0.1,1.2,0.3c0.9,0.3,1.9,0.6,2.8,0.9C355.5,66.6,355.6,66.7,355.5,66.9z M355.1,64.7c-0.6,0.2-0.6,0.2-0.6-0.4
		c0-0.2,0-0.3,0.2-0.3c0.7-0.1,1.1-0.5,1.2-1.2c0.1-0.7,0-1.3-0.6-1.7c-0.8-0.6-1.7-0.7-2.7-0.5c-0.7,0.2-1.1,0.8-1.2,1.5
		c-0.1,0.6,0.3,1.2,0.9,1.5c0.2,0.1,0.2,0.2,0.1,0.4c-0.2,0.5-0.2,0.5-0.7,0.2c-0.8-0.5-1.1-1.3-1-2.2c0.1-0.9,0.5-1.7,1.4-2
		c0.4-0.2,0.8-0.2,1.4-0.2c0.9,0,1.8,0.3,2.5,1.1C356.9,61.9,356.7,64.1,355.1,64.7z M356.8,55.2c-0.9-0.1-1.7-0.1-2.6-0.2
		c-0.2,0-0.3,0-0.5,0c-1.3,0-1.9,1.1-1.4,2.2c0.2,0.5,0.7,0.6,1.2,0.6c1.1,0.1,2.2,0.2,3.3,0.3c0.2,0,0.3,0.1,0.3,0.3
		c0,0.5,0,0.5-0.5,0.5c-1.1-0.1-2.1-0.1-3.2-0.2c-1.5-0.2-2-1.1-1.9-2.4c0-0.3,0.1-0.6,0.2-0.9c0.3-0.6,0.8-1,1.5-1
		c0.2,0,0.5,0,0.7,0c0,0,0,0,0,0c1.1,0.1,2.2,0.2,3.3,0.2c0.2,0,0.2,0,0.2,0.2C357.4,55.2,357.4,55.2,356.8,55.2z"/>
	<path class="st0" d="M339.6,23c0.3,0.3,0.7,0.6,1,0.8c0.3-0.7,0.6-1.3,0.8-2c0,0,0,0,0,0C340.8,22.2,340.3,22.6,339.6,23z"/>
	<path class="st0" d="M284,21.4C284,21.4,284,21.4,284,21.4c-0.5,0.1-0.7,0.4-1,0.6c-0.1,0,0,0.1,0,0.1c0.2,0.3,0.5,0.5,0.7,0.8
		c0,0,0.1,0.1,0.1,0c0.2-0.2,0.5-0.4,0.7-0.7C284.8,21.9,284.5,21.4,284,21.4z"/>
	<path class="st0" d="M290.4,17.5c-0.4-0.3-0.9-0.3-1.3,0c-0.4,0.3-0.6,0.7-0.5,1.2c0.2,0.6,0.5,1.1,0.9,1.5
		c0.2,0.2,0.5,0.3,0.7,0.3c0.7,0,1.4-0.6,1.2-1.3C291.3,18.6,291,18,290.4,17.5z"/>
	<path class="st0" d="M322.4,83.2c-0.6,0-1.1,0-1.7,0c-0.1,0-0.2,0.1-0.2,0.2c0,0.3,0,0.6,0,0.8c0,0.3,0,0.6,0,0.9
		c0,0.1,0,0.2,0.1,0.2c0.6,0,1.2,0,1.9,0c0.5-0.1,0.8-0.4,0.9-0.8C323.6,83.7,323.2,83.3,322.4,83.2z"/>
	<path class="st0" d="M314.4,81c0-0.5-0.3-0.9-0.8-1c-0.5-0.1-0.9,0-1.4-0.1c-0.1,0-0.1,0.1-0.1,0.2c0,0.3,0,0.6,0,0.9
		c0,0.3,0,0.6,0,0.9c0,0.1,0,0.2,0.1,0.2c0.5,0,1,0.1,1.5-0.1C314.1,81.9,314.4,81.5,314.4,81z"/>
	<path class="st0" d="M320.6,80.9c0,0.3,0,0.5,0,0.8c0,0.1,0,0.2,0.2,0.2c0.5,0,1,0,1.5,0c0.6-0.1,0.9-0.4,0.9-1
		c0-0.5-0.4-0.9-0.9-0.9c-0.5,0-1,0-1.4,0c-0.1,0-0.2,0-0.2,0.2C320.6,80.4,320.6,80.6,320.6,80.9z"/>
</g>
<g>
	<path class="st1" d="M29.4,53.1l16.5-41.7v15.1v45.3l7-18.8h28.4l-23.8,6.1l-5.3,11.4c-1.2,0.7-2.4,1.3-3.8,1.7
		c-3,1-6.1,1.1-8.6,0.7V41.8l-5.8,17.4c-11.4,0-22.7,0-34.1,0L29.4,53.1L29.4,53.1z M44.2,87.9l-4.3,9.2v-9.3
		C41.3,87.9,42.7,87.9,44.2,87.9L44.2,87.9z"/>
	<g>
		<path class="st1" d="M42.7,74.6c-9,0-16.6-5.5-19.4-14H11c3,15.2,16.1,25.8,31.8,25.8c9.4,0,17.9-3.9,24.1-11L58.4,67
			C54.6,71.8,48.8,74.6,42.7,74.6z"/>
		<path class="st1" d="M58.4,41.5l8.4-8.4c-5-5.7-12.1-9.6-19.5-10.7v12.1C51.7,35.5,55.6,38,58.4,41.5z"/>
		<path class="st1" d="M10.4,55.6l11.9-2.5c0.3-3.8,1-6.8,3.5-10.5c2-2.8,4.6-5.1,7.7-6.7c0.5-0.2,1-0.5,1.4-0.6l5.2-13.3
			c-7.7,0.6-14.9,3.9-20.4,9.3C13.4,37.8,10,46.6,10.4,55.6z"/>
	</g>
	<g>
		<path class="st1" d="M85.1,33.1h7.3v1h-6.2v5h5.2v1h-5.2v5.1h-1.1V33.1z"/>
		<path class="st1" d="M95.5,33.1H98l3.4,12.1h-1.1l-1-3.3H94l-1,3.3H92L95.5,33.1z M94.3,40.9h4.8l-1.9-6.8h-0.9L94.3,40.9z"/>
		<path class="st1" d="M109.5,45c0,0-1.9,0.4-3.3,0.4c-3.6,0-4.4-2.3-4.4-6.2c0-4,0.8-6.3,4.4-6.3c1.6,0,3.3,0.4,3.3,0.4l-0.1,1
			c0,0-1.8-0.3-3.1-0.3c-2.9,0-3.4,1.9-3.4,5.3c0,3.3,0.5,5.2,3.4,5.2c1.1,0,3.1-0.3,3.1-0.3L109.5,45z"/>
		<path class="st1" d="M115.4,44.4c2,0,3.1-0.7,3.1-2.7v-8.6h1.1v8.6c0,2.7-1.5,3.7-4.2,3.7c-2.6,0-4.1-1-4.1-3.7v-8.6h1.1v8.6
			C112.4,43.7,113.6,44.4,115.4,44.4z"/>
		<path class="st1" d="M122,45.2V33.1h1.1v11.1h5.5v1H122z"/>
		<path class="st1" d="M127.6,33.1h8.7v1h-3.8v11.1h-1.1V34.1h-3.9V33.1z"/>
		<path class="st1" d="M142,45.2h-1.1V40l-3.9-6.9h1.2l3.2,5.7l3.2-5.7h1.2L142,40V45.2z"/>
		<path class="st1" d="M150.6,39.2c0-4,1-6.3,4.7-6.3c3.7,0,4.7,2.3,4.7,6.3c0,4.2-1,6.2-4.7,6.2C151.6,45.4,150.6,43.3,150.6,39.2z
			 M158.9,39.2c0-3.4-0.7-5.3-3.6-5.3c-3,0-3.6,1.9-3.6,5.3c0,3.4,0.6,5.2,3.6,5.2C158.3,44.4,158.9,42.7,158.9,39.2z"/>
		<path class="st1" d="M162.3,33.1h7.3v1h-6.2v5h5.2v1h-5.2v5.1h-1.1V33.1z"/>
		<path class="st1" d="M86.5,48.3h4.6l2.6,12h-2.4l-0.5-2h-4l-0.5,2h-2.4L86.5,48.3z M87.2,56h3.1l-1.1-5.5h-0.8L87.2,56z"/>
		<path class="st1" d="M98.5,58.1c1.2,0,2.1-0.4,2.1-1.8v-8h2.4v8c0,3-1.6,4.2-4.5,4.2c-3,0-4.5-1.2-4.5-4.2v-8h2.4v8
			C96.4,57.7,97.3,58.1,98.5,58.1z"/>
		<path class="st1" d="M103.6,48.3h8.7v2.3h-3.1v9.7h-2.4v-9.7h-3.2V48.3z"/>
		<path class="st1" d="M112.5,54.4c0-4,1.2-6.3,4.9-6.3c3.7,0,4.9,2.3,4.9,6.3c0,4-1.2,6.1-4.9,6.1
			C113.6,60.5,112.5,58.5,112.5,54.4z M119.8,54.4c0-2.6-0.5-4-2.4-4c-2,0-2.4,1.4-2.4,4c0,2.6,0.5,3.8,2.4,3.8
			C119.3,58.2,119.8,57,119.8,54.4z"/>
		<path class="st1" d="M123.9,48.3h3.8L130,57l2.4-8.6h3.8v12h-2.4v-9h-0.3l-2.3,8.5h-2.4l-2.3-8.5h-0.3v9h-2.4V48.3z"/>
		<path class="st1" d="M140.1,48.3h4.6l2.6,12h-2.4l-0.5-2h-4l-0.5,2h-2.4L140.1,48.3z M140.8,56h3.1l-1.1-5.5h-0.8L140.8,56z"/>
		<path class="st1" d="M146.7,48.3h8.7v2.3h-3.1v9.7h-2.4v-9.7h-3.2V48.3z"/>
		<path class="st1" d="M156.2,48.3h2.4v12h-2.4V48.3z"/>
		<path class="st1" d="M168.1,60.1c0,0-2.1,0.5-3.4,0.5c-3.7,0-4.5-2-4.5-6.2c0-4.5,1.2-6.2,4.5-6.2c1.5,0,3.5,0.5,3.5,0.5l-0.1,2.1
			c0,0-2.1-0.2-3-0.2c-1.8,0-2.4,0.7-2.4,3.9c0,3,0.4,3.9,2.5,3.9c0.9,0,3-0.3,3-0.3L168.1,60.1z"/>
		<path class="st1" d="M180.8,60.1c0,0-2.1,0.5-3.4,0.5c-3.7,0-4.5-2-4.5-6.2c0-4.5,1.2-6.2,4.5-6.2c1.5,0,3.5,0.5,3.5,0.5l-0.1,2.1
			c0,0-2.1-0.2-3-0.2c-1.8,0-2.4,0.7-2.4,3.9c0,3,0.4,3.9,2.5,3.9c0.9,0,3-0.3,3-0.3L180.8,60.1z"/>
		<path class="st1" d="M181.8,54.4c0-4,1.2-6.3,4.9-6.3c3.7,0,4.9,2.3,4.9,6.3c0,4-1.2,6.1-4.9,6.1C183,60.5,181.8,58.5,181.8,54.4z
			 M189.2,54.4c0-2.6-0.5-4-2.4-4c-1.9,0-2.4,1.4-2.4,4c0,2.6,0.5,3.8,2.4,3.8C188.7,58.2,189.2,57,189.2,54.4z"/>
		<path class="st1" d="M193.2,48.3h3.8l3.3,9h0.3v-9h2.4v12h-3.7l-3.5-9h-0.3v9h-2.4V48.3z"/>
		<path class="st1" d="M203.7,48.3h8.7v2.3h-3.1v9.7h-2.4v-9.7h-3.2V48.3z"/>
		<path class="st1" d="M217.6,56.5h-2.1v3.9h-2.4v-12h4.6c2.8,0,4.2,1.2,4.2,4c0,1.8-0.7,2.8-1.7,3.4l1.7,4.6h-2.6l-1.4-3.9H217.6z
			 M217.7,50.6h-2.2v3.6h2.2c1.2,0,1.7-0.8,1.7-1.8C219.4,51.2,218.8,50.6,217.7,50.6z"/>
		<path class="st1" d="M222.6,54.4c0-4,1.2-6.3,4.9-6.3c3.7,0,4.9,2.3,4.9,6.3c0,4-1.2,6.1-4.9,6.1
			C223.8,60.5,222.6,58.5,222.6,54.4z M229.9,54.4c0-2.6-0.5-4-2.4-4c-2,0-2.4,1.4-2.4,4c0,2.6,0.5,3.8,2.4,3.8
			C229.4,58.2,229.9,57,229.9,54.4z"/>
		<path class="st1" d="M234,60.3v-12h2.4V58h4.3v2.3H234z"/>
		<path class="st1" d="M87.5,63.3H90l3.4,12.1h-1.1l-1-3.3h-5.3l-1,3.3H84L87.5,63.3z M86.3,71.1h4.8l-1.9-6.8h-0.9L86.3,71.1z"/>
		<path class="st1" d="M95,63.3H97l5.2,10.9h0.4V63.3h1.1v12.1h-2l-5.2-10.9H96v10.9H95V63.3z"/>
		<path class="st1" d="M105.9,75.4V63.3h4.4c3.3,0,4.3,2.6,4.3,5.9c0,3.3-1,6.3-4.3,6.3H105.9z M110.3,64.3H107v10.1h3.3
			c2.5,0,3.2-2.7,3.2-5.2C113.5,66.6,112.9,64.3,110.3,64.3z"/>
		<path class="st1" d="M128.3,75.2c0,0-2.1,0.5-3.5,0.5c-3.7,0-4.5-2-4.5-6.2c0-4.5,1.2-6.2,4.5-6.2c1.5,0,3.5,0.5,3.5,0.5l-0.1,2.1
			c0,0-2.1-0.2-3.1-0.2c-1.8,0-2.4,0.7-2.4,3.9c0,3,0.4,3.9,2.5,3.9c0.9,0,3-0.3,3-0.3L128.3,75.2z"/>
		<path class="st1" d="M129.3,69.5c0-4,1.2-6.3,4.9-6.3s4.9,2.3,4.9,6.3c0,4-1.2,6.1-4.9,6.1S129.3,73.6,129.3,69.5z M136.6,69.5
			c0-2.6-0.5-4-2.4-4c-2,0-2.4,1.4-2.4,4c0,2.6,0.5,3.8,2.4,3.8C136.2,73.3,136.6,72.1,136.6,69.5z"/>
		<path class="st1" d="M140.7,63.4h3.8l2.4,8.6l2.4-8.6h3.8v12h-2.4v-9h-0.3l-2.3,8.5h-2.4l-2.3-8.5h-0.3v9h-2.4V63.4z"/>
		<path class="st1" d="M157.5,72v3.4h-2.4v-12h4.4c2.8,0,4.2,1.4,4.2,4.2c0,2.8-1.4,4.4-4.2,4.4H157.5z M159.5,69.7
			c1.2,0,1.8-0.8,1.8-2.1c0-1.3-0.6-1.9-1.8-1.9h-1.9v4H159.5z"/>
		<path class="st1" d="M169.4,73.2c1.2,0,2.1-0.4,2.1-1.8v-8h2.4v8c0,3-1.6,4.2-4.5,4.2c-3,0-4.5-1.2-4.5-4.2v-8h2.4v8
			C167.3,72.8,168.2,73.2,169.4,73.2z"/>
		<path class="st1" d="M174.5,63.4h8.7v2.3h-3.1v9.7h-2.4v-9.7h-3.2V63.4z"/>
		<path class="st1" d="M183.9,63.4h7.6v2.3h-5.3v2.7h4.2v2.2h-4.2v2.5h5.3v2.3h-7.6V63.4z"/>
		<path class="st1" d="M197.7,71.6h-2.1v3.9h-2.4v-12h4.6c2.8,0,4.2,1.2,4.2,4c0,1.8-0.7,2.8-1.7,3.4l1.7,4.6h-2.6l-1.4-3.9H197.7z
			 M197.8,65.7h-2.2v3.6h2.2c1.2,0,1.7-0.7,1.7-1.8C199.5,66.3,198.9,65.7,197.8,65.7z"/>
		<path class="st1" d="M210.2,65.8c0,0-2.1-0.3-3.1-0.3c-0.9,0-1.5,0.3-1.5,1c0,0.8,0.3,1,2.2,1.8c2.1,0.9,2.9,1.6,2.9,3.6
			c0,2.5-1.4,3.7-3.9,3.7c-1.3,0-3.7-0.5-3.7-0.5l0.2-2.2c0,0,2.2,0.3,3.4,0.3c0.9,0,1.5-0.3,1.5-1.3c0-0.7-0.3-1-1.8-1.6
			c-2.7-1.1-3.3-1.8-3.3-3.8c0-2.3,1.6-3.4,3.9-3.4c1.3,0,3.3,0.5,3.3,0.5L210.2,65.8z"/>
	</g>
</g>
</svg>
