<?xml version="1.0" encoding="utf-8"?>
<!-- Generator: Adobe Illustrator 19.2.1, SVG Export Plug-In . SVG Version: 6.00 Build 0)  -->
<svg version="1.1" id="Layer_1" xmlns="http://www.w3.org/2000/svg" xmlns:xlink="http://www.w3.org/1999/xlink" x="0px" y="0px"
	 viewBox="0 0 200 200" style="enable-background:new 0 0 200 200;" xml:space="preserve">
<style type="text/css">
	.st0{fill:#FFFFFF;}
</style>
<g>
	<g>
		<path class="st0" d="M149.6,79.2L80.8,12.7c-4.4-4.4-10.3-6.8-16.5-6.8c-6.3,0-12.1,2.4-16.6,6.9c-4.4,4.4-6.9,10.3-6.9,16.6
			c0,6.3,2.4,12.2,6.9,16.6l50.1,49.9c1.1,1.1,1.7,2.6,1.7,4.1c0,1.6-0.6,3-1.7,4.2l-50.1,49.7c-4.5,4.5-6.9,10.3-6.9,16.6
			c0,6.3,2.4,12.2,6.9,16.6c4.4,4.4,10.3,6.9,16.6,6.9c6.3,0,12.2-2.4,16.6-6.9l9.4-9.4l59.2-56.7c5.6-5.6,8.7-13,8.7-20.9
			C158.2,92.1,155.1,84.8,149.6,79.2L149.6,79.2z M141.3,112.4l-68.7,66.3c-4.4,4.4-12.2,4.4-16.6,0c-2.2-2.2-3.4-5.2-3.4-8.3
			c0-3.1,1.2-6.1,3.4-8.3l50.1-49.6c3.3-3.3,5.2-7.8,5.2-12.5c0-4.7-1.8-9.1-5.2-12.4L56,37.7c-2.2-2.2-3.4-5.1-3.4-8.3
			c0-3.1,1.2-6.1,3.4-8.3c2.2-2.2,5.2-3.4,8.3-3.4c3.2,0,6.1,1.2,8.3,3.4l68.8,66.5c3.2,3.3,5.1,7.7,5.1,12.4
			C146.4,104.7,144.6,109.1,141.3,112.4L141.3,112.4z M141.3,112.4"/>
	</g>
</g>
</svg>
