<svg id="Layer_1" data-name="Layer 1" xmlns="http://www.w3.org/2000/svg" viewBox="0 0 157.01 157.01"><defs><style>.cls-1{fill:#fbb03b;}</style></defs><title>calendarYellow</title><path class="cls-1" d="M163.77,31.32a4.9,4.9,0,1,0,0,9.79A4.92,4.92,0,0,1,168.68,46V70.56H31.32V46a4.9,4.9,0,0,1,4.88-4.91,4.9,4.9,0,1,0,0-9.79A14.72,14.72,0,0,0,21.5,46V163.77A14.75,14.75,0,0,0,36.2,178.5H163.77a14.76,14.76,0,0,0,14.74-14.74V46a14.74,14.74,0,0,0-14.74-14.71h0Zm4.91,132.45a4.92,4.92,0,0,1-4.91,4.91H36.2a4.89,4.89,0,0,1-4.88-4.91V80.38H168.68v83.39ZM50.94,50.94A4.92,4.92,0,0,0,55.85,46V26.41a4.91,4.91,0,0,0-9.82,0V46a4.92,4.92,0,0,0,4.91,4.91h0Zm19.62,0A4.92,4.92,0,0,0,75.47,46V26.41a4.91,4.91,0,1,0-9.82,0V46a4.92,4.92,0,0,0,4.91,4.91h0Zm19.62,0A4.92,4.92,0,0,0,95.09,46V26.41a4.91,4.91,0,0,0-9.82,0V46a4.92,4.92,0,0,0,4.91,4.91h0Zm19.62,0A4.9,4.9,0,0,0,114.71,46V26.41a4.9,4.9,0,1,0-9.79,0V46a4.9,4.9,0,0,0,4.88,4.91h0Zm19.65,0A4.9,4.9,0,0,0,134.32,46V26.41a4.9,4.9,0,1,0-9.79,0V46a4.9,4.9,0,0,0,4.91,4.91h0Zm19.62,0A4.92,4.92,0,0,0,154,46V26.41a4.91,4.91,0,0,0-9.82,0V46a4.92,4.92,0,0,0,4.91,4.91h0ZM127,144.15a7.37,7.37,0,0,1-7.35-7.35,4.91,4.91,0,0,0-9.82,0,17.18,17.18,0,1,0,34.36,0A17,17,0,0,0,139,124.53a17,17,0,0,0,5.18-12.27,17.18,17.18,0,1,0-34.36,0,4.91,4.91,0,1,0,9.82,0,7.35,7.35,0,1,1,7.35,7.35,4.91,4.91,0,1,0,0,9.82,7.35,7.35,0,1,1,0,14.71h0Zm-71.12,4.91A4.9,4.9,0,0,0,60.73,154H85.26a4.91,4.91,0,0,0,0-9.82h-17c2-2.61,4.91-5.63,7.28-8.1,7.19-7.55,14.64-15.36,14.64-23.79a17.16,17.16,0,1,0-34.32,0,4.9,4.9,0,1,0,9.79,0,7.37,7.37,0,0,1,14.74,0c0,4.5-6.64,11.43-11.93,17-6.78,7.07-12.6,13.18-12.6,19.79h0Zm0,0" transform="translate(-21.5 -21.5)"/></svg>