<svg id="Layer_1" data-name="Layer 1" xmlns="http://www.w3.org/2000/svg" viewBox="0 0 152.95 152.95"><defs><style>.cls-1{fill:#fbb03b;}</style></defs><title>clockYellow</title><path class="cls-1" d="M100,23.52A76.48,76.48,0,1,0,176.48,100,76.56,76.56,0,0,0,100,23.52h0Zm0,143.38A66.91,66.91,0,1,1,166.91,100,67,67,0,0,1,100,166.91h0Zm12.49-60a14.13,14.13,0,0,0,1.84-6.88,14.34,14.34,0,0,0-9.54-13.47V47.42a4.79,4.79,0,1,0-9.57,0V86.53A14.3,14.3,0,0,0,100,114.33a14,14,0,0,0,5.34-1.05l20,19.93a4.77,4.77,0,0,0,6.75-6.75ZM100,104.79a4.79,4.79,0,1,1,4.79-4.79,4.79,4.79,0,0,1-4.79,4.79h0Zm0,0" transform="translate(-23.52 -23.52)"/></svg>