<svg id="Layer_1" data-name="Layer 1" xmlns="http://www.w3.org/2000/svg" viewBox="0 0 136.74 168.3"><defs><style>.cls-1{fill:#fbb03b;}</style></defs><title>examYellow</title><path class="cls-1" d="M152.57,15.85H47.39A15.8,15.8,0,0,0,31.63,31.61V168.35a15.81,15.81,0,0,0,15.76,15.8H152.57a15.82,15.82,0,0,0,15.8-15.8V31.61a15.81,15.81,0,0,0-15.8-15.76h0Zm5.27,152.5a5.27,5.27,0,0,1-5.27,5.27H47.39a5.25,5.25,0,0,1-5.23-5.27V62.2a15.37,15.37,0,0,0,5.23,1H152.57a15.41,15.41,0,0,0,5.27-1V168.35Zm0-120.94a5.27,5.27,0,0,1-5.27,5.27H47.39a5.25,5.25,0,0,1-5.23-5.27V31.61a5.22,5.22,0,0,1,5.23-5.23H152.57a5.25,5.25,0,0,1,5.27,5.23v15.8ZM84.22,89.47H79V84.2a5.25,5.25,0,0,0-10.5,0v5.27H63.19a5.27,5.27,0,1,0,0,10.53h5.27v5.27a5.25,5.25,0,0,0,10.5,0V100h5.27a5.27,5.27,0,0,0,0-10.53h0Zm52.59,0h-21a5.27,5.27,0,0,0,0,10.53h21a5.27,5.27,0,1,0,0-10.53h0Zm0,36.83h-21a5.25,5.25,0,1,0,0,10.5h21a5.25,5.25,0,1,0,0-10.5h0Zm0,21h-21a5.27,5.27,0,0,0,0,10.53h21a5.27,5.27,0,1,0,0-10.53h0ZM87.94,127.83a5.27,5.27,0,0,0-7.44,0l-6.81,6.8-6.78-6.8a5.26,5.26,0,1,0-7.45,7.42l6.81,6.8-6.81,6.8a5.27,5.27,0,1,0,7.45,7.45l6.78-6.8,6.81,6.8a5.26,5.26,0,1,0,7.44-7.45l-6.8-6.8,6.8-6.8a5.23,5.23,0,0,0,0-7.42h0Zm0,0" transform="translate(-31.63 -15.85)"/></svg>