<svg id="Layer_1" data-name="Layer 1" xmlns="http://www.w3.org/2000/svg" viewBox="0 0 128.49 158.14"><defs><style>.cls-1{fill:#fbb03b;}</style></defs><title>locationYellow</title><path class="cls-1" d="M100,20.93A64.3,64.3,0,0,0,35.76,85.16c0,56.56,59.24,91.77,61.75,93.24a4.93,4.93,0,0,0,5,0c2.51-1.47,61.75-36.67,61.75-93.24A64.32,64.32,0,0,0,100,20.93h0Zm0,147.35c-11-7.19-54.33-38.38-54.33-83.12a54.35,54.35,0,0,1,108.7,0c0,44.64-43.38,75.93-54.36,83.12h0Zm0-97.94a14.83,14.83,0,1,0,14.84,14.81A14.82,14.82,0,0,0,100,70.34h0Zm0,0" transform="translate(-35.76 -20.93)"/></svg>