<?xml version="1.0" encoding="utf-8"?>
<!-- Generator: Adobe Illustrator 19.2.1, SVG Export Plug-In . SVG Version: 6.00 Build 0)  -->
<svg version="1.1" id="Layer_1" xmlns="http://www.w3.org/2000/svg" xmlns:xlink="http://www.w3.org/1999/xlink" x="0px" y="0px"
	 viewBox="0 0 200 200" style="enable-background:new 0 0 200 200;" xml:space="preserve">
<style type="text/css">
	.st0{fill:#063551;}
	.st1{fill:#FFFFFF;}
</style>
<g>
	<rect x="-0.2" y="0.1" class="st0" width="200.2" height="200.2"/>
	<g>
		<path class="st1" d="M99.9,112.5L44.8,63.4l4.9-1h100.4l5.4,1.1L99.9,112.5z M54.7,66.6l45.2,40.3l45.6-40.3H54.7z"/>
		<path class="st1" d="M156.6,135.4L117.3,101l40.1-35.4l1.1,2.9c0.3,0.7,0.6,1.8,0.6,3.1v57.1c0,1.5-0.4,2.9-1.2,4.4L156.6,135.4z
			 M123.7,101l31.2,27.3V73.5L123.7,101z"/>
		<path class="st1" d="M42.7,135.1l-1.2-2.6c-0.6-1.2-0.8-2.5-0.8-3.8V71.7c0-1.2,0.2-2.4,0.7-3.6l1.1-2.7l40,35.6L42.7,135.1z
			 M44.9,73.1v54.6l31.2-26.8L44.9,73.1z"/>
		<path class="st1" d="M155.1,138H49.7l-4.8-1l39.8-34.1l15.2,13.5l15.2-13.5L155.1,138z M55.1,133.8h88.8l-28.8-25.2l-15.3,13.5
			l-15.2-13.6L55.1,133.8z"/>
	</g>
</g>
</svg>
