<?xml version="1.0" encoding="utf-8"?>
<!-- Generator: Adobe Illustrator 19.2.1, SVG Export Plug-In . SVG Version: 6.00 Build 0)  -->
<svg version="1.1" id="Layer_1" xmlns="http://www.w3.org/2000/svg" xmlns:xlink="http://www.w3.org/1999/xlink" x="0px" y="0px"
	 viewBox="0 0 200 200" style="enable-background:new 0 0 200 200;" xml:space="preserve">
<style type="text/css">
	.st0{fill:#FFFFFF;}
</style>
<g>
	<g>
		<path class="st0" d="M167.9,35.5c0-0.2,0-0.3,0-0.5c0-0.1,0-0.3,0-0.4c0-0.1-0.1-0.2-0.1-0.3c-0.1-0.2-0.1-0.3-0.2-0.5
			c0-0.1-0.1-0.2-0.1-0.3c-0.1-0.1-0.1-0.3-0.2-0.4c-0.1-0.1-0.2-0.3-0.3-0.4c-0.1-0.2-0.3-0.3-0.4-0.5c0,0,0-0.1-0.1-0.1
			c-0.1-0.1-0.1-0.1-0.2-0.1c-0.1-0.1-0.1-0.1-0.2-0.2c-0.1,0-0.1-0.1-0.1-0.1c0,0,0,0-0.1,0c0,0,0,0-0.1-0.1
			c-0.2-0.1-0.4-0.1-0.5-0.2c-0.1-0.1-0.3-0.1-0.4-0.2c-0.1,0-0.3-0.1-0.4-0.1c-0.2,0-0.3,0-0.5-0.1c-0.2,0-0.4-0.1-0.5-0.1
			c-0.1,0-0.1,0-0.1,0c-0.1,0-0.2,0-0.3,0c-0.2,0-0.3,0-0.5,0.1c-0.2,0.1-0.3,0.1-0.5,0.2c-0.1,0.1-0.3,0.1-0.4,0.2
			c-0.1,0.1-0.2,0.1-0.3,0.2c0,0-0.1,0-0.1,0L32.7,121.9c-1.5,1.1-2.2,3-1.6,4.8c0.6,1.8,2.2,3,4.1,3H78v34.3c0,0.1,0.1,0.3,0.1,0.4
			c0,0.3,0.1,0.6,0.2,0.9c0.1,0.3,0.2,0.5,0.3,0.7c0.1,0.3,0.3,0.5,0.5,0.7c0.2,0.2,0.4,0.4,0.6,0.6c0.1,0.1,0.2,0.2,0.3,0.3
			c0.1,0.1,0.3,0.1,0.4,0.2c0.1,0.1,0.3,0.1,0.4,0.2c0.5,0.2,1,0.3,1.5,0.3h0c0.5,0,1-0.1,1.5-0.3c0.1,0,0.2-0.1,0.3-0.1
			c0.4-0.2,0.8-0.5,1.2-0.8c0-0.1,0.1-0.1,0.1-0.2c0.2-0.2,0.4-0.4,0.5-0.6l15.5-24.4c0.1,0.1,0.2,0.2,0.3,0.2l47.1,25.7
			c1.3,0.7,2.8,0.7,4,0c1.3-0.7,2.1-1.9,2.3-3.4l12.8-128.4C167.9,35.8,167.9,35.6,167.9,35.5L167.9,35.5z M80.4,121.1H48.8
			L135,60.8L80.4,121.1z M86.6,149.2v-22.1l46.7-51.6L86.6,149.2z M147.2,157.1L106,134.6l51.6-81.5L147.2,157.1z M147.2,157.1"/>
	</g>
</g>
</svg>
