<svg id="Layer_1" data-name="Layer 1" xmlns="http://www.w3.org/2000/svg" viewBox="0 0 193.57 193.57"><defs><style>.cls-1{fill:#063551;}.cls-2{fill:#fff;}</style></defs><title>prepDiamond</title><rect class="cls-1" x="31.56" y="31.56" width="136.88" height="136.88" transform="translate(96.79 -44.63) rotate(45)"/><path class="cls-2" d="M119.51,101.63a6.51,6.51,0,0,0-6.5,6.5v3.25a1.63,1.63,0,0,1-1.63,1.63H88.61A1.63,1.63,0,0,1,87,111.38v-3.25a6.5,6.5,0,1,0-13,0v13A4.89,4.89,0,0,0,78.85,126h42.29a4.89,4.89,0,0,0,4.89-4.89v-13a6.51,6.51,0,0,0-6.51-6.5h0Zm3.26,19.51a1.63,1.63,0,0,1-1.63,1.63H78.85a1.62,1.62,0,0,1-1.62-1.63v-13a3.25,3.25,0,1,1,6.5,0v3.25a4.88,4.88,0,0,0,4.88,4.89h22.77a4.89,4.89,0,0,0,4.89-4.89v-3.25a3.25,3.25,0,1,1,6.5,0v13ZM95.85,108a5.95,5.95,0,0,0,8.43,0,2.05,2.05,0,0,0,.19-0.22l12-12.48a5,5,0,0,0,0-6.89,4.88,4.88,0,0,0-6.88,0l-4.73,4.55V78.85h0a4.88,4.88,0,0,0-9.75,0h0l0,14.08-4.68-4.51a4.88,4.88,0,0,0-6.93,6.88Zm-10-17.3a1.61,1.61,0,0,1,2.31,0l4.69,4.51a3.25,3.25,0,0,0,5.54-2.3V78.85a1.62,1.62,0,0,1,1.22-1.55,1.56,1.56,0,0,1,.39-0.07l0.12,0a1.61,1.61,0,0,1,1.48,1.6v14.1a3.22,3.22,0,0,0,1,2.31,3.25,3.25,0,0,0,2.29.95,3.22,3.22,0,0,0,2.28-.93l4.73-4.56a1.62,1.62,0,0,1,2.3,0,1.66,1.66,0,0,1,0,2.32l-12.26,12.69-0.11.14a2.7,2.7,0,0,1-3.65-.14L85.89,93a1.66,1.66,0,0,1,0-2.3h0Zm0,0" transform="translate(-3.21 -3.21)"/></svg>