<svg id="Layer_1" data-name="Layer 1" xmlns="http://www.w3.org/2000/svg" viewBox="0 0 200 200"><defs><style>.cls-1{fill:#063551;}.cls-2{fill:#fff;}</style></defs><title>researchDiamond</title><rect class="cls-1" x="29.29" y="29.29" width="141.42" height="141.42" transform="translate(100 -41.42) rotate(45)"/><path class="cls-2" d="M120.24,70.55a3.67,3.67,0,0,0-1.84,6.85v7.34a12.91,12.91,0,0,1-16-8.49l0.71-.72a1.84,1.84,0,0,0,0-2.6l-1.84-1.84a1.79,1.79,0,0,0-.59-0.4,1.87,1.87,0,0,0-2,.4l-1.83,1.84a1.84,1.84,0,0,0,0,2.6l0.71,0.72a12.92,12.92,0,0,1-16,8.49V77.4a3.68,3.68,0,1,0-3.67,0V100c0,7.48,4.68,14.38,9.63,19.59l0,0h0A67.92,67.92,0,0,0,99,129.17l0.06,0a2.11,2.11,0,0,0,.3.14l0.16,0.06a1.76,1.76,0,0,0,.44.06H100a1.8,1.8,0,0,0,.45-0.06l0.15-.05a3.08,3.08,0,0,0,.31-0.14,0.1,0.1,0,0,1,.05,0,67.23,67.23,0,0,0,11.32-9.43h0s0,0,0,0c5-5.22,9.76-12.17,9.76-19.71V77.4a3.67,3.67,0,0,0-1.84-6.85h0ZM85.27,89a16.56,16.56,0,0,0,14.72-9,16.61,16.61,0,0,0,14.73,9h0.12L99.93,104.28,85.12,88.94h0.15ZM81.59,90.6l3.76,3.87H81.59V90.6Zm0,9.4V98.16H88.9l3.56,3.69H81.72a14.22,14.22,0,0,1-.14-1.84h0Zm1,5.52H96l1.35,1.39L95,109.31a1.87,1.87,0,0,0-.56-0.11H84.28a23.72,23.72,0,0,1-1.68-3.69h0Zm4.08,7.36h4.87l-2.64,2.72q-1.16-1.31-2.23-2.72h0ZM100,125.39a69.12,69.12,0,0,1-8.55-7.11l8.48-8.72,8.52,8.82a68.65,68.65,0,0,1-8.46,7h0Zm11-9.68-2.73-2.83h5.05c-0.74,1-1.52,1.92-2.32,2.83h0Zm4.72-6.51H105.52a1.89,1.89,0,0,0-.68.13l-2.35-2.42,1.37-1.4H117.4a23.52,23.52,0,0,1-1.68,3.69h0Zm2.69-9.2a14.21,14.21,0,0,1-.12,1.84H107.45L111,98.16h7.37V100Zm0-5.53h-3.79l3.79-3.9v3.9Zm-12.88-1.83A5.52,5.52,0,1,0,100,98.16a5.54,5.54,0,0,0,5.53-5.52h0Zm-7.36,0A1.84,1.84,0,1,1,100,94.47a1.84,1.84,0,0,1-1.83-1.83h0Zm-1.3,22.62a1.84,1.84,0,0,0,0,2.6l0.54,0.54-0.54.54a1.84,1.84,0,1,0,2.6,2.6L100,121l0.54,0.54a1.84,1.84,0,1,0,2.61-2.6l-0.54-.54,0.54-.54a1.84,1.84,0,1,0-2.61-2.6l-0.54.54-0.54-.54a1.83,1.83,0,0,0-2.6,0h0Zm0,0" transform="translate(0 0)"/></svg>