<svg id="Layer_1" data-name="Layer 1" xmlns="http://www.w3.org/2000/svg" viewBox="0 0 196.32 196.32"><defs><style>.cls-1{fill:#063551;}.cls-2{fill:#fff;}</style></defs><title>admissionDiamond</title><rect class="cls-1" x="30.59" y="30.59" width="138.82" height="138.82" transform="translate(98.16 -43.26) rotate(45)"/><path class="cls-2" d="M129.72,70.28a12.23,12.23,0,0,0-17.3,0L75.64,106.85a2.1,2.1,0,0,0-.5.76l-8.32,22.9a2.09,2.09,0,0,0,2,2.8,2.06,2.06,0,0,0,.61-0.09l20.7-6.35a2.2,2.2,0,0,0,.86-0.52l38.76-38.76a12.22,12.22,0,0,0,0-17.3h0Zm-42,52.95-7.75,2.39a8.82,8.82,0,0,0-2.12-3.47,11.26,11.26,0,0,0-2.82-2l3.54-9.75h4.78v4.16a2.08,2.08,0,0,0,2.08,2.08H89.1Zm30.63-30.16L93,118.43,93.71,115a2.08,2.08,0,0,0-2-2.51H87.51v-4.17a2.09,2.09,0,0,0-2.08-2.08H82.14L106.9,81.62l0,0a8.07,8.07,0,1,1,11.41,11.41h0Zm8.43-8.43-1.94,1.94A12.19,12.19,0,0,0,113.4,75.16l2-1.93h0a8.07,8.07,0,1,1,11.41,11.42h0ZM113.1,84L92.29,104.77a2.08,2.08,0,0,0,0,2.95,2.08,2.08,0,0,0,2.94,0L116,86.9A2.08,2.08,0,1,0,113.1,84h0Zm0,0" transform="translate(-1.84 -1.84)"/></svg>