<svg id="Layer_1" data-name="Layer 1" xmlns="http://www.w3.org/2000/svg" viewBox="0 0 83.49 178.12"><defs><style>.cls-1{fill:#fbb03b;}</style></defs><title>dollarYellow</title><path class="cls-1" d="M138.62,118.24A42,42,0,0,0,133,108.15c-1.33-1.74-2.77-3.51-4.29-5.33A76.65,76.65,0,0,0,123.07,97c-2.06-2-4.21-4-6.36-5.71-1.79-1.44-3.42-2.75-5.43-4.32-3.61-2.94-6.63-5.46-9.05-7.64a44.71,44.71,0,0,1-5.16-5.49,18.5,18.5,0,0,1-3-5,4.52,4.52,0,0,1-.46-2.14A4.37,4.37,0,0,1,94,64.89a5.77,5.77,0,0,1,2.25-2.5,6.6,6.6,0,0,1,6.09-.65,7.64,7.64,0,0,1,2.74,1.77,5.78,5.78,0,0,1,1.09,3.21,16.16,16.16,0,0,0,5.35,12.06,18.3,18.3,0,0,0,24.46,0,16,16,0,0,0,5.38-12A38.07,38.07,0,0,0,138,51a41.46,41.46,0,0,0-32.5-23V16.51a5.56,5.56,0,1,0-11.12,0V28A40.53,40.53,0,0,0,84,30.64a42.86,42.86,0,0,0-18.61,14.1,40.9,40.9,0,0,0-5.14,10.19,35.63,35.63,0,0,0-2,11.77,40,40,0,0,0,3.29,15.43A55.28,55.28,0,0,0,73.61,99.37a79.79,79.79,0,0,0,7.69,7.37l7.48,6.19c3.78,2.94,6.69,5.41,8.91,7.53a73.43,73.43,0,0,1,5.36,5.6,18,18,0,0,1,2.82,4.86,4.27,4.27,0,0,1,.49,2.18A5.1,5.1,0,0,1,106,135a6.63,6.63,0,0,1-2.28,2.58,6.33,6.33,0,0,1-3.56,1,7.88,7.88,0,0,1-2.61-.41,7.72,7.72,0,0,1-2.69-1.82,5.51,5.51,0,0,1-1.09-3,16.34,16.34,0,0,0-5.35-12.23,18.31,18.31,0,0,0-24.49,0,16.45,16.45,0,0,0-5.32,12.2,37.59,37.59,0,0,0,3.24,15.38A39.58,39.58,0,0,0,77,165.6,42.72,42.72,0,0,0,94.43,172v11.52a5.57,5.57,0,1,0,11.15,0V172a47.14,47.14,0,0,0,10.74-2.72,43.2,43.2,0,0,0,18-13.94,36.27,36.27,0,0,0,7.44-22,39.2,39.2,0,0,0-3.12-15.06h0Zm-13.26,30.44a31.51,31.51,0,0,1-42.45,7.5A28.6,28.6,0,0,1,72,144.05a26.89,26.89,0,0,1-2.23-10.76,5.27,5.27,0,0,1,1.8-4.08,6.91,6.91,0,0,1,9.32,0,5.24,5.24,0,0,1,1.82,4.08,16.65,16.65,0,0,0,3.24,9.57,18,18,0,0,0,24,4,18,18,0,0,0,6.25-7.23,16.55,16.55,0,0,0,1.34-6.52,15.34,15.34,0,0,0-1.41-6.66,29.14,29.14,0,0,0-4.38-7.37,73.32,73.32,0,0,0-6.33-6.66c-2.5-2.39-5.68-5.09-9.62-8.15l-7.31-6.09a72.44,72.44,0,0,1-6.8-6.5,45.09,45.09,0,0,1-9.84-13.86A29.34,29.34,0,0,1,69.4,66.71a24.62,24.62,0,0,1,1.33-8.15,31.29,31.29,0,0,1,3.59-7.23A31.4,31.4,0,0,1,88.1,41a29.63,29.63,0,0,1,11.69-2.23A31.79,31.79,0,0,1,117,43.58,30.63,30.63,0,0,1,128,55.7a27.59,27.59,0,0,1,2.25,11,5,5,0,0,1-1.79,3.88,6.81,6.81,0,0,1-9.32,0,5,5,0,0,1-1.79-3.88,17.26,17.26,0,0,0-3.26-9.79,18.56,18.56,0,0,0-7.61-5.54A17.89,17.89,0,0,0,90.27,53a16.72,16.72,0,0,0-6.36,7.2,15.07,15.07,0,0,0-1.42,6.5,14.86,14.86,0,0,0,1.42,6.63,27.35,27.35,0,0,0,4.42,7.36,51.52,51.52,0,0,0,6.41,6.85c2.55,2.31,5.73,5,9.78,8.23,1.79,1.41,3.4,2.72,5.17,4.13s3.75,3.18,5.68,5.09a63.9,63.9,0,0,1,4.89,5.05c1.41,1.66,2.72,3.29,3.83,4.73a31,31,0,0,1,4.13,7.5,29,29,0,0,1,2.36,11,25.54,25.54,0,0,1-5.24,15.38h0Zm0,0" transform="translate(-58.26 -10.94)"/></svg>