<?xml version="1.0" encoding="utf-8"?>
<!-- Generator: Adobe Illustrator 19.2.1, SVG Export Plug-In . SVG Version: 6.00 Build 0)  -->
<svg version="1.1" id="Layer_1" xmlns="http://www.w3.org/2000/svg" xmlns:xlink="http://www.w3.org/1999/xlink" x="0px" y="0px"
	 viewBox="0 0 200 200" style="enable-background:new 0 0 200 200;" xml:space="preserve">
<style type="text/css">
	.st0{fill:#0071BC;}
	.st1{fill:#FFFFFF;}
</style>
<g>
	<rect x="-0.5" y="0" class="st0" width="200.5" height="200.5"/>
	<path class="st1" d="M111.4,50.4c6.3,0,13.6,0.5,13.6,0.7v15.5l-9.8,0c-7.2,0-9.2,3.4-9.2,8.4V89h20.9l-2.2,15H106v44H89v-44H76V89
		h13V73.2C89,58.4,98.3,50.4,111.4,50.4 M111.1,44.7C94.2,44.7,83,55.9,83,73.2V83h-7.9H70v6.1v14.1v5.7h5.1H83v40.2v6.8h6.2h17.7
		h4.1v-6.8V109h13.7h4.8l0.8-4.8l2.2-14.4l1-6.8h-6.6H111v-8.1c0-1.6,0.9-2.2,1-2.4c0.2-0.1,1.3-0.4,3-0.4l9.2,0l5.7,0v-5.6V51
		c0-2.4-1.4-5.1-4.9-5.7c-0.3-0.1-0.7-0.1-1.2-0.2c-0.8-0.1-2.1-0.2-3.4-0.2C117.5,44.8,114,44.7,111.1,44.7L111.1,44.7z"/>
</g>
</svg>
