<svg id="Layer_1" data-name="Layer 1" xmlns="http://www.w3.org/2000/svg" viewBox="0 0 199.24 199.24"><defs><style>.cls-1{fill:#063551;}.cls-2{fill:#fff;}</style></defs><title>regDiamond</title><rect class="cls-1" x="29.56" y="29.56" width="140.88" height="140.88" transform="translate(99.62 -41.8) rotate(45)"/><path class="cls-2" d="M117.15,81.46h-4.64a1.53,1.53,0,0,1-1.4-1.62V75.67a5.22,5.22,0,0,0-5.1-5.33H82.85a5.22,5.22,0,0,0-5.1,5.33v48.67a5.23,5.23,0,0,0,5.1,5.33h34.3a5.23,5.23,0,0,0,5.1-5.33V86.79a5.22,5.22,0,0,0-5.1-5.33h0Zm1.4,42.87a1.52,1.52,0,0,1-1.4,1.62H82.85a1.52,1.52,0,0,1-1.38-1.62V75.67A1.52,1.52,0,0,1,82.85,74H106a1.52,1.52,0,0,1,1.4,1.62v4.17a5.22,5.22,0,0,0,5.1,5.32h4.64a1.53,1.53,0,0,1,1.4,1.63v37.54ZM87,88.87h14.83a1.86,1.86,0,1,0,0-3.71H87a1.86,1.86,0,0,0,0,3.71h0Zm26,3.71H87a1.85,1.85,0,1,0,0,3.7h26a1.85,1.85,0,1,0,0-3.7h0Zm0,7.41H87a1.85,1.85,0,1,0,0,3.7h26a1.85,1.85,0,1,0,0-3.7h0Zm0,7.41H87a1.86,1.86,0,0,0,0,3.71h26a1.86,1.86,0,0,0,0-3.71h0Zm0,7.41H87a1.86,1.86,0,0,0,0,3.71h26a1.86,1.86,0,0,0,0-3.71h0Zm0,0" transform="translate(-0.38 -0.38)"/></svg>