<svg id="Layer_1" data-name="Layer 1" xmlns="http://www.w3.org/2000/svg" viewBox="0 0 200 200"><defs><style>.cls-1{fill:#063551;}.cls-2{fill:#fff;}</style></defs><title>signingDiamond</title><rect class="cls-1" x="29.29" y="29.29" width="141.42" height="141.42" transform="translate(100 -41.42) rotate(45)"/><path class="cls-2" d="M130,78.6a6.95,6.95,0,0,0-9.82,0L106.49,92.29a1.38,1.38,0,0,0,0,1.94l0,0L82.7,118.1A14,14,0,0,0,78.81,124a4.93,4.93,0,0,0,.3,3.58l-1.31,1.31a1.38,1.38,0,1,0,1.95,1.95L81,129.49a4.49,4.49,0,0,0,2.09.5c1.77,0,4.2-.93,7.36-4.09l23.83-23.83,0,0a1.38,1.38,0,0,0,1.95,0L130,88.42a7,7,0,0,0,0-9.82h0ZM81.87,126.73c-1.08-1.08-.39-3.16,1.83-5.68l3.85,3.85c-1.73,1.53-3.26,2.34-4.39,2.34a1.75,1.75,0,0,1-1.29-.5h0ZM89.53,123l-3.91-3.91,22.85-22.85,1,1-1.95,1.94a1.38,1.38,0,0,0,1.95,1.95l1.94-1.95,1,1ZM128,86.47L115.33,99.19l-2-2,13.1-13.1a1.38,1.38,0,0,0-1.94-1.94l-13.1,13.1-2-2,12.71-12.71A4.19,4.19,0,0,1,128,86.47h0Zm0,0" transform="translate(0 0)"/><path class="cls-2" d="M88.93,92.6L89,89.84l2.76-.1a1.37,1.37,0,0,0,1.32-1.32l0.15-4a1.38,1.38,0,0,0-2.75-.1L90.4,87l-2.76.1a1.37,1.37,0,0,0-1.32,1.32l-0.1,2.76-2.76.1a1.38,1.38,0,0,0,0,2.75h0.05l4-.15a1.38,1.38,0,0,0,1.32-1.32h0Zm0,0" transform="translate(0 0)"/><path class="cls-2" d="M84.43,110.18a1.37,1.37,0,0,0,1-.4L109,86.21a1.38,1.38,0,0,0,0-1.94L93.89,69.19a1.37,1.37,0,0,0-1.94,0L68.38,92.76a1.37,1.37,0,0,0,0,1.94l15.07,15.07a1.38,1.38,0,0,0,1,.4h0Zm8.49-38.07L106,85.24,84.43,106.86,71.3,93.73Zm0,0" transform="translate(0 0)"/></svg>