<?xml version="1.0" encoding="utf-8"?>
<!-- Generator: Adobe Illustrator 19.2.1, SVG Export Plug-In . SVG Version: 6.00 Build 0)  -->
<svg version="1.1" id="Layer_1" xmlns="http://www.w3.org/2000/svg" xmlns:xlink="http://www.w3.org/1999/xlink" x="0px" y="0px"
	 viewBox="0 0 200 200" style="enable-background:new 0 0 200 200;" xml:space="preserve">
<style type="text/css">
	.st0{fill:#FFFFFF;}
</style>
<path class="st0" d="M159.5,105c-10.9,0-19.8,8.9-19.8,19.8v9.9c0,2.7-2.2,5-5,5H65.3c-2.7,0-5-2.2-5-5v-9.9
	c0-11-8.9-19.8-19.8-19.8c-10.9,0-19.8,8.9-19.8,19.8v39.7c0,8.2,6.7,14.9,14.9,14.9h129c8.2,0,14.9-6.7,14.9-14.9v-39.7
	C179.4,113.9,170.5,105,159.5,105L159.5,105z M169.5,164.5c0,2.7-2.2,5-5,5h-129c-2.7,0-4.9-2.2-4.9-5v-39.7c0-5.5,4.4-9.9,9.9-9.9
	c5.5,0,9.9,4.5,9.9,9.9v9.9c0,8.2,6.7,14.9,14.9,14.9h69.5c8.2,0,14.9-6.7,14.9-14.9v-9.9c0-5.5,4.4-9.9,9.9-9.9
	c5.5,0,9.9,4.5,9.9,9.9V164.5z M87.3,124.4c3.4,3.4,8,5.3,12.9,5.3c4.8,0,9.4-1.9,12.8-5.3c0.2-0.2,0.4-0.5,0.6-0.7l36.8-38.1
	c5.6-5.6,5.6-15.4,0-21c-2.8-2.8-6.5-4.4-10.5-4.4c-4,0-7.7,1.6-10.5,4.3L115,78.5v-43h0c0-8.2-6.7-14.9-14.9-14.9
	c-8.2,0-14.9,6.7-14.9,14.9h0l-0.1,43L71,64.7c-2.8-2.8-6.6-4.4-10.5-4.4c-4,0-7.7,1.6-10.5,4.3c-2.8,2.8-4.4,6.6-4.4,10.5
	c0,4,1.6,7.7,4.3,10.5L87.3,124.4z M56.9,71.7c0.9-0.9,2.2-1.5,3.5-1.5c1.3,0,2.6,0.5,3.6,1.5l14.3,13.8c1.9,1.9,4.4,2.9,7,2.9
	c2.6,0,5.1-1,7-2.9c1.9-1.9,2.9-4.4,2.9-7.1v-43c0-2.3,1.6-4.2,3.7-4.7c0.4-0.1,0.8-0.2,1.2-0.2c0.1,0,0.2,0,0.4,0.1
	c2.5,0.2,4.5,2.3,4.5,4.9v43c0,2.7,1,5.2,2.9,7.1c1.9,1.8,4.4,2.9,7,2.9c2.7,0,5.2-1,7-2.8l14.4-13.9c0.9-0.9,2.2-1.5,3.5-1.5
	c1.3,0,2.6,0.5,3.5,1.5c1.9,1.9,1.9,5.1-0.1,7.1l-37.4,38.7c-0.1,0.1-0.2,0.3-0.3,0.4c-1.5,1.3-3.3,2-5.3,2c-2.2,0-4.3-0.9-5.8-2.4
	L56.9,78.7C55.1,76.8,55.1,73.5,56.9,71.7L56.9,71.7z M56.9,71.7"/>
</svg>
