<?xml version="1.0" encoding="utf-8"?>
<!-- Generator: Adobe Illustrator 19.2.1, SVG Export Plug-In . SVG Version: 6.00 Build 0)  -->
<svg version="1.1" id="Layer_1" xmlns="http://www.w3.org/2000/svg" xmlns:xlink="http://www.w3.org/1999/xlink" x="0px" y="0px"
	 viewBox="0 0 200 200" style="enable-background:new 0 0 200 200;" xml:space="preserve">
<style type="text/css">
	.st0{fill:#FBB03B;}
	.st1{fill:#FFFFFF;}
</style>
<g>
	<rect x="-0.5" y="0" class="st0" width="200.5" height="200.5"/>
	<path class="st1" d="M101.9,44.1c-25.1,0-45.5,20.4-45.5,45.5c0,40.1,42,65.1,43.8,66.1c0.5,0.3,1.2,0.5,1.8,0.5
		c0.6,0,1.2-0.2,1.8-0.5c1.8-1,43.8-26,43.8-66.1C147.5,64.6,127,44.1,101.9,44.1L101.9,44.1z M101.9,148.6
		c-7.8-5.1-38.5-27.2-38.5-58.9c0-21.2,17.3-38.5,38.5-38.5c21.3,0,38.5,17.3,38.5,38.5C140.5,121.3,109.7,143.5,101.9,148.6
		L101.9,148.6z M101.9,79.2c-5.8,0-10.5,4.7-10.5,10.5c0,5.8,4.7,10.5,10.5,10.5c5.8,0,10.5-4.7,10.5-10.5
		C112.4,83.9,107.7,79.2,101.9,79.2L101.9,79.2z M101.9,79.2"/>
</g>
</svg>
